<svg xmlns="http://www.w3.org/2000/svg" xmlns:xlink="http://www.w3.org/1999/xlink" version="1.1" width="246pt" height="156pt" viewBox="0 0 246 156">
<defs>
<clipPath id="clip_0">
<path transform="matrix(.24,0,0,.24,0,0)" d="M0 0H1021.875V646.875H0Z" fill-rule="evenodd"/>
</clipPath>
<path id="font_1_53" d="M.20703125 .28710938V.0390625L.30615235 .025878907V0H.03515625V.025878907L.11279297 .0390625V.6166992L.028808594 .62939456V.65527346H.31152345C.3935547 .65527346 .45410157 .64141848 .49316407 .6137085 .53222659 .58599856 .5517578 .5415039 .5517578 .4802246 .5517578 .4365438 .5398763 .39881388 .5161133 .3670349 .49235026 .33525596 .45947267 .3131714 .41748048 .30078126L.59472659 .0390625 .66552737 .025878907V0H.50878909L.32470704 .28710938H.20703125M.45458985 .47338868C.45458985 .5232849 .4424642 .55874636 .4182129 .57977297 .39396159 .60080978 .35139976 .6113281 .29052735 .6113281H.20703125V.3310547H.29345704C.35172526 .3310547 .3931478 .34189353 .4177246 .36357118 .44230143 .385259 .45458985 .42186485 .45458985 .47338868Z"/>
<path id="font_1_88" d="M.15283203 .13085938C.15283203 .07486979 .1788737 .046875 .23095703 .046875 .27132163 .046875 .30908204 .051920576 .34423829 .06201172V.4248047L.27490235 .43701173V.45898438H.4248047V.034179689L.48291017 .021972657V0H.3491211L.34521485 .037109376C.32210288 .024414063 .29541017 .013427734 .26513673 .0041503908 .23486328-.005126953 .20947266-.009765625 .18896485-.009765625 .110839847-.009765625 .071777347 .03515625 .071777347 .125V.4248047L.013183594 .43701173V.45898438H.15283203V.13085938Z"/>
<path id="font_1_81" d="M.15820313 .42236329C.18326824 .4366862 .20996094 .44848634 .23828125 .45776368 .26660157 .46704103 .2902018 .4716797 .30908204 .4716797 .34879557 .4716797 .3787435 .46010844 .39892579 .43696595 .41910807 .41383363 .42919923 .38026939 .42919923 .3362732V.034179689L.48486329 .021972657V0H.28710938V.021972657L.34814454 .034179689V.3275299C.34814454 .35457865 .34155274 .37584434 .32836915 .3913269 .31518556 .40680949 .29475913 .41455079 .26708985 .41455079 .23779297 .41455079 .20182292 .40983073 .15917969 .40039063V.034179689L.2211914 .021972657V0H.022949219V.021972657L.078125 .034179689V.4248047L.022949219 .43701173V.45898438H.1538086L.15820313 .42236329Z"/>
<path id="font_1_87" d="M.16308594-.009765625C.13183594-.009765625 .10847982-.00048828127 .09301758 .018066407 .077555339 .036621095 .06982422 .06266276 .06982422 .096191409V.41796876H.009765625V.4399414L.07080078 .45898438 .12011719 .5629883H.1508789V.45898438H.25585938V.41796876H.1508789V.10498047C.1508789 .08382162 .15568035 .067871097 .1652832 .057128908 .17488607 .04638672 .1875 .041015626 .203125 .041015626 .2220052 .041015626 .24495442 .043619794 .27197267 .048828126V.017089844C.26057945 .009277344 .24414063 .0028483074 .22265625-.0021972657 .20117188-.0072428386 .18131511-.009765625 .16308594-.009765625Z"/>
<path id="font_1_76" d="M.1850586 .609375C.1850586 .59505209 .17985027 .5826823 .1694336 .5722656 .15901692 .56184896 .14648438 .5566406 .13183594 .5566406 .11751302 .5566406 .10514323 .56184896 .09472656 .5722656 .0843099 .5826823 .07910156 .59505209 .07910156 .609375 .07910156 .62402346 .0843099 .63655599 .09472656 .64697268 .10514323 .65738937 .11751302 .66259768 .13183594 .66259768 .14648438 .66259768 .15901692 .65738937 .1694336 .64697268 .17985027 .63655599 .1850586 .62402346 .1850586 .609375M.18017578 .034179689 .25878907 .021972657V0H.020996094V.021972657L.099121097 .034179689V.4248047L.034179689 .43701173V.45898438H.18017578V.034179689Z"/>
<path id="font_1_80" d="M.15917969 .42236329C.18359375 .4363607 .20947266 .44807945 .2368164 .45751954 .26416017 .46695964 .2882487 .4716797 .30908204 .4716797 .33154298 .4716797 .35229493 .4674479 .3713379 .45898438 .39038087 .45052085 .4046224 .43701173 .4140625 .41845704 .4391276 .43245445 .46850587 .44482423 .50219729 .4555664 .5358887 .4663086 .56380209 .4716797 .5859375 .4716797 .6640625 .4716797 .703125 .4265442 .703125 .3362732V.034179689L.76220706 .021972657V0H.55371096V.021972657L.6220703 .034179689V.3275299C.6220703 .3835907 .5960286 .4116211 .5439453 .4116211 .53548178 .4116211 .52563479 .41097007 .5144043 .40966798 .5031738 .40836589 .49194337 .40690104 .4807129 .40527345 .46948243 .40364585 .45874024 .40177409 .44848634 .3996582 .43823243 .39754234 .4296875 .39583335 .42285157 .39453126 .4283854 .37693278 .43115235 .35753886 .43115235 .3363495V.034179689L.5 .021972657V0H.28222657V.021972657L.35009767 .034179689V.3275299C.35009767 .35457865 .34318034 .37535606 .3293457 .38986207 .31551109 .40436808 .29475913 .4116211 .26708985 .4116211 .23844402 .4116211 .20279949 .40690104 .16015625 .39746095V.034179689L.2290039 .021972657V0H.020996094V.021972657L.07910156 .034179689V.4248047L.020996094 .43701173V.45898438H.15527344L.15917969 .42236329Z"/>
<path id="font_1_72" d="M.12695313 .23144531V.22264099C.12695313 .17759705 .13191732 .14259339 .1418457 .117630008 .1517741 .092666629 .16707357 .073654178 .18774414 .06059265 .20841472 .0475413 .23551433 .041015626 .26904298 .041015626 .2866211 .041015626 .30745445 .04248047 .33154298 .045410158 .3556315 .048339845 .37548829 .05159505 .39111329 .05517578V.027832032C.37548829 .017740885 .35424806 .008951823 .32739259 .0014648438 .3005371-.0060221354 .27311198-.009765625 .24511719-.009765625 .17382813-.009765625 .121663417 .009460449 .08862305 .047912599 .055582685 .086364749 .0390625 .14811199 .0390625 .2331543 .0390625 .3133138 .055826826 .3731079 .08935547 .41253663 .12288412 .45196534 .17073567 .4716797 .23291016 .4716797 .3504232 .4716797 .4091797 .4049479 .4091797 .27148438V.23144531H.12695313M.23291016 .4326172C.19905599 .4326172 .1730957 .4189453 .1550293 .39160157 .13696289 .3642578 .12792969 .32389323 .12792969 .2705078H.32421876C.32421876 .32877604 .31673179 .37036134 .3017578 .39526368 .28678385 .42016603 .26383464 .4326172 .23291016 .4326172Z"/>
<path id="font_1_3" d="M0 0Z"/>
<path id="font_1_40" d="M.028808594 .025878907 .11279297 .0390625V.6166992L.028808594 .62939456V.65527346H.52001956V.49853517H.48779298L.47216798 .6044922C.43570964 .6090495 .38297526 .6113281 .31396485 .6113281H.20703125V.35546876H.38378907L.39892579 .43359376H.43017579V.23242188H.39892579L.38378907 .31152345H.20703125V.043945314H.3359375C.41992188 .043945314 .4749349 .04654948 .50097659 .051757814L.5288086 .17285156H.56103518L.5517578 0H.028808594V.025878907Z"/>
<path id="font_1_89" d="M.27197267-.009765625H.23583985L.046875 .4248047 0 .43701173V.45898438H.21386719V.43701173L.14111328 .42382813 .27490235 .106933597 .40283204 .4248047 .33007813 .43701173V.45898438H.5V.43701173L.4560547 .4267578 .27197267-.009765625Z"/>
<path id="font_1_85" d="M.32421876 .4716797V.34765626H.30322267L.27490235 .4013672C.2586263 .4013672 .23933919 .39916993 .21704102 .3947754 .19474285 .39038087 .17545574 .38460288 .15917969 .3774414V.034179689L.23779297 .021972657V0H.020019532V.021972657L.078125 .034179689V.4248047L.020019532 .43701173V.45898438H.1538086L.15820313 .40234376C.17773438 .41861979 .20418294 .43424479 .23754883 .44921876 .2709147 .46419273 .29736329 .4716797 .31689454 .4716797H.32421876Z"/>
<path id="font_1_82" d="M.46191407 .23217774C.46191407 .070882167 .39029948-.009765625 .24707031-.009765625 .17805989-.009765625 .12597656 .010925293 .09082031 .05230713 .055664064 .093688968 .038085939 .15364583 .038085939 .23217774 .038085939 .30973307 .055664064 .3690389 .09082031 .4100952 .12597656 .45115153 .17936199 .4716797 .25097657 .4716797 .32063804 .4716797 .37320964 .45155845 .4086914 .41131593 .4441732 .3710734 .46191407 .3113607 .46191407 .23217774M.37402345 .23217774C.37402345 .30257163 .36376954 .35357667 .34326173 .38519288 .3227539 .41680909 .2906901 .4326172 .24707031 .4326172 .20442708 .4326172 .17358399 .4174601 .15454102 .387146 .13549805 .35684205 .12597656 .30518595 .12597656 .23217774 .12597656 .15819295 .13566081 .105799358 .1550293 .07499695 .17439778 .044204713 .20507813 .028808594 .24707031 .028808594 .29003907 .028808594 .3219401 .04477946 .34277345 .07672119 .36360679 .108662929 .37402345 .16048177 .37402345 .23217774Z"/>
<path id="font_1_50" d="M.1430664 .328125C.1430664 .22298177 .16064453 .14680989 .19580078 .099609378 .23095703 .052408857 .28597007 .028808594 .36083985 .028808594 .43538413 .028808594 .49039714 .052408857 .5258789 .099609378 .56136068 .14680989 .57910159 .22298177 .57910159 .328125 .57910159 .4326172 .5614421 .50789389 .52612307 .5539551 .49080406 .6000163 .43570964 .6230469 .36083985 .6230469 .28564454 .6230469 .23055013 .6000163 .19555664 .5539551 .16056316 .50789389 .1430664 .4326172 .1430664 .328125M.041015626 .328125C.041015626 .55078127 .1476237 .6621094 .36083985 .6621094 .4663086 .6621094 .5460612 .6338704 .60009768 .5773926 .6541341 .52091476 .68115237 .43782554 .68115237 .328125 .68115237 .21679688 .6538086 .13264974 .5991211 .075683597 .5444336 .018717448 .4650065-.009765625 .36083985-.009765625 .2569987-.009765625 .17773438 .018636069 .123046878 .07543945 .068359378 .13224285 .041015626 .21647136 .041015626 .328125Z"/>
<path id="font_1_79" d="M.17919922 .034179689 .2578125 .021972657V0H.020019532V.021972657L.09814453 .034179689V.66064456L.020019532 .6723633V.69433596H.17919922V.034179689Z"/>
<path id="font_1_92" d="M.09716797-.21582031C.071777347-.21582031 .04671224-.21289063 .021972657-.20703125V-.107910159H.044921876L.061035158-.15478516C.071126308-.16227214 .085123699-.16601563 .103027347-.16601563 .11995443-.16601563 .13557942-.16113281 .14990235-.15136719 .16422527-.14160156 .17732747-.12711589 .18920899-.107910159 .2010905-.08870443 .21598308-.05436198 .23388672-.0048828127L.05908203 .4248047 .012207031 .43701173V.45898438H.22509766V.43701173L.15283203 .42382813 .27685548 .103027347 .39697267 .4248047 .3251953 .43701173V.45898438H.49609376V.43701173L.4482422 .4267578 .26904298-.028808594C.24788411-.08251953 .22949219-.12109375 .21386719-.14453125 .19824219-.16796875 .18098958-.18570964 .16210938-.1977539 .14322917-.20979817 .12158203-.21582031 .09716797-.21582031Z"/>
<path id="font_1_56" d="M.56591799 .6166992 .47802735 .62939456V.65527346H.7011719V.62939456L.6171875 .6166992V.22528076C.6171875 .14676921 .59562179 .08796692 .55249026 .0488739 .5093587 .009780884 .44677735-.009765625 .3647461-.009765625 .27783204-.009765625 .21280925 .009862264 .16967774 .049118043 .12654622 .08837382 .10498047 .14400228 .10498047 .21600342V.6166992L.020996094 .62939456V.65527346H.28271485V.62939456L.19873047 .6166992V.22329712C.19873047 .10438029 .2565104 .044921876 .3720703 .044921876 .4345703 .044921876 .48250328 .059743246 .51586917 .08938599 .54923507 .1190389 .56591799 .1630249 .56591799 .221344V.6166992Z"/>
<path id="font_1_83" d="M.07421875 .4248047 .021972657 .43701173V.45898438H.1508789L.15185547 .4326172C.16552735 .44433595 .18383789 .45377604 .20678711 .4609375 .22973633 .46809898 .25309245 .4716797 .27685548 .4716797 .33544923 .4716797 .38077799 .4513143 .4128418 .4105835 .4449056 .3698527 .4609375 .3113607 .4609375 .23510742 .4609375 .15723674 .44344078 .096954349 .40844728 .054260255 .37345378 .011576335 .32291667-.009765625 .25683595-.009765625 .22005208-.009765625 .1850586-.006184896 .15185547 .0009765625 .1538086-.022460938 .15478516-.040852865 .15478516-.05419922V-.17822266L.23486328-.1899414V-.21289063H.016113282V-.1899414L.07421875-.17822266V.4248047M.37304688 .23512268C.37304688 .29770408 .36287437 .34422813 .3425293 .37469483 .32218424 .40517173 .29134117 .42041017 .25 .42041017 .21191406 .42041017 .18017578 .41503907 .15478516 .40429688V.037124635C.18375652 .03158061 .2154948 .028808594 .25 .028808594 .33203126 .028808594 .37304688 .097579959 .37304688 .23512268Z"/>
<path id="font_1_71" d="M.35302735 .034179689C.3162435 .0048828127 .27327476-.009765625 .2241211-.009765625 .09879557-.009765625 .036132814 .068603519 .036132814 .2253418 .036132814 .3058268 .0538737 .3670044 .08935547 .4088745 .12483724 .45074464 .17708333 .4716797 .24609375 .4716797 .28125 .4716797 .31689454 .4679362 .35302735 .46044923 .35107423 .4711914 .35009767 .49820964 .35009767 .5415039V.66064456L.27294923 .6723633V.69433596H.43115235V.034179689L.48779298 .021972657V0H.35888673L.35302735 .034179689M.12402344 .22532654C.12402344 .1633962 .13444011 .11719259 .15527344 .0867157 .17610677 .05624898 .20800781 .041015626 .25097657 .041015626 .2877604 .041015626 .32080079 .04736328 .35009767 .060058595V.42332459C.3211263 .42886863 .28808595 .43164063 .25097657 .43164063 .16634114 .43164063 .12402344 .36286927 .12402344 .22532654Z"/>
<path id="font_1_68" d="M.22705078 .46972657C.277181 .46972657 .31404624 .4594574 .33764649 .43891908 .36124674 .4183909 .37304688 .38694764 .37304688 .34458924V.034179689L.43017579 .021972657V0H.30419923L.29492188 .045898439C.2578125 .0087890629 .21044922-.009765625 .15283203-.009765625 .07438151-.009765625 .03515625 .035888673 .03515625 .12719727 .03515625 .15784709 .041097005 .18319702 .052978517 .20324707 .06486002 .2233073 .08382162 .23863729 .10986328 .24923706 .13590496 .25983683 .17366536 .265625 .22314453 .26660157L.2919922 .2685547V.34033204C.2919922 .37190757 .2862142 .39518229 .2746582 .41015626 .2631022 .42513023 .24527996 .4326172 .2211914 .4326172 .18863933 .4326172 .15885417 .42496745 .13183594 .40966798L.115234378 .35253907H.087890628V.45263673C.140625 .46402995 .18701172 .46972657 .22705078 .46972657M.2919922 .234375 .22802735 .23242188C.18440755 .2307841 .15486653 .22229512 .1394043 .20695496 .123942058 .19162496 .11621094 .16600545 .11621094 .13009644 .11621094 .07266235 .13948567 .043945314 .18603516 .043945314 .20817058 .043945314 .22729492 .046468099 .2434082 .051513673 .25952149 .056559247 .27571617 .06298828 .2919922 .07080078V.234375Z"/>
<path id="font_1_55" d="M.1538086 0V.025878907L.2578125 .0390625V.61328127H.23291016C.15055339 .61328127 .09423828 .6100413 .063964847 .6035614L.05078125 .5019531H.018066407V.65527346H.5942383V.5019531H.56103518L.54785159 .6035614C.53808596 .6058299 .51676437 .6078542 .48388673 .6096344 .45100913 .6114146 .41503907 .6123047 .37597657 .6123047H.35205079V.0390625L.4560547 .025878907V0H.1538086Z"/>
<path id="font_1_78" d="M.16796875 .2211914 .35595704 .42382813 .30810548 .43701173V.45898438H.47021485V.43701173L.41308595 .42578126 .28222657 .2919922 .4501953 .033203126 .5 .021972657V0H.31201173V.021972657L.3540039 .034179689 .22802735 .2319336 .16796875 .16601563V.034179689L.21679688 .021972657V0H.028808594V.021972657L.08691406 .034179689V.66064456L.019042969 .6723633V.69433596H.16796875V.2211914Z"/>
<path id="font_1_20" d="M.30615235 .0390625 .4399414 .025878907V0H.087890628V.025878907L.22216797 .0390625V.5727539L.08984375 .5253906V.5513611L.28076173 .66015627H.30615235V.0390625Z"/>
<path id="font_1_98" d="M0 0Z"/>
<path id="font_1_58" d="M.67089846-.015625H.64501956L.47509767 .43652345 .30078126-.015625H.27490235L.05810547 .6166992 .0009765625 .62939456V.65527346H.25097657V.62939456L.15478516 .6166992 .31054688 .15429688 .4868164 .609375H.50878909L.67871096 .15429688 .82714846 .6166992 .72509768 .62939456V.65527346H.94189456V.62939456L.8847656 .6166992 .67089846-.015625Z"/>
<path id="font_1_86" d="M.35302735 .12904358C.35302735 .08342997 .33862306 .04888916 .30981446 .025421143 .28100587 .0019632977 .23844402-.009765625 .1821289-.009765625 .15934246-.009765625 .13419597-.007405599 .10668945-.0026855469 .079182948 .0020345052 .057617189 .0073242189 .041992189 .013183594V.12597656H.063964847L.087890628 .06201172C.11230469 .0398763 .14404297 .028808594 .18310547 .028808594 .24625652 .028808594 .27783204 .05586751 .27783204 .10998535 .27783204 .14973958 .2529297 .17809041 .203125 .19503784L.15966797 .20921326C.12679036 .21996562 .102864589 .23088074 .087890628 .24195862 .072916667 .2530365 .061360677 .26663719 .053222658 .28276063 .045084638 .29889427 .041015626 .31836448 .041015626 .34117127 .041015626 .38157655 .05476888 .41342674 .08227539 .4367218 .1097819 .46002708 .14697266 .4716797 .19384766 .4716797 .2273763 .4716797 .2693685 .46663413 .31982423 .45654298V.3564453H.296875L.2763672 .40966798C.2591146 .42496745 .2319336 .4326172 .19482422 .4326172 .16845703 .4326172 .14835613 .4260966 .13452149 .41305543 .12068685 .40001426 .11376953 .38241069 .11376953 .36024476 .11376953 .3416697 .120035808 .32602946 .13256836 .31332398 .1451009 .3006185 .1640625 .2900289 .18945313 .28155519 .23730469 .2652588 .2685547 .25336204 .28320313 .24586487 .29785157 .23837789 .31030274 .22917176 .32055665 .21824646 .33081056 .20733135 .3387858 .19486492 .34448243 .18084717 .35017906 .1668396 .35302735 .14957173 .35302735 .12904358Z"/>
<path id="font_1_70" d="M.41308595 .027832032C.3971354 .016113282 .37516276 .006917318 .34716798 .00024414063 .3191732-.0064290368 .29052735-.009765625 .26123048-.009765625 .112467449-.009765625 .038085939 .07120768 .038085939 .2331543 .038085939 .30973307 .057047529 .368632 .0949707 .40985108 .13289388 .45107017 .18717449 .4716797 .2578125 .4716797 .3017578 .4716797 .34977214 .46663413 .40185548 .45654298V.32861329H.375L.3540039 .40966798C.3269857 .42496745 .29459635 .4326172 .25683595 .4326172 .16959636 .4326172 .12597656 .36612956 .12597656 .2331543 .12597656 .16405232 .13924153 .11475118 .16577149 .085250858 .19230144 .0557607 .23339844 .041015626 .2890625 .041015626 .33658854 .041015626 .3779297 .04638672 .41308595 .057128908V.027832032Z"/>
<path id="font_1_21" d="M.44482423 0H.043945314V.071777347L.13476563 .15429688C.19303386 .20540364 .23583985 .2467448 .2631836 .2783203 .29052735 .30989585 .31013999 .3424479 .32202149 .37597657 .33390299 .40950523 .33984376 .44791667 .33984376 .49121095 .33984376 .5335286 .33024089 .5657552 .31103517 .5878906 .29182945 .61002609 .26041667 .62109377 .21679688 .62109377 .19954427 .62109377 .18180339 .6187439 .16357422 .6140442 .14534505 .6093445 .12923177 .6031087 .115234378 .5953369L.09814453 .515625H.06591797V.6411896C.12516277 .6551361 .17545574 .6621094 .21679688 .6621094 .28841148 .6621094 .34220378 .6472168 .37817384 .61743167 .4141439 .5876465 .4321289 .54557296 .4321289 .49121095 .4321289 .4547526 .42504884 .42032878 .41088868 .38793946 .39672853 .35555015 .375 .32332359 .34570313 .29125978 .31640626 .25919596 .26790367 .21435547 .20019531 .15673828 .17122396 .1319987 .14046224 .10481771 .107910159 .07519531H.44482423V0Z"/>
<path id="font_1_49" d="M.56396487 .6166992 .47607423 .62939456V.65527346H.69921877V.62939456L.6152344 .6166992V0H.5678711L.1640625 .58935549V.0390625L.25195313 .025878907V0H.028808594V.025878907L.11279297 .0390625V.6166992L.028808594 .62939456V.65527346H.22705078L.56396487 .16992188V.6166992Z"/>
<path id="font_2_3450" d="M.115234378 .37304688H.21826172V.24902344H.115234378V.37304688M.4482422 .37304688H.55126956V.24902344H.4482422V.37304688M.78125 .37304688H.88427737V.24902344H.78125V.37304688Z"/>
<path id="font_1_37" d="M.46777345 .49635316C.46777345 .5364736 .45524089 .56566366 .43017579 .58392336 .4051107 .6021932 .36442057 .6113281 .30810548 .6113281H.20703125V.36328126H.31396485C.36669923 .36328126 .40551759 .37371827 .43041993 .3945923 .45532228 .4154663 .46777345 .4493866 .46777345 .49635316M.51708987 .18652344C.51708987 .23242188 .50179037 .2660319 .4711914 .28735353 .44059245 .30867515 .39160157 .31933595 .32421876 .31933595H.20703125V.043945314C.25195313 .041992189 .2998047 .041015626 .35058595 .041015626 .40625 .041015626 .44791667 .052815755 .47558595 .076416019 .5032552 .10001627 .51708987 .13671875 .51708987 .18652344M.028808594 0V.025878907L.11279297 .0390625V.6166992L.028808594 .62939456V.65527346H.328125C.4111328 .65527346 .47184245 .64296469 .5102539 .61834719 .54866537 .5937297 .5678711 .5546875 .5678711 .5012207 .5678711 .4627482 .556071 .42997743 .5324707 .40290834 .5088704 .3758494 .4757487 .35775758 .43310548 .3486328 .49202476 .3424479 .53759768 .3252767 .5698242 .29711915 .6020508 .26896159 .61816409 .23274739 .61816409 .18847656 .61816409 .12565105 .59643557 .07804362 .5529785 .045654298 .5095215 .013264974 .4461263-.0029296876 .36279298-.0029296876L.1538086 0H.028808594Z"/>
<path id="font_1_44" d="M.21386719 .0390625 .29785157 .025878907V0H.036132814V.025878907L.12011719 .0390625V.6166992L.036132814 .62939456V.65527346H.29785157V.62939456L.21386719 .6166992V.0390625Z"/>
<path id="font_1_74" d="M.4248047 .31445313C.4248047 .26171876 .40901695 .22184246 .3774414 .19482422 .34586589 .16780599 .30045573 .15429688 .24121094 .15429688 .21451824 .15429688 .18977864 .15673828 .16699219 .1616211L.13623047 .09729004C.13720703 .09172567 .14355469 .08648682 .15527344 .08157349 .16699219 .07667033 .18164063 .07421875 .19921875 .07421875H.33496095C.3844401 .07421875 .42114259 .06347656 .44506837 .041992189 .46899415 .020507813 .48095704-.009114583 .48095704-.046875 .48095704-.08105469 .47143556-.110839847 .45239259-.13623047 .4333496-.1616211 .4054362-.18123372 .36865235-.19506836 .3318685-.208903 .28727214-.21582031 .23486328-.21582031 .17236328-.21582031 .12475586-.20621746 .092041019-.18701172 .059326173-.16780599 .04296875-.14046224 .04296875-.10498047 .04296875-.08772787 .048828126-.0707194 .060546876-.053955079 .072265628-.037190755 .09375-.017578125 .125 .0048828127 .10644531 .011088054 .09082031 .021697998 .078125 .036712648 .06542969 .051727296 .05908203 .06788635 .05908203 .08518982L.13623047 .17236328C.08479818 .19645183 .05908203 .24381511 .05908203 .31445313 .05908203 .36458335 .07495117 .4033203 .10668945 .43066407 .13842774 .4580078 .18457031 .4716797 .24511719 .4716797 .25716148 .4716797 .2726237 .47045899 .2915039 .46801759 .31038413 .46557618 .32486979 .46272788 .33496095 .45947267L.4428711 .5136719 .45996095 .49267579 .39208985 .42236329C.41389976 .39794923 .4248047 .36197917 .4248047 .31445313M.40478517-.06201172C.40478517-.04345703 .39908854-.028971354 .3876953-.018554688 .3763021-.0081380209 .35904948-.0029296876 .3359375-.0029296876H.15820313C.14453125-.0146484379 .13338216-.029541016 .12475586-.047607423 .116129558-.06567383 .111816409-.08251953 .111816409-.09814453 .111816409-.12613933 .121907558-.14624024 .14208985-.15844727 .16227214-.1706543 .19319661-.17675781 .23486328-.17675781 .28922526-.17675781 .33113609-.16666667 .3605957-.14648438 .39005534-.12630208 .40478517-.09814453 .40478517-.06201172M.2421875 .19140625C.27766929 .19140625 .30281578 .20157878 .31762696 .22192383 .33243815 .24226888 .33984376 .27311198 .33984376 .31445313 .33984376 .3577474 .332194 .38859049 .31689454 .40698243 .30159507 .42537437 .27701823 .4345703 .24316406 .4345703 .20898438 .4345703 .18391927 .42529298 .16796875 .40673829 .15201824 .3881836 .14404297 .35742188 .14404297 .31445313 .14404297 .27148438 .15185547 .24023438 .16748047 .22070313 .18310547 .20117188 .20800781 .19140625 .2421875 .19140625Z"/>
<path id="font_1_48" d="M.42089845 0H.4038086L.1640625 .56347659V.0390625L.25195313 .025878907V0H.028808594V.025878907L.11279297 .0390625V.6166992L.028808594 .62939456V.65527346H.22705078L.4399414 .15686035 .6723633 .65527346H.8598633V.62939456L.7758789 .6166992V.0390625L.8598633 .025878907V0H.5942383V.025878907L.6821289 .0390625V.56347659L.42089845 0Z"/>
<path id="font_1_46" d="M.66064456 .65527346V.62939456L.58496096 .6166992 .36132813 .39775086 .6411133 .0390625 .71191409 .025878907V0H.5517578L.29541017 .33129884 .20703125 .26045228V.0390625L.30078126 .025878907V0H.028808594V.025878907L.11279297 .0390625V.6166992L.028808594 .62939456V.65527346H.29101563V.62939456L.20703125 .6166992V.30784608L.5205078 .6166992 .4555664 .62939456V.65527346H.66064456Z"/>
</defs>
<path transform="matrix(.75,0,0,.75,0,0)" d="M0 0H328V208H0Z" fill="#ffffff"/>
<g clip-path="url(#clip_0)">
<path transform="matrix(.75,0,0,.75,0,0)" stroke-width="1.6" stroke-linecap="butt" stroke-miterlimit="10" stroke-linejoin="miter" fill="none" stroke="#6f7d8d" d="M162 34.5H184.5V60H199.51"/>
<path transform="matrix(.75,0,0,.75,0,0)" d="M205.21 60 197.61 63.8 199.51 60 197.61 56.2 205.21 60Z" fill="#6f7d8d"/>
<path transform="matrix(.75,0,0,.75,0,0)" stroke-width="1.6" stroke-linecap="butt" stroke-miterlimit="10" stroke-linejoin="miter" fill="none" stroke="#6f7d8d" d="M205.21 60 197.61 63.8 199.51 60 197.61 56.2 205.21 60Z"/>
<path transform="matrix(.75,0,0,.75,0,0)" stroke-width="1.6" stroke-linecap="butt" stroke-miterlimit="10" stroke-linejoin="miter" fill="none" stroke="#6f7d8d" d="M162 92H199.51"/>
<path transform="matrix(.75,0,0,.75,0,0)" d="M205.21 92 197.61 95.8 199.51 92 197.61 88.2 205.21 92Z" fill="#6f7d8d"/>
<path transform="matrix(.75,0,0,.75,0,0)" stroke-width="1.6" stroke-linecap="butt" stroke-miterlimit="10" stroke-linejoin="miter" fill="none" stroke="#6f7d8d" d="M205.21 92 197.61 95.8 199.51 92 197.61 88.2 205.21 92Z"/>
<path transform="matrix(.75,0,0,.75,0,0)" stroke-width="1.6" stroke-linecap="butt" stroke-miterlimit="10" stroke-linejoin="miter" fill="none" stroke="#6f7d8d" d="M162 152H184.5V124H199.51"/>
<path transform="matrix(.75,0,0,.75,0,0)" d="M205.21 124 197.61 127.8 199.51 124 197.61 120.2 205.21 124Z" fill="#6f7d8d"/>
<path transform="matrix(.75,0,0,.75,0,0)" stroke-width="1.6" stroke-linecap="butt" stroke-miterlimit="10" stroke-linejoin="miter" fill="none" stroke="#6f7d8d" d="M205.21 124 197.61 127.8 199.51 124 197.61 120.2 205.21 124Z"/>
<use data-text="R" xlink:href="#font_1_53" transform="matrix(9,0,0,-9,150,119.25)"/>
<use data-text="u" xlink:href="#font_1_88" transform="matrix(9,0,0,-9,156,119.25)"/>
<use data-text="n" xlink:href="#font_1_81" transform="matrix(9,0,0,-9,160.5,119.25)"/>
<use data-text="t" xlink:href="#font_1_87" transform="matrix(9,0,0,-9,165,119.25)"/>
<use data-text="i" xlink:href="#font_1_76" transform="matrix(9,0,0,-9,167.25,119.25)"/>
<use data-text="m" xlink:href="#font_1_80" transform="matrix(9,0,0,-9,169.5,119.25)"/>
<use data-text="e" xlink:href="#font_1_72" transform="matrix(9,0,0,-9,176.25,119.25)"/>
<use data-text=" " xlink:href="#font_1_3" transform="matrix(9,0,0,-9,180,119.25)"/>
<use data-text="E" xlink:href="#font_1_40" transform="matrix(9,0,0,-9,182.25,119.25)"/>
<use data-text="n" xlink:href="#font_1_81" transform="matrix(9,0,0,-9,187.5,119.25)"/>
<use data-text="v" xlink:href="#font_1_89" transform="matrix(9,0,0,-9,192,119.25)"/>
<use data-text="i" xlink:href="#font_1_76" transform="matrix(9,0,0,-9,196.5,119.25)"/>
<use data-text="r" xlink:href="#font_1_85" transform="matrix(9,0,0,-9,198.75,119.25)"/>
<use data-text="o" xlink:href="#font_1_82" transform="matrix(9,0,0,-9,201.75,119.25)"/>
<use data-text="n" xlink:href="#font_1_81" transform="matrix(9,0,0,-9,206.25,119.25)"/>
<use data-text="m" xlink:href="#font_1_80" transform="matrix(9,0,0,-9,210.75,119.25)"/>
<use data-text="e" xlink:href="#font_1_72" transform="matrix(9,0,0,-9,217.5,119.25)"/>
<use data-text="n" xlink:href="#font_1_81" transform="matrix(9,0,0,-9,221.25,119.25)"/>
<use data-text="t" xlink:href="#font_1_87" transform="matrix(9,0,0,-9,225.75,119.25)"/>
<use data-text="O" xlink:href="#font_1_50" transform="matrix(9.75,0,0,-9.75,15.375,146.25)" fill="#b95d59"/>
<use data-text="n" xlink:href="#font_1_81" transform="matrix(9.75,0,0,-9.75,22.125,146.25)" fill="#b95d59"/>
<use data-text="l" xlink:href="#font_1_79" transform="matrix(9.75,0,0,-9.75,27.375,146.25)" fill="#b95d59"/>
<use data-text="y" xlink:href="#font_1_92" transform="matrix(9.75,0,0,-9.75,30.375,146.25)" fill="#b95d59"/>
<use data-text=" " xlink:href="#font_1_3" transform="matrix(9.75,0,0,-9.75,35.625,146.25)" fill="#b95d59"/>
<use data-text="U" xlink:href="#font_1_56" transform="matrix(9.75,0,0,-9.75,37.875,146.25)" fill="#b95d59"/>
<use data-text="p" xlink:href="#font_1_83" transform="matrix(9.75,0,0,-9.75,44.625,146.25)" fill="#b95d59"/>
<use data-text="d" xlink:href="#font_1_71" transform="matrix(9.75,0,0,-9.75,49.875,146.25)" fill="#b95d59"/>
<use data-text="a" xlink:href="#font_1_68" transform="matrix(9.75,0,0,-9.75,55.125,146.25)" fill="#b95d59"/>
<use data-text="t" xlink:href="#font_1_87" transform="matrix(9.75,0,0,-9.75,59.625,146.25)" fill="#b95d59"/>
<use data-text="e" xlink:href="#font_1_72" transform="matrix(9.75,0,0,-9.75,62.625,146.25)" fill="#b95d59"/>
<use data-text=" " xlink:href="#font_1_3" transform="matrix(9.75,0,0,-9.75,67.125,146.25)" fill="#b95d59"/>
<use data-text="T" xlink:href="#font_1_55" transform="matrix(9.75,0,0,-9.75,69.375,146.25)" fill="#b95d59"/>
<use data-text="o" xlink:href="#font_1_82" transform="matrix(9.75,0,0,-9.75,74.625,146.25)" fill="#b95d59"/>
<use data-text="o" xlink:href="#font_1_82" transform="matrix(9.75,0,0,-9.75,79.875,146.25)" fill="#b95d59"/>
<use data-text="l" xlink:href="#font_1_79" transform="matrix(9.75,0,0,-9.75,85.125,146.25)" fill="#b95d59"/>
<use data-text="k" xlink:href="#font_1_78" transform="matrix(9.75,0,0,-9.75,88.125,146.25)" fill="#b95d59"/>
<use data-text="i" xlink:href="#font_1_76" transform="matrix(9.75,0,0,-9.75,93.375,146.25)" fill="#b95d59"/>
<use data-text="t" xlink:href="#font_1_87" transform="matrix(9.75,0,0,-9.75,96.375,146.25)" fill="#b95d59"/>
<use data-text=" " xlink:href="#font_1_3" transform="matrix(9.75,0,0,-9.75,99.375,146.25)" fill="#b95d59"/>
<use data-text="T" xlink:href="#font_1_55" transform="matrix(9.75,0,0,-9.75,101.625,146.25)" fill="#b95d59"/>
<use data-text="1" xlink:href="#font_1_20" transform="matrix(9.75,0,0,-9.75,107.625,146.25)" fill="#b95d59"/>
<use data-text="&#x00a0;" xlink:href="#font_1_98" transform="matrix(9.75,0,0,-9.75,112.875,146.25)" fill="#b95d59"/>
<path transform="matrix(.75,0,0,.75,.375,.375)" d="M15.5 69.5H158.5C158.96413 69.5 159.41059 69.588809 159.83937 69.76642 160.26816 69.94403 160.64667 70.19693 160.97487 70.52512 161.30304 70.85331 161.55594 71.231807 161.73357 71.66061 161.91117 72.0894 161.99999 72.535869 162 73V111C161.99999 111.46412 161.91117 111.910579 161.73357 112.33937 161.55594 112.768169 161.30304 113.14667 160.97487 113.47486 160.64667 113.80305 160.26816 114.05595 159.83937 114.23356 159.41059 114.41118 158.96413 114.49999 158.5 114.5H15.5C15.03587 114.49999 14.589405 114.41118 14.160605 114.23356 13.731807 114.05595 13.353313 113.80305 13.0251259 113.47486 12.696937 113.14667 12.444035 112.768169 12.26642 112.33937 12.088805 111.910579 11.999999 111.46412 12 111V73C11.999999 72.535869 12.088805 72.0894 12.26642 71.66061 12.444035 71.231807 12.696937 70.85331 13.0251259 70.52512 13.353313 70.19693 13.731807 69.94403 14.160605 69.76642 14.589405 69.588809 15.03587 69.5 15.5 69.5Z" fill="#f5f6f7"/>
<path transform="matrix(.75,0,0,.75,.375,.375)" stroke-width="1.35" stroke-linecap="butt" stroke-miterlimit="4" stroke-linejoin="miter" fill="none" stroke="#85919d" d="M15.5 69.5H158.5C158.96413 69.5 159.41059 69.588809 159.83937 69.76642 160.26816 69.94403 160.64667 70.19693 160.97487 70.52512 161.30304 70.85331 161.55594 71.231807 161.73357 71.66061 161.91117 72.0894 161.99999 72.535869 162 73V111C161.99999 111.46412 161.91117 111.910579 161.73357 112.33937 161.55594 112.768169 161.30304 113.14667 160.97487 113.47486 160.64667 113.80305 160.26816 114.05595 159.83937 114.23356 159.41059 114.41118 158.96413 114.49999 158.5 114.5H15.5C15.03587 114.49999 14.589405 114.41118 14.160605 114.23356 13.731807 114.05595 13.353313 113.80305 13.0251259 113.47486 12.696937 113.14667 12.444035 112.768169 12.26642 112.33937 12.088805 111.910579 11.999999 111.46412 12 111V73C11.999999 72.535869 12.088805 72.0894 12.26642 71.66061 12.444035 71.231807 12.696937 70.85331 13.0251259 70.52512 13.353313 70.19693 13.731807 69.94403 14.160605 69.76642 14.589405 69.588809 15.03587 69.5 15.5 69.5Z"/>
<use data-text="W" xlink:href="#font_1_58" transform="matrix(9,0,0,-9,43.875,62.25)"/>
<use data-text="o" xlink:href="#font_1_82" transform="matrix(9,0,0,-9,51.375,62.25)"/>
<use data-text="r" xlink:href="#font_1_85" transform="matrix(9,0,0,-9,55.875,62.25)"/>
<use data-text="k" xlink:href="#font_1_78" transform="matrix(9,0,0,-9,58.875,62.25)"/>
<use data-text="s" xlink:href="#font_1_86" transform="matrix(9,0,0,-9,63.375,62.25)"/>
<use data-text="p" xlink:href="#font_1_83" transform="matrix(9,0,0,-9,67.125,62.25)"/>
<use data-text="a" xlink:href="#font_1_68" transform="matrix(9,0,0,-9,71.625,62.25)"/>
<use data-text="c" xlink:href="#font_1_70" transform="matrix(9,0,0,-9,75.375,62.25)"/>
<use data-text="e" xlink:href="#font_1_72" transform="matrix(9,0,0,-9,79.125,62.25)"/>
<use data-text="s" xlink:href="#font_1_86" transform="matrix(9,0,0,-9,82.875,62.25)"/>
<path transform="matrix(.75,0,0,.75,.375,.375)" d="M23.5 89.92H46.5C46.964128 89.92 47.410589 90.008808 47.839387 90.18642 48.268186 90.36402 48.64668 90.61692 48.974874 90.945117 49.30306 91.2733 49.555959 91.651798 49.733575 92.08059 49.911188 92.5094 49.999998 92.955867 50 93.42V106.42C49.999998 106.88412 49.911188 107.33058 49.73357 107.759387 49.555959 108.18818 49.30306 108.56667 48.974874 108.89487 48.64668 109.223049 48.268186 109.475948 47.839387 109.653568 47.410589 109.831188 46.964128 109.91999 46.5 109.92H23.5C23.03587 109.91999 22.589406 109.831188 22.160605 109.653568 21.731808 109.475948 21.353314 109.223049 21.025126 108.89487 20.696936 108.56667 20.444033 108.18817 20.266419 107.75938 20.088805 107.33058 19.999999 106.88412 20 106.42V93.42C19.999999 92.955867 20.088805 92.5094 20.266419 92.08059 20.444033 91.651798 20.696936 91.2733 21.025126 90.945117 21.353314 90.61692 21.731808 90.36402 22.160605 90.18642 22.589406 90.008808 23.03587 89.92 23.5 89.92Z" fill="#e7eee6"/>
<path transform="matrix(.75,0,0,.75,.375,.375)" stroke-width="1.35" stroke-linecap="butt" stroke-miterlimit="4" stroke-linejoin="miter" fill="none" stroke="#859c7c" d="M23.5 89.92H46.5C46.964128 89.92 47.410589 90.008808 47.839387 90.18642 48.268186 90.36402 48.64668 90.61692 48.974874 90.945117 49.30306 91.2733 49.555959 91.651798 49.733575 92.08059 49.911188 92.5094 49.999998 92.955867 50 93.42V106.42C49.999998 106.88412 49.911188 107.33058 49.73357 107.759387 49.555959 108.18818 49.30306 108.56667 48.974874 108.89487 48.64668 109.223049 48.268186 109.475948 47.839387 109.653568 47.410589 109.831188 46.964128 109.91999 46.5 109.92H23.5C23.03587 109.91999 22.589406 109.831188 22.160605 109.653568 21.731808 109.475948 21.353314 109.223049 21.025126 108.89487 20.696936 108.56667 20.444033 108.18817 20.266419 107.75938 20.088805 107.33058 19.999999 106.88412 20 106.42V93.42C19.999999 92.955867 20.088805 92.5094 20.266419 92.08059 20.444033 91.651798 20.696936 91.2733 21.025126 90.945117 21.353314 90.61692 21.731808 90.36402 22.160605 90.18642 22.589406 90.008808 23.03587 89.92 23.5 89.92Z"/>
<use data-text="W" xlink:href="#font_1_58" transform="matrix(9,0,0,-9,19.875,78)"/>
<use data-text="1" xlink:href="#font_1_20" transform="matrix(9,0,0,-9,28.125,78)"/>
<path transform="matrix(.75,0,0,.75,.375,.375)" d="M63.5 89.92H86.5C86.96413 89.92 87.41059 90.008808 87.839389 90.18642 88.26819 90.36402 88.64668 90.61692 88.97488 90.945117 89.30306 91.2733 89.55596 91.651798 89.733577 92.08059 89.911197 92.5094 90 92.955867 90 93.42V106.42C90 106.88412 89.911197 107.33058 89.73358 107.759387 89.55596 108.18818 89.30306 108.56667 88.97488 108.89487 88.64668 109.223049 88.26819 109.475948 87.839389 109.653568 87.41059 109.831188 86.96413 109.91999 86.5 109.92H63.5C63.035867 109.91999 62.589399 109.831188 62.160596 109.653568 61.7318 109.475948 61.35331 109.223049 61.025125 108.89487 60.696935 108.56667 60.444028 108.18817 60.26641 107.75938 60.0888 107.33058 59.999998 106.88412 60 106.42V93.42C59.999998 92.955867 60.0888 92.5094 60.26641 92.08059 60.444028 91.651798 60.696935 91.2733 61.025125 90.945117 61.35331 90.61692 61.7318 90.36402 62.1606 90.18642 62.589399 90.008808 63.035867 89.92 63.5 89.92Z" fill="#e7eee6"/>
<path transform="matrix(.75,0,0,.75,.375,.375)" stroke-width="1.35" stroke-linecap="butt" stroke-miterlimit="4" stroke-linejoin="miter" fill="none" stroke="#859c7c" d="M63.5 89.92H86.5C86.96413 89.92 87.41059 90.008808 87.839389 90.18642 88.26819 90.36402 88.64668 90.61692 88.97488 90.945117 89.30306 91.2733 89.55596 91.651798 89.733577 92.08059 89.911197 92.5094 90 92.955867 90 93.42V106.42C90 106.88412 89.911197 107.33058 89.73358 107.759387 89.55596 108.18818 89.30306 108.56667 88.97488 108.89487 88.64668 109.223049 88.26819 109.475948 87.839389 109.653568 87.41059 109.831188 86.96413 109.91999 86.5 109.92H63.5C63.035867 109.91999 62.589399 109.831188 62.160596 109.653568 61.7318 109.475948 61.35331 109.223049 61.025125 108.89487 60.696935 108.56667 60.444028 108.18817 60.26641 107.75938 60.0888 107.33058 59.999998 106.88412 60 106.42V93.42C59.999998 92.955867 60.0888 92.5094 60.26641 92.08059 60.444028 91.651798 60.696935 91.2733 61.025125 90.945117 61.35331 90.61692 61.7318 90.36402 62.1606 90.18642 62.589399 90.008808 63.035867 89.92 63.5 89.92Z"/>
<use data-text="W" xlink:href="#font_1_58" transform="matrix(9,0,0,-9,49.875,78)"/>
<use data-text="2" xlink:href="#font_1_21" transform="matrix(9,0,0,-9,58.125,78)"/>
<path transform="matrix(.75,0,0,.75,.375,.375)" d="M125.5 89.92H148.5C148.96413 89.92 149.41059 90.008808 149.83937 90.18642 150.26816 90.36402 150.64665 90.61692 150.97486 90.945117 151.30304 91.2733 151.55594 91.651798 151.73357 92.08059 151.91118 92.5094 151.99999 92.955867 152 93.42V106.42C151.99999 106.88412 151.91118 107.33058 151.73357 107.759387 151.55594 108.18818 151.30304 108.56667 150.97486 108.89487 150.64665 109.223049 150.26816 109.475948 149.83937 109.653568 149.41059 109.831188 148.96413 109.91999 148.5 109.92H125.5C125.035869 109.91999 124.58939 109.831188 124.16059 109.653568 123.73179 109.475948 123.353298 109.223049 123.025119 108.89487 122.69692 108.56667 122.44402 108.18817 122.26641 107.75938 122.0888 107.33058 121.99999 106.88412 122 106.42V93.42C121.99999 92.955867 122.0888 92.5094 122.26641 92.08059 122.44402 91.651798 122.69692 91.2733 123.025119 90.945117 123.353298 90.61692 123.73179 90.36402 124.1606 90.18642 124.58939 90.008808 125.035869 89.92 125.5 89.92Z" fill="#e7eee6"/>
<path transform="matrix(.75,0,0,.75,.375,.375)" stroke-width="1.35" stroke-linecap="butt" stroke-miterlimit="4" stroke-linejoin="miter" fill="none" stroke="#859c7c" d="M125.5 89.92H148.5C148.96413 89.92 149.41059 90.008808 149.83937 90.18642 150.26816 90.36402 150.64665 90.61692 150.97486 90.945117 151.30304 91.2733 151.55594 91.651798 151.73357 92.08059 151.91118 92.5094 151.99999 92.955867 152 93.42V106.42C151.99999 106.88412 151.91118 107.33058 151.73357 107.759387 151.55594 108.18818 151.30304 108.56667 150.97486 108.89487 150.64665 109.223049 150.26816 109.475948 149.83937 109.653568 149.41059 109.831188 148.96413 109.91999 148.5 109.92H125.5C125.035869 109.91999 124.58939 109.831188 124.16059 109.653568 123.73179 109.475948 123.353298 109.223049 123.025119 108.89487 122.69692 108.56667 122.44402 108.18817 122.26641 107.75938 122.0888 107.33058 121.99999 106.88412 122 106.42V93.42C121.99999 92.955867 122.0888 92.5094 122.26641 92.08059 122.44402 91.651798 122.69692 91.2733 123.025119 90.945117 123.353298 90.61692 123.73179 90.36402 124.1606 90.18642 124.58939 90.008808 125.035869 89.92 125.5 89.92Z"/>
<use data-text="W" xlink:href="#font_1_58" transform="matrix(9,0,0,-9,95.25,78)"/>
<use data-text="N" xlink:href="#font_1_49" transform="matrix(9,0,0,-9,103.5,78)"/>
<use data-text="&#x22ef;" xlink:href="#font_2_3450" transform="matrix(9,0,0,-9,75.375,78)"/>
<path transform="matrix(.75,0,0,.75,.375,.375)" d="M15.5 12H158.5C158.96413 12 159.41059 12.088807 159.83937 12.26642 160.26816 12.444035 160.64667 12.696937 160.97487 13.0251259 161.30304 13.353313 161.55594 13.731807 161.73357 14.160605 161.91117 14.589405 161.99999 15.03587 162 15.5V53.5C161.99999 53.964124 161.91117 54.410589 161.73357 54.839387 161.55594 55.268186 161.30304 55.64668 160.97487 55.97487 160.64667 56.303056 160.26816 56.555955 159.83937 56.73357 159.41059 56.911188 158.96413 56.999998 158.5 57H15.5C15.03587 56.999998 14.589405 56.911188 14.160605 56.73357 13.731807 56.555955 13.353313 56.303056 13.0251259 55.97487 12.696937 55.64668 12.444035 55.268186 12.26642 54.839387 12.088805 54.410589 11.999999 53.964124 12 53.5V15.5C11.999999 15.03587 12.088805 14.589405 12.26642 14.160605 12.444035 13.731807 12.696937 13.353313 13.0251259 13.0251259 13.353313 12.696937 13.731807 12.444035 14.160605 12.26642 14.589405 12.088807 15.03587 12 15.5 12Z" fill="#f5f6f7"/>
<path transform="matrix(.75,0,0,.75,.375,.375)" stroke-width="1.35" stroke-linecap="butt" stroke-miterlimit="4" stroke-linejoin="miter" fill="none" stroke="#85919d" d="M15.5 12H158.5C158.96413 12 159.41059 12.088807 159.83937 12.26642 160.26816 12.444035 160.64667 12.696937 160.97487 13.0251259 161.30304 13.353313 161.55594 13.731807 161.73357 14.160605 161.91117 14.589405 161.99999 15.03587 162 15.5V53.5C161.99999 53.964124 161.91117 54.410589 161.73357 54.839387 161.55594 55.268186 161.30304 55.64668 160.97487 55.97487 160.64667 56.303056 160.26816 56.555955 159.83937 56.73357 159.41059 56.911188 158.96413 56.999998 158.5 57H15.5C15.03587 56.999998 14.589405 56.911188 14.160605 56.73357 13.731807 56.555955 13.353313 56.303056 13.0251259 55.97487 12.696937 55.64668 12.444035 55.268186 12.26642 54.839387 12.088805 54.410589 11.999999 53.964124 12 53.5V15.5C11.999999 15.03587 12.088805 14.589405 12.26642 14.160605 12.444035 13.731807 12.696937 13.353313 13.0251259 13.0251259 13.353313 12.696937 13.731807 12.444035 14.160605 12.26642 14.589405 12.088807 15.03587 12 15.5 12Z"/>
<use data-text="B" xlink:href="#font_1_37" transform="matrix(9,0,0,-9,42.75,19.5)"/>
<use data-text="a" xlink:href="#font_1_68" transform="matrix(9,0,0,-9,48.75,19.5)"/>
<use data-text="s" xlink:href="#font_1_86" transform="matrix(9,0,0,-9,52.5,19.5)"/>
<use data-text="e" xlink:href="#font_1_72" transform="matrix(9,0,0,-9,56.25,19.5)"/>
<use data-text=" " xlink:href="#font_1_3" transform="matrix(9,0,0,-9,60,19.5)"/>
<use data-text="I" xlink:href="#font_1_44" transform="matrix(9,0,0,-9,62.25,19.5)"/>
<use data-text="m" xlink:href="#font_1_80" transform="matrix(9,0,0,-9,65.25,19.5)"/>
<use data-text="a" xlink:href="#font_1_68" transform="matrix(9,0,0,-9,72,19.5)"/>
<use data-text="g" xlink:href="#font_1_74" transform="matrix(9,0,0,-9,75.75,19.5)"/>
<use data-text="e" xlink:href="#font_1_72" transform="matrix(9,0,0,-9,80.25,19.5)"/>
<use data-text="s" xlink:href="#font_1_86" transform="matrix(9,0,0,-9,84,19.5)"/>
<path transform="matrix(.75,0,0,.75,.375,.375)" d="M23.5 32.42H46.5C46.964128 32.42 47.410589 32.508806 47.839387 32.686418 48.268186 32.86403 48.64668 33.116933 48.974874 33.44512 49.30306 33.77331 49.555959 34.151803 49.733575 34.5806 49.911188 35.0094 49.999998 35.455869 50 35.92V48.92C49.999998 49.384126 49.911188 49.830587 49.73357 50.259386 49.555959 50.688184 49.30306 51.066679 48.974874 51.394868 48.64668 51.723058 48.268186 51.975957 47.839387 52.153573 47.410589 52.33119 46.964128 52.419996 46.5 52.42H23.5C23.03587 52.419996 22.589406 52.331186 22.160605 52.15357 21.731808 51.975957 21.353314 51.723058 21.025126 51.394868 20.696936 51.066679 20.444033 50.688184 20.266419 50.259386 20.088805 49.830587 19.999999 49.384126 20 48.92V35.92C19.999999 35.455869 20.088805 35.0094 20.266419 34.5806 20.444033 34.151803 20.696936 33.77331 21.025126 33.44512 21.353314 33.116933 21.731808 32.86403 22.160605 32.686418 22.589406 32.508806 23.03587 32.42 23.5 32.42Z" fill="#e5edf7"/>
<path transform="matrix(.75,0,0,.75,.375,.375)" stroke-width="1.35" stroke-linecap="butt" stroke-miterlimit="4" stroke-linejoin="miter" fill="none" stroke="#6589b7" d="M23.5 32.42H46.5C46.964128 32.42 47.410589 32.508806 47.839387 32.686418 48.268186 32.86403 48.64668 33.116933 48.974874 33.44512 49.30306 33.77331 49.555959 34.151803 49.733575 34.5806 49.911188 35.0094 49.999998 35.455869 50 35.92V48.92C49.999998 49.384126 49.911188 49.830587 49.73357 50.259386 49.555959 50.688184 49.30306 51.066679 48.974874 51.394868 48.64668 51.723058 48.268186 51.975957 47.839387 52.153573 47.410589 52.33119 46.964128 52.419996 46.5 52.42H23.5C23.03587 52.419996 22.589406 52.331186 22.160605 52.15357 21.731808 51.975957 21.353314 51.723058 21.025126 51.394868 20.696936 51.066679 20.444033 50.688184 20.266419 50.259386 20.088805 49.830587 19.999999 49.384126 20 48.92V35.92C19.999999 35.455869 20.088805 35.0094 20.266419 34.5806 20.444033 34.151803 20.696936 33.77331 21.025126 33.44512 21.353314 33.116933 21.731808 32.86403 22.160605 32.686418 22.589406 32.508806 23.03587 32.42 23.5 32.42Z"/>
<use data-text="B" xlink:href="#font_1_37" transform="matrix(9,0,0,-9,21,34.5)"/>
<use data-text="1" xlink:href="#font_1_20" transform="matrix(9,0,0,-9,27,34.5)"/>
<path transform="matrix(.75,0,0,.75,.375,.375)" d="M63.5 32.42H86.5C86.96413 32.42 87.41059 32.508806 87.839389 32.686418 88.26819 32.86403 88.64668 33.116933 88.97488 33.44512 89.30306 33.77331 89.55596 34.151803 89.733577 34.5806 89.911197 35.0094 90 35.455869 90 35.92V48.92C90 49.384126 89.911197 49.830587 89.73358 50.259386 89.55596 50.688184 89.30306 51.066679 88.97488 51.394868 88.64668 51.723058 88.26819 51.975957 87.839389 52.153573 87.41059 52.33119 86.96413 52.419996 86.5 52.42H63.5C63.035867 52.419996 62.589399 52.331186 62.160596 52.15357 61.7318 51.975957 61.35331 51.723058 61.025125 51.394868 60.696935 51.066679 60.444028 50.688184 60.26641 50.259386 60.0888 49.830587 59.999998 49.384126 60 48.92V35.92C59.999998 35.455869 60.0888 35.0094 60.26641 34.5806 60.444028 34.151803 60.696935 33.77331 61.025125 33.44512 61.35331 33.116933 61.7318 32.86403 62.1606 32.686418 62.589399 32.508806 63.035867 32.42 63.5 32.42Z" fill="#e5edf7"/>
<path transform="matrix(.75,0,0,.75,.375,.375)" stroke-width="1.35" stroke-linecap="butt" stroke-miterlimit="4" stroke-linejoin="miter" fill="none" stroke="#6589b7" d="M63.5 32.42H86.5C86.96413 32.42 87.41059 32.508806 87.839389 32.686418 88.26819 32.86403 88.64668 33.116933 88.97488 33.44512 89.30306 33.77331 89.55596 34.151803 89.733577 34.5806 89.911197 35.0094 90 35.455869 90 35.92V48.92C90 49.384126 89.911197 49.830587 89.73358 50.259386 89.55596 50.688184 89.30306 51.066679 88.97488 51.394868 88.64668 51.723058 88.26819 51.975957 87.839389 52.153573 87.41059 52.33119 86.96413 52.419996 86.5 52.42H63.5C63.035867 52.419996 62.589399 52.331186 62.160596 52.15357 61.7318 51.975957 61.35331 51.723058 61.025125 51.394868 60.696935 51.066679 60.444028 50.688184 60.26641 50.259386 60.0888 49.830587 59.999998 49.384126 60 48.92V35.92C59.999998 35.455869 60.0888 35.0094 60.26641 34.5806 60.444028 34.151803 60.696935 33.77331 61.025125 33.44512 61.35331 33.116933 61.7318 32.86403 62.1606 32.686418 62.589399 32.508806 63.035867 32.42 63.5 32.42Z"/>
<use data-text="B" xlink:href="#font_1_37" transform="matrix(9,0,0,-9,51,34.5)"/>
<use data-text="2" xlink:href="#font_1_21" transform="matrix(9,0,0,-9,57,34.5)"/>
<path transform="matrix(.75,0,0,.75,.375,.375)" d="M125.5 32.42H148.5C148.96413 32.42 149.41059 32.508806 149.83937 32.686418 150.26816 32.86403 150.64665 33.116933 150.97486 33.44512 151.30304 33.77331 151.55594 34.151803 151.73357 34.5806 151.91118 35.0094 151.99999 35.455869 152 35.92V48.92C151.99999 49.384126 151.91118 49.830587 151.73357 50.259386 151.55594 50.688184 151.30304 51.066679 150.97486 51.394868 150.64665 51.723058 150.26816 51.975957 149.83937 52.153573 149.41059 52.33119 148.96413 52.419996 148.5 52.42H125.5C125.035869 52.419996 124.58939 52.331186 124.16059 52.15357 123.73179 51.975957 123.353298 51.723058 123.025119 51.394868 122.69692 51.066679 122.44402 50.688184 122.26641 50.259386 122.0888 49.830587 121.99999 49.384126 122 48.92V35.92C121.99999 35.455869 122.0888 35.0094 122.26641 34.5806 122.44402 34.151803 122.69692 33.77331 123.025119 33.44512 123.353298 33.116933 123.73179 32.86403 124.1606 32.686418 124.58939 32.508806 125.035869 32.42 125.5 32.42Z" fill="#e5edf7"/>
<path transform="matrix(.75,0,0,.75,.375,.375)" stroke-width="1.35" stroke-linecap="butt" stroke-miterlimit="4" stroke-linejoin="miter" fill="none" stroke="#6589b7" d="M125.5 32.42H148.5C148.96413 32.42 149.41059 32.508806 149.83937 32.686418 150.26816 32.86403 150.64665 33.116933 150.97486 33.44512 151.30304 33.77331 151.55594 34.151803 151.73357 34.5806 151.91118 35.0094 151.99999 35.455869 152 35.92V48.92C151.99999 49.384126 151.91118 49.830587 151.73357 50.259386 151.55594 50.688184 151.30304 51.066679 150.97486 51.394868 150.64665 51.723058 150.26816 51.975957 149.83937 52.153573 149.41059 52.33119 148.96413 52.419996 148.5 52.42H125.5C125.035869 52.419996 124.58939 52.331186 124.16059 52.15357 123.73179 51.975957 123.353298 51.723058 123.025119 51.394868 122.69692 51.066679 122.44402 50.688184 122.26641 50.259386 122.0888 49.830587 121.99999 49.384126 122 48.92V35.92C121.99999 35.455869 122.0888 35.0094 122.26641 34.5806 122.44402 34.151803 122.69692 33.77331 123.025119 33.44512 123.353298 33.116933 123.73179 32.86403 124.1606 32.686418 124.58939 32.508806 125.035869 32.42 125.5 32.42Z"/>
<use data-text="B" xlink:href="#font_1_37" transform="matrix(9,0,0,-9,95.625,34.5)"/>
<use data-text="M" xlink:href="#font_1_48" transform="matrix(9,0,0,-9,101.625,34.5)"/>
<use data-text="&#x22ef;" xlink:href="#font_2_3450" transform="matrix(9,0,0,-9,75.375,34.5)"/>
<path transform="matrix(.75,0,0,.75,.375,.375)" d="M15.5 127H158.5C158.96413 127 159.41059 127.088809 159.83937 127.26641 160.26816 127.44402 160.64667 127.69692 160.97487 128.02512 161.30304 128.35329 161.55594 128.73178 161.73357 129.1606 161.91117 129.58939 161.99999 130.03586 162 130.5V173.5C161.99999 173.96413 161.91117 174.41059 161.73357 174.83939 161.55594 175.26818 161.30304 175.64667 160.97487 175.97487 160.64667 176.30304 160.26816 176.55594 159.83937 176.73355 159.41059 176.91118 158.96413 176.99999 158.5 177H15.5C15.03587 176.99999 14.589405 176.91118 14.160605 176.73355 13.731807 176.55594 13.353313 176.30304 13.0251259 175.97487 12.696937 175.64667 12.444035 175.26818 12.26642 174.83939 12.088805 174.41059 11.999999 173.96413 12 173.5V130.5C11.999999 130.03586 12.088805 129.58939 12.26642 129.16059 12.444035 128.73178 12.696937 128.35329 13.0251259 128.02512 13.353313 127.69692 13.731807 127.44402 14.160605 127.26641 14.589405 127.088809 15.03587 127 15.5 127Z" fill="#f5f6f7"/>
<path transform="matrix(.75,0,0,.75,.375,.375)" stroke-width="1.35" stroke-linecap="butt" stroke-miterlimit="4" stroke-linejoin="miter" fill="none" stroke="#85919d" d="M15.5 127H158.5C158.96413 127 159.41059 127.088809 159.83937 127.26641 160.26816 127.44402 160.64667 127.69692 160.97487 128.02512 161.30304 128.35329 161.55594 128.73178 161.73357 129.1606 161.91117 129.58939 161.99999 130.03586 162 130.5V173.5C161.99999 173.96413 161.91117 174.41059 161.73357 174.83939 161.55594 175.26818 161.30304 175.64667 160.97487 175.97487 160.64667 176.30304 160.26816 176.55594 159.83937 176.73355 159.41059 176.91118 158.96413 176.99999 158.5 177H15.5C15.03587 176.99999 14.589405 176.91118 14.160605 176.73355 13.731807 176.55594 13.353313 176.30304 13.0251259 175.97487 12.696937 175.64667 12.444035 175.26818 12.26642 174.83939 12.088805 174.41059 11.999999 173.96413 12 173.5V130.5C11.999999 130.03586 12.088805 129.58939 12.26642 129.16059 12.444035 128.73178 12.696937 128.35329 13.0251259 128.02512 13.353313 127.69692 13.731807 127.44402 14.160605 127.26641 14.589405 127.088809 15.03587 127 15.5 127Z"/>
<use data-text="T" xlink:href="#font_1_55" transform="matrix(9,0,0,-9,51,106.5)"/>
<use data-text="o" xlink:href="#font_1_82" transform="matrix(9,0,0,-9,55.5,106.5)"/>
<use data-text="o" xlink:href="#font_1_82" transform="matrix(9,0,0,-9,60,106.5)"/>
<use data-text="l" xlink:href="#font_1_79" transform="matrix(9,0,0,-9,64.5,106.5)"/>
<use data-text="k" xlink:href="#font_1_78" transform="matrix(9,0,0,-9,66.75,106.5)"/>
<use data-text="i" xlink:href="#font_1_76" transform="matrix(9,0,0,-9,71.25,106.5)"/>
<use data-text="t" xlink:href="#font_1_87" transform="matrix(9,0,0,-9,73.5,106.5)"/>
<use data-text="s" xlink:href="#font_1_86" transform="matrix(9,0,0,-9,75.75,106.5)"/>
<path transform="matrix(.75,0,0,.75,.375,.375)" d="M63.5 149H86.5C86.96413 149 87.41059 149.0888 87.839389 149.2664 88.26819 149.44402 88.64668 149.69692 88.97488 150.02512 89.30306 150.35329 89.55596 150.73178 89.733577 151.16059 89.911197 151.5894 90 152.03588 90 152.5V165.5C90 165.96413 89.911197 166.41059 89.73358 166.83937 89.55596 167.26816 89.30306 167.64665 88.97488 167.97486 88.64668 168.30303 88.26819 168.55593 87.839389 168.73355 87.41059 168.91117 86.96413 168.99999 86.5 169H63.5C63.035867 168.99999 62.589399 168.91117 62.160596 168.73355 61.7318 168.55593 61.35331 168.30303 61.025125 167.97486 60.696935 167.64665 60.444028 167.26816 60.26641 166.83937 60.0888 166.41059 59.999998 165.96413 60 165.5V152.5C59.999998 152.03588 60.0888 151.5894 60.26641 151.16059 60.444028 150.73178 60.696935 150.35329 61.025125 150.02512 61.35331 149.69692 61.7318 149.44402 62.1606 149.2664 62.589399 149.0888 63.035867 149 63.5 149Z" fill="#f8edce"/>
<path transform="matrix(.75,0,0,.75,.375,.375)" stroke-width="1.35" stroke-linecap="butt" stroke-miterlimit="4" stroke-linejoin="miter" fill="none" stroke="#b49a54" d="M63.5 149H86.5C86.96413 149 87.41059 149.0888 87.839389 149.2664 88.26819 149.44402 88.64668 149.69692 88.97488 150.02512 89.30306 150.35329 89.55596 150.73178 89.733577 151.16059 89.911197 151.5894 90 152.03588 90 152.5V165.5C90 165.96413 89.911197 166.41059 89.73358 166.83937 89.55596 167.26816 89.30306 167.64665 88.97488 167.97486 88.64668 168.30303 88.26819 168.55593 87.839389 168.73355 87.41059 168.91117 86.96413 168.99999 86.5 169H63.5C63.035867 168.99999 62.589399 168.91117 62.160596 168.73355 61.7318 168.55593 61.35331 168.30303 61.025125 167.97486 60.696935 167.64665 60.444028 167.26816 60.26641 166.83937 60.0888 166.41059 59.999998 165.96413 60 165.5V152.5C59.999998 152.03588 60.0888 151.5894 60.26641 151.16059 60.444028 150.73178 60.696935 150.35329 61.025125 150.02512 61.35331 149.69692 61.7318 149.44402 62.1606 149.2664 62.589399 149.0888 63.035867 149 63.5 149Z"/>
<use data-text="T" xlink:href="#font_1_55" transform="matrix(9,0,0,-9,51.375,122.25)"/>
<use data-text="2" xlink:href="#font_1_21" transform="matrix(9,0,0,-9,56.625,122.25)"/>
<path transform="matrix(.75,0,0,.75,.375,.375)" d="M125.5 149H148.5C148.96413 149 149.41059 149.0888 149.83937 149.2664 150.26816 149.44402 150.64665 149.69692 150.97486 150.02512 151.30304 150.35329 151.55594 150.73178 151.73357 151.16059 151.91118 151.5894 151.99999 152.03588 152 152.5V165.5C151.99999 165.96413 151.91118 166.41059 151.73357 166.83937 151.55594 167.26816 151.30304 167.64665 150.97486 167.97486 150.64665 168.30303 150.26816 168.55593 149.83937 168.73355 149.41059 168.91117 148.96413 168.99999 148.5 169H125.5C125.035869 168.99999 124.58939 168.91117 124.16059 168.73355 123.73179 168.55593 123.353298 168.30303 123.025119 167.97486 122.69692 167.64665 122.44402 167.26816 122.26641 166.83937 122.0888 166.41059 121.99999 165.96413 122 165.5V152.5C121.99999 152.03588 122.0888 151.5894 122.26641 151.16059 122.44402 150.73178 122.69692 150.35329 123.025119 150.02512 123.353298 149.69692 123.73179 149.44402 124.1606 149.2664 124.58939 149.0888 125.035869 149 125.5 149Z" fill="#f8edce"/>
<path transform="matrix(.75,0,0,.75,.375,.375)" stroke-width="1.35" stroke-linecap="butt" stroke-miterlimit="4" stroke-linejoin="miter" fill="none" stroke="#b49a54" d="M125.5 149H148.5C148.96413 149 149.41059 149.0888 149.83937 149.2664 150.26816 149.44402 150.64665 149.69692 150.97486 150.02512 151.30304 150.35329 151.55594 150.73178 151.73357 151.16059 151.91118 151.5894 151.99999 152.03588 152 152.5V165.5C151.99999 165.96413 151.91118 166.41059 151.73357 166.83937 151.55594 167.26816 151.30304 167.64665 150.97486 167.97486 150.64665 168.30303 150.26816 168.55593 149.83937 168.73355 149.41059 168.91117 148.96413 168.99999 148.5 169H125.5C125.035869 168.99999 124.58939 168.91117 124.16059 168.73355 123.73179 168.55593 123.353298 168.30303 123.025119 167.97486 122.69692 167.64665 122.44402 167.26816 122.26641 166.83937 122.0888 166.41059 121.99999 165.96413 122 165.5V152.5C121.99999 152.03588 122.0888 151.5894 122.26641 151.16059 122.44402 150.73178 122.69692 150.35329 123.025119 150.02512 123.353298 149.69692 123.73179 149.44402 124.1606 149.2664 124.58939 149.0888 125.035869 149 125.5 149Z"/>
<use data-text="T" xlink:href="#font_1_55" transform="matrix(9,0,0,-9,96.75,122.25)"/>
<use data-text="K" xlink:href="#font_1_46" transform="matrix(9,0,0,-9,102,122.25)"/>
<use data-text="&#x22ef;" xlink:href="#font_2_3450" transform="matrix(9,0,0,-9,75.375,122.25)"/>
<path transform="matrix(.75,0,0,.75,0,0)" d="M23.4 145.2H26.6V146.8H23.4V145.2ZM29.8 145.2H33V146.8H29.8V145.2ZM36.2 145.2H39.399999V146.8H36.2V145.2ZM42.6 145.2H45.800004V146.8H42.6V145.2ZM49 145.2H52.2V146.8H49V145.2ZM53.8 148.4V151.6H52.2V148.4H53.8ZM53.8 154.8V158H52.2V154.8H53.8ZM53.8 161.2V164.4H52.2V161.2H53.8ZM53.8 167.6V170.8H52.2V167.6H53.8ZM51 172.8H47.799997V171.2H51V172.8ZM44.6 172.8H41.4V171.2H44.6V172.8ZM38.199998 172.8H35V171.2H38.199998V172.8ZM31.799996 172.8H28.599999V171.2H31.799996V172.8ZM25.400002 172.8H22.199997V171.2H25.400002V172.8ZM19 172.8H16.2V170.79999H17.8V172H17V171.2H19V172.8ZM16.2 167.6V164.4H17.8V167.6H16.2ZM16.2 161.2V158H17.8V161.2H16.2ZM16.2 154.79999V151.6H17.8V154.79999H16.2ZM16.2 148.4V145.2H20.2V146.8H17V146H17.8V148.4H16.2Z" fill="#b95d59"/>
<path transform="matrix(.75,0,0,.75,.375,.375)" d="M23.5 149H46.5C46.964128 149 47.410589 149.0888 47.839387 149.2664 48.268186 149.44402 48.64668 149.69692 48.974874 150.02512 49.30306 150.35329 49.555959 150.73178 49.733575 151.16059 49.911188 151.5894 49.999998 152.03588 50 152.5V165.5C49.999998 165.96413 49.911188 166.41059 49.73357 166.83937 49.555959 167.26816 49.30306 167.64665 48.974874 167.97486 48.64668 168.30303 48.268186 168.55593 47.839387 168.73355 47.410589 168.91117 46.964128 168.99999 46.5 169H23.5C23.03587 168.99999 22.589406 168.91117 22.160605 168.73355 21.731808 168.55593 21.353314 168.30303 21.025126 167.97486 20.696936 167.64665 20.444033 167.26816 20.266419 166.83937 20.088805 166.41059 19.999999 165.96413 20 165.5V152.5C19.999999 152.03588 20.088805 151.5894 20.266419 151.16059 20.444033 150.73178 20.696936 150.35329 21.025126 150.02512 21.353314 149.69692 21.731808 149.44402 22.160605 149.2664 22.589406 149.0888 23.03587 149 23.5 149Z" fill="#f8edce"/>
<path transform="matrix(.75,0,0,.75,.375,.375)" stroke-width="1.35" stroke-linecap="butt" stroke-miterlimit="4" stroke-linejoin="miter" fill="none" stroke="#b49a54" d="M23.5 149H46.5C46.964128 149 47.410589 149.0888 47.839387 149.2664 48.268186 149.44402 48.64668 149.69692 48.974874 150.02512 49.30306 150.35329 49.555959 150.73178 49.733575 151.16059 49.911188 151.5894 49.999998 152.03588 50 152.5V165.5C49.999998 165.96413 49.911188 166.41059 49.73357 166.83937 49.555959 167.26816 49.30306 167.64665 48.974874 167.97486 48.64668 168.30303 48.268186 168.55593 47.839387 168.73355 47.410589 168.91117 46.964128 168.99999 46.5 169H23.5C23.03587 168.99999 22.589406 168.91117 22.160605 168.73355 21.731808 168.55593 21.353314 168.30303 21.025126 167.97486 20.696936 167.64665 20.444033 167.26816 20.266419 166.83937 20.088805 166.41059 19.999999 165.96413 20 165.5V152.5C19.999999 152.03588 20.088805 151.5894 20.266419 151.16059 20.444033 150.73178 20.696936 150.35329 21.025126 150.02512 21.353314 149.69692 21.731808 149.44402 22.160605 149.2664 22.589406 149.0888 23.03587 149 23.5 149Z"/>
<use data-text="T" xlink:href="#font_1_55" transform="matrix(9,0,0,-9,21.375,122.25)"/>
<use data-text="1" xlink:href="#font_1_20" transform="matrix(9,0,0,-9,26.625,122.25)"/>
<path transform="matrix(.75,0,0,.75,.375,.375)" d="M210.5 44H293.5C293.9641 44 294.41056 44.088808 294.83937 44.26642 295.26817 44.444036 295.64668 44.696935 295.97486 45.025125 296.303 45.35331 296.5559 45.731805 296.73356 46.160604 296.91117 46.589406 296.99998 47.03587 297 47.5V72.5C296.99998 72.96412 296.91117 73.41058 296.73356 73.83938 296.5559 74.26817 296.303 74.646678 295.97486 74.97487 295.64668 75.30305 295.26817 75.55595 294.83937 75.73357 294.41056 75.91119 293.9641 75.99999 293.5 76H210.5C210.03586 75.99999 209.58939 75.91119 209.16057 75.73357 208.73178 75.55595 208.35329 75.30305 208.0251 74.97487 207.6969 74.646678 207.444 74.26817 207.2664 73.83938 207.08878 73.41058 206.99999 72.96412 207 72.5V47.5C206.99999 47.03587 207.08878 46.589406 207.26639 46.160604 207.444 45.731805 207.6969 45.35331 208.0251 45.025125 208.35329 44.696935 208.73178 44.444036 209.16057 44.26642 209.58939 44.088808 210.03586 44 210.5 44Z" fill="#e5edf7"/>
<path transform="matrix(.75,0,0,.75,.375,.375)" stroke-width="1.35" stroke-linecap="butt" stroke-miterlimit="4" stroke-linejoin="miter" fill="none" stroke="#6589b7" d="M210.5 44H293.5C293.9641 44 294.41056 44.088808 294.83937 44.26642 295.26817 44.444036 295.64668 44.696935 295.97486 45.025125 296.303 45.35331 296.5559 45.731805 296.73356 46.160604 296.91117 46.589406 296.99998 47.03587 297 47.5V72.5C296.99998 72.96412 296.91117 73.41058 296.73356 73.83938 296.5559 74.26817 296.303 74.646678 295.97486 74.97487 295.64668 75.30305 295.26817 75.55595 294.83937 75.73357 294.41056 75.91119 293.9641 75.99999 293.5 76H210.5C210.03586 75.99999 209.58939 75.91119 209.16057 75.73357 208.73178 75.55595 208.35329 75.30305 208.0251 74.97487 207.6969 74.646678 207.444 74.26817 207.2664 73.83938 207.08878 73.41058 206.99999 72.96412 207 72.5V47.5C206.99999 47.03587 207.08878 46.589406 207.26639 46.160604 207.444 45.731805 207.6969 45.35331 208.0251 45.025125 208.35329 44.696935 208.73178 44.444036 209.16057 44.26642 209.58939 44.088808 210.03586 44 210.5 44Z"/>
<use data-text="B" xlink:href="#font_1_37" transform="matrix(9,0,0,-9,174,48)"/>
<use data-text="a" xlink:href="#font_1_68" transform="matrix(9,0,0,-9,180,48)"/>
<use data-text="s" xlink:href="#font_1_86" transform="matrix(9,0,0,-9,183.75,48)"/>
<use data-text="e" xlink:href="#font_1_72" transform="matrix(9,0,0,-9,187.5,48)"/>
<use data-text=" " xlink:href="#font_1_3" transform="matrix(9,0,0,-9,191.25,48)"/>
<use data-text="B" xlink:href="#font_1_37" transform="matrix(9,0,0,-9,193.5,48)"/>
<use data-text="1" xlink:href="#font_1_20" transform="matrix(9,0,0,-9,199.5,48)"/>
<path transform="matrix(.75,0,0,.75,.375,.375)" d="M210.5 76H293.5C293.9641 76 294.41056 76.088809 294.83937 76.26641 295.26817 76.44402 295.64668 76.69693 295.97486 77.02512 296.303 77.35331 296.5559 77.731807 296.73356 78.16061 296.91117 78.5894 296.99998 79.035869 297 79.5V104.5C296.99998 104.96412 296.91117 105.410579 296.73356 105.83937 296.5559 106.268169 296.303 106.64667 295.97486 106.97486 295.64668 107.30305 295.26817 107.55595 294.83937 107.73356 294.41056 107.91118 293.9641 107.99999 293.5 108H210.5C210.03586 107.99999 209.58939 107.91118 209.16057 107.73356 208.73178 107.55595 208.35329 107.30305 208.0251 106.97486 207.6969 106.64667 207.444 106.268169 207.2664 105.83937 207.08878 105.410579 206.99999 104.96412 207 104.5V79.5C206.99999 79.035869 207.08878 78.5894 207.26639 78.16061 207.444 77.731807 207.6969 77.35331 208.0251 77.02512 208.35329 76.69693 208.73178 76.44402 209.16057 76.26641 209.58939 76.088809 210.03586 76 210.5 76Z" fill="#e7eee6"/>
<path transform="matrix(.75,0,0,.75,.375,.375)" stroke-width="1.35" stroke-linecap="butt" stroke-miterlimit="4" stroke-linejoin="miter" fill="none" stroke="#859c7c" d="M210.5 76H293.5C293.9641 76 294.41056 76.088809 294.83937 76.26641 295.26817 76.44402 295.64668 76.69693 295.97486 77.02512 296.303 77.35331 296.5559 77.731807 296.73356 78.16061 296.91117 78.5894 296.99998 79.035869 297 79.5V104.5C296.99998 104.96412 296.91117 105.410579 296.73356 105.83937 296.5559 106.268169 296.303 106.64667 295.97486 106.97486 295.64668 107.30305 295.26817 107.55595 294.83937 107.73356 294.41056 107.91118 293.9641 107.99999 293.5 108H210.5C210.03586 107.99999 209.58939 107.91118 209.16057 107.73356 208.73178 107.55595 208.35329 107.30305 208.0251 106.97486 207.6969 106.64667 207.444 106.268169 207.2664 105.83937 207.08878 105.410579 206.99999 104.96412 207 104.5V79.5C206.99999 79.035869 207.08878 78.5894 207.26639 78.16061 207.444 77.731807 207.6969 77.35331 208.0251 77.02512 208.35329 76.69693 208.73178 76.44402 209.16057 76.26641 209.58939 76.088809 210.03586 76 210.5 76Z"/>
<use data-text="W" xlink:href="#font_1_58" transform="matrix(9,0,0,-9,162,72)"/>
<use data-text="o" xlink:href="#font_1_82" transform="matrix(9,0,0,-9,169.5,72)"/>
<use data-text="r" xlink:href="#font_1_85" transform="matrix(9,0,0,-9,174,72)"/>
<use data-text="k" xlink:href="#font_1_78" transform="matrix(9,0,0,-9,177,72)"/>
<use data-text="s" xlink:href="#font_1_86" transform="matrix(9,0,0,-9,181.5,72)"/>
<use data-text="p" xlink:href="#font_1_83" transform="matrix(9,0,0,-9,185.25,72)"/>
<use data-text="a" xlink:href="#font_1_68" transform="matrix(9,0,0,-9,189.75,72)"/>
<use data-text="c" xlink:href="#font_1_70" transform="matrix(9,0,0,-9,193.5,72)"/>
<use data-text="e" xlink:href="#font_1_72" transform="matrix(9,0,0,-9,197.25,72)"/>
<use data-text=" " xlink:href="#font_1_3" transform="matrix(9,0,0,-9,201,72)"/>
<use data-text="W" xlink:href="#font_1_58" transform="matrix(9,0,0,-9,203.25,72)"/>
<use data-text="1" xlink:href="#font_1_20" transform="matrix(9,0,0,-9,211.5,72)"/>
<path transform="matrix(.75,0,0,.75,.375,.375)" d="M210.5 108H293.5C293.9641 108 294.41056 108.088809 294.83937 108.26641 295.26817 108.44402 295.64668 108.69692 295.97486 109.025119 296.303 109.353298 296.5559 109.73179 296.73356 110.16059 296.91117 110.589389 296.99998 111.03586 297 111.5V136.5C296.99998 136.96413 296.91117 137.41059 296.73356 137.83937 296.5559 138.26818 296.303 138.64667 295.97486 138.97487 295.64668 139.30304 295.26817 139.55594 294.83937 139.73357 294.41056 139.91118 293.9641 139.99999 293.5 140H210.5C210.03586 139.99999 209.58939 139.91118 209.16057 139.73357 208.73178 139.55594 208.35329 139.30304 208.0251 138.97487 207.6969 138.64667 207.444 138.26818 207.2664 137.83937 207.08878 137.41059 206.99999 136.96413 207 136.5V111.5C206.99999 111.03586 207.08878 110.589389 207.26639 110.16058 207.444 109.73179 207.6969 109.353298 208.0251 109.025119 208.35329 108.69692 208.73178 108.44402 209.16057 108.26641 209.58939 108.088809 210.03586 108 210.5 108Z" fill="#f8edce"/>
<path transform="matrix(.75,0,0,.75,.375,.375)" stroke-width="1.35" stroke-linecap="butt" stroke-miterlimit="4" stroke-linejoin="miter" fill="none" stroke="#b49a54" d="M210.5 108H293.5C293.9641 108 294.41056 108.088809 294.83937 108.26641 295.26817 108.44402 295.64668 108.69692 295.97486 109.025119 296.303 109.353298 296.5559 109.73179 296.73356 110.16059 296.91117 110.589389 296.99998 111.03586 297 111.5V136.5C296.99998 136.96413 296.91117 137.41059 296.73356 137.83937 296.5559 138.26818 296.303 138.64667 295.97486 138.97487 295.64668 139.30304 295.26817 139.55594 294.83937 139.73357 294.41056 139.91118 293.9641 139.99999 293.5 140H210.5C210.03586 139.99999 209.58939 139.91118 209.16057 139.73357 208.73178 139.55594 208.35329 139.30304 208.0251 138.97487 207.6969 138.64667 207.444 138.26818 207.2664 137.83937 207.08878 137.41059 206.99999 136.96413 207 136.5V111.5C206.99999 111.03586 207.08878 110.589389 207.26639 110.16058 207.444 109.73179 207.6969 109.353298 208.0251 109.025119 208.35329 108.69692 208.73178 108.44402 209.16057 108.26641 209.58939 108.088809 210.03586 108 210.5 108Z"/>
<use data-text="T" xlink:href="#font_1_55" transform="matrix(9,0,0,-9,170.625,96)"/>
<use data-text="o" xlink:href="#font_1_82" transform="matrix(9,0,0,-9,175.125,96)"/>
<use data-text="o" xlink:href="#font_1_82" transform="matrix(9,0,0,-9,179.625,96)"/>
<use data-text="l" xlink:href="#font_1_79" transform="matrix(9,0,0,-9,184.125,96)"/>
<use data-text="k" xlink:href="#font_1_78" transform="matrix(9,0,0,-9,186.375,96)"/>
<use data-text="i" xlink:href="#font_1_76" transform="matrix(9,0,0,-9,190.875,96)"/>
<use data-text="t" xlink:href="#font_1_87" transform="matrix(9,0,0,-9,193.125,96)"/>
<use data-text=" " xlink:href="#font_1_3" transform="matrix(9,0,0,-9,195.375,96)"/>
<use data-text="T" xlink:href="#font_1_55" transform="matrix(9,0,0,-9,197.625,96)"/>
<use data-text="1" xlink:href="#font_1_20" transform="matrix(9,0,0,-9,202.875,96)"/>
</g>
</svg>
