<svg xmlns="http://www.w3.org/2000/svg" xmlns:xlink="http://www.w3.org/1999/xlink" version="1.1" width="184.49924pt" height="212.70946pt" viewBox="0 0 184.49924 212.70946">
<defs>
<clipPath id="clip_0">
<path transform="matrix(1,0,0,-1,0,212.70946)" d="M33.299234 27.933465H145.30338V151.48548H33.299234Z"/>
</clipPath>
<clipPath id="clip_1">
<path transform="matrix(1,0,0,-1,0,212.70946)" d="M33.299234 27.933465H145.30338V151.48548H33.299234Z"/>
</clipPath>
<path id="font_2_205" d="M.15299988 .33003236C.21199036 .33003236 .23498535 .32803346 .25898744 .31904603 .32099916 .29707337 .3600006 .2401123 .3600006 .17118836 .3600006 .087265018 .30299378 .022323609 .22898865 .022323609 .20199585 .022323609 .18199158 .029312134 .14498902 .05329895 .114990238 .0712738 .09799194 .07826233 .08099365 .07826233 .057998659 .07826233 .042999269 .06428528 .042999269 .043304445 .042999269 .00831604 .085998538-.013671875 .1559906-.013671875 .23298645-.013671875 .31199647 .012313843 .35899354 .05329895 .4059906 .09425354 .43199159 .15220642 .43199159 .21913147 .43199159 .27009584 .41600038 .31704713 .3869934 .34802247 .36698915 .36999513 .34799195 .38198854 .3039856 .40097047 .37298585 .44792176 .397995 .4848938 .397995 .5388489 .397995 .61976626 .33399964 .67578127 .24198914 .67578127 .19198609 .67578127 .147995 .6587677 .11199951 .62677 .08198547 .5997925 .066986087 .57380679 .04499817 .51387026L.05999756 .50987246C.100997928 .58280947 .1459961 .61576846 .20899964 .61576846 .27398683 .61576846 .31900025 .57180789 .31900025 .50886538 .31900025 .4729004 .3039856 .43693543 .2789917 .4119568 .24899292 .38198854 .22099304 .3670044 .15299988 .34301759V.33003236Z"/>
<clipPath id="clip_3">
<path transform="matrix(1,0,0,-1,0,212.70946)" d="M33.299234 27.933465H145.30338V151.48548H33.299234Z"/>
</clipPath>
<path id="font_2_206" d="M.47200013 .23098755H.36999513V.67578127H.32598878L.011993408 .23098755V.16699219H.29299928V0H.36999513V.16699219H.47200013V.23098755M.2919922 .23098755H.051986696L.2919922 .573822V.23098755Z"/>
<clipPath id="clip_4">
<path transform="matrix(1,0,0,-1,0,212.70946)" d="M33.299234 27.933465H145.30338V151.48548H33.299234Z"/>
</clipPath>
<path id="font_2_207" d="M.18099976 .58309939H.3769989C.3929901 .58309939 .39698792 .58509829 .3999939 .59210208L.43798829 .68110659 .42900086 .6880951C.4139862 .667099 .4039917 .6621094 .3829956 .6621094H.17399597L.06498718 .4251709C.06399536 .423172 .06399536 .42216493 .06399536 .42016603 .06399536 .4151764 .067993167 .4121704 .07598877 .4121704 .10798645 .4121704 .147995 .40516664 .18899536 .3921814 .3039856 .3551941 .35699464 .2932129 .35699464 .19425965 .35699464 .09829712 .29599 .02331543 .21798706 .02331543 .19799805 .02331543 .18099976 .030319214 .15098572 .05230713 .11898804 .075302127 .09599304 .08529663 .07499695 .08529663 .04598999 .08529663 .03199768 .07330322 .03199768 .048309328 .03199768 .010314941 .07899475-.013671875 .1539917-.013671875 .23799134-.013671875 .30999757 .013320923 .3600006 .06430054 .4059906 .10928345 .4269867 .16625977 .4269867 .24223328 .4269867 .31420899 .4079895 .36018373 .35798646 .4101715 .31399537 .45414735 .25698854 .47714234 .13899231 .49813844L.18099976 .58309939Z"/>
<clipPath id="clip_5">
<path transform="matrix(1,0,0,-1,0,212.70946)" d="M33.299234 27.933465H145.30338V151.48548H33.299234Z"/>
</clipPath>
<path id="font_2_208" d="M.44599916 .68470767C.33198548 .6746979 .27398683 .6557007 .20098877 .6047058 .09298706 .52770999 .033996583 .4136963 .033996583 .27960206 .033996583 .19250489 .06098938 .10441589 .10398865 .054367067 .14199829 .010314941 .19599915-.013671875 .2579956-.013671875 .38198854-.013671875 .46798707 .08139038 .46798707 .2195282 .46798707 .3476715 .394989 .42871095 .27999879 .42871095 .23599243 .42871095 .21499634 .42170716 .1519928 .3836975 .1789856 .5346985 .29100038 .6427002 .44799806 .6687012L.44599916 .68470767M.24198914 .3827057C.32798768 .3827057 .37799073 .31062318 .37799073 .1855011 .37799073 .07537842 .33898927 .014328003 .2689972 .014328003 .18099976 .014328003 .1269989 .1084137 .1269989 .26358033 .1269989 .31463624 .1349945 .34266664 .15499878 .35768128 .17599488 .373703 .20698548 .3827057 .24198914 .3827057Z"/>
<clipPath id="clip_6">
<path transform="matrix(1,0,0,-1,0,212.70946)" d="M33.299234 27.933465H145.30338V151.48548H33.299234Z"/>
</clipPath>
<path id="font_2_210" d="M.2899933 .37101747C.3889923 .42396546 .42399598 .46592713 .42399598 .5338745 .42399598 .61579897 .35198976 .67578127 .2519989 .67578127 .14299011 .67578127 .06199646 .6088104 .06199646 .5178833 .06199646 .4529419 .08099365 .42396546 .18598938 .3320465 .07798767 .25012208 .055999757 .21914673 .055999757 .15119934 .055999757 .05429077 .1349945-.013671875 .24798584-.013671875 .36799623-.013671875 .44499208 .05229187 .44499208 .15519715 .44499208 .23213196 .41099549 .2810974 .2899933 .37101747M.27198792 .26809693C.34498597 .21614075 .36898805 .18017578 .36898805 .1242218 .36898805 .059280397 .32398988 .014328003 .25898744 .014328003 .18299866 .014328003 .13198853 .072265628 .13198853 .15919495 .13198853 .22314453 .1539917 .2651062 .21199036 .3120575L.27198792 .26809693M.26098634 .3889923C.17199707 .4469452 .13598633 .49290467 .13598633 .54885867 .13598633 .6068115 .18099976 .6477661 .24398804 .6477661 .31199647 .6477661 .35499574 .60380557 .35499574 .53486636 .35499574 .47792054 .32699586 .43295289 .269989 .394989 .2649994 .3919983 .2649994 .3919983 .26098634 .3889923Z"/>
<clipPath id="clip_7">
<path transform="matrix(1,0,0,-1,0,212.70946)" d="M33.299234 27.933465H145.30338V151.48548H33.299234Z"/>
</clipPath>
<path id="font_2_211" d="M.05899048-.021728516C.17098999-.008728027 .22599793 .010269165 .2939911 .059265138 .397995 .13526917 .45899964 .25926209 .45899964 .39411927 .45899964 .5588989 .36698915 .67578127 .23799134 .67578127 .11898804 .67578127 .02999878 .5748749 .02999878 .44004823 .02999878 .31822206 .101989749 .23725891 .20999146 .23725891 .2649994 .23725891 .30699159 .25326539 .3600006 .2942505 .31900025 .13127136 .20799256 .024261475 .055999757-.001739502L.05899048-.021728516M.3619995 .35516358C.3619995 .33518983 .35798646 .3262024 .34700013 .31721498 .31900025 .2932434 .28199769 .28027345 .24598694 .28027345 .16999817 .28027345 .12199402 .35516358 .12199402 .47399903 .12199402 .53092959 .13798523 .59085085 .15899658 .6168213 .17599488 .63679507 .20098877 .6477661 .22999573 .6477661 .31698609 .6477661 .3619995 .56188967 .3619995 .39411927V.35516358Z"/>
<clipPath id="clip_8">
<path transform="matrix(1,0,0,-1,0,212.70946)" d="M33.299234 27.933465H145.30338V151.48548H33.299234Z"/>
</clipPath>
<path id="font_2_203" d="M.29100038 .67578127 .11099243 .58496096V.57095339C.12298584 .57595828 .13398743 .57995608 .13798523 .58195498 .1559906 .5889435 .17298889 .592926 .18299866 .592926 .20399475 .592926 .21299744 .57795718 .21299744 .5459595V.09298706C.21299744 .0599823 .20498657 .036987306 .18899536 .02798462 .17399597 .018997193 .1599884 .015991211 .117996219 .01499939V0H.3939972V.01499939C.31498719 .015991211 .29899598 .025985718 .29899598 .07398987V.6737671L.29100038 .67578127Z"/>
<path id="font_2_212" d="M.2539978 .67578127C.19898987 .67578127 .15699768 .6587677 .11999512 .62379458 .06199646 .5678406 .023986817 .4529419 .023986817 .3360443 .023986817 .22714234 .056991579 .11022949 .10398865 .05429077 .14099121 .010314941 .19198609-.013671875 .25-.013671875 .30099488-.013671875 .34399415 .003326416 .37998963 .03829956 .43798829 .09324646 .47599793 .20915222 .47599793 .3300476 .47599793 .53486636 .3849945 .67578127 .2539978 .67578127M.25099183 .6497803C.33499146 .6497803 .37998963 .53686526 .37998963 .3280487 .37998963 .11923218 .33599855 .012313843 .25 .012313843 .1639862 .012313843 .11999512 .11923218 .11999512 .32704164 .11999512 .53886416 .16499329 .6497803 .25099183 .6497803Z"/>
<clipPath id="clip_9">
<path transform="matrix(1,0,0,-1,0,212.70946)" d="M33.299234 27.933465H145.30338V151.48548H33.299234Z"/>
</clipPath>
<path id="font_2_133" d="M.70599368 .018997193C.6609955 .021987915 .651001 .031982423 .6159973 .10592651L.36698915 .6738281H.34700013L.13899231 .18286133C.07499695 .036972047 .06298828 .020996094 .01499939 .018997193V0H.21299744V.018997193C.16499329 .018997193 .14498902 .031982423 .14498902 .059951784 .14498902 .07194519 .147995 .0859375 .15299988 .09892273L.19898987 .21583557H.46099855L.5019989 .119903568C.5139923 .092926029 .5209961 .06695557 .5209961 .052963258 .5209961 .02798462 .5039978 .019989014 .45098878 .018997193V0H.70599368V.018997193M.21598816 .25683595 .33099366 .53182986 .44699098 .25683595H.21598816Z"/>
<path id="font_2_187" d="M.47698976 .4501953H.33799745V.43518067C.36999513 .43218995 .3849945 .42219544 .3849945 .40319825 .3849945 .39320375 .3829956 .38320924 .3789978 .37319947L.27999879 .11428833 .17799378 .37020875C.17199707 .38420106 .16899109 .39819337 .16899109 .40719605 .16899109 .42518617 .17999268 .43218995 .21499634 .43518067V.4501953H.018997193V.43518067C.056991579 .43318177 .06399536 .42318727 .10998535 .32022096L.22999573 .033309938C.23199463 .027313233 .23498535 .020309449 .23799134 .012313843 .24398804-.0056762697 .25-.013671875 .2559967-.013671875 .2619934-.013671875 .2689972-.0006866455 .28399659 .036315919L.4119873 .35720826C.44099427 .42518617 .44699098 .43218995 .47698976 .43518067V.4501953Z"/>
<path id="font_2_170" d="M.4079895 .16427613C.3600006 .08824158 .31698609 .05921936 .25299073 .05921936 .19599915 .05921936 .15299988 .08824158 .12399292 .14526367 .10598755 .18328858 .09899902 .2163086 .09700012 .27734376H.40499879C.39698792 .34222413 .3869934 .37112428 .3619995 .40301515 .33198548 .43894959 .28599549 .45996095 .23399353 .45996095 .18399048 .45996095 .13699341 .44195558 .09899902 .40800477 .051986696 .36714173 .024993897 .29634095 .024993897 .21430969 .024993897 .07623291 .09700012-.009765625 .21199036-.009765625 .30699159-.009765625 .38198854 .049224855 .42399598 .15727234L.4079895 .16427613M.09899902 .30934144C.10998535 .3870697 .14399719 .4239502 .20498657 .4239502 .2659912 .4239502 .2899933 .39604188 .30299378 .30934144H.09899902Z"/>
<path id="font_2_183" d="M.0069885256 .3899536C.020996094 .3929596 .02999878 .39396668 .041992189 .39396668 .066986087 .39396668 .07598877 .3779602 .07598877 .33396913V.083984378C.07598877 .033996583 .068984989 .026992798 .004989624 .01499939V0H.24499512V.01499939C.1769867 .017990113 .1599884 .032989503 .1599884 .08998108V.31497193C.1599884 .3469696 .20298767 .3969574 .22999573 .3969574 .23599243 .3969574 .24499512 .3919525 .2559967 .381958 .27198792 .3679657 .2829895 .361969 .29599 .361969 .31999208 .361969 .33499146 .3789673 .33499146 .4069519 .33499146 .43995667 .31399537 .45996095 .27999879 .45996095 .23799134 .45996095 .20899964 .43695069 .1599884 .3659668V.45794679L.15499878 .45996095C.101989749 .43795777 .06599426 .42495729 .0069885256 .40596009V.3899536Z"/>
<path id="font_2_166" d="M.44198609 .066207889C.4249878 .052230836 .41299439 .047225954 .397995 .047225954 .375 .047225954 .36799623 .06121826 .36799623 .10517883V.30004884C.36799623 .35202027 .36299134 .3809967 .34799195 .40498353 .32598878 .4409485 .2829895 .45996095 .22399903 .45996095 .12998963 .45996095 .055999757 .41098023 .055999757 .34802247 .055999757 .32502748 .07598877 .3050537 .09899902 .3050537 .12298584 .3050537 .14399719 .32502748 .14399719 .34701539 .14399719 .35101319 .14299011 .35601808 .14199829 .3630066 .13999939 .37199403 .13899231 .37998963 .13899231 .3869934 .13899231 .41397096 .17098999 .43595887 .21099854 .43595887 .2599945 .43595887 .2869873 .40698243 .2869873 .35301209V.29205323C.1329956 .23010254 .115997318 .22210694 .07299805 .18412781 .050994874 .1641388 .036987306 .13017273 .036987306 .09719849 .036987306 .034225465 .08099365-.009765625 .14199829-.009765625 .18598938-.009765625 .22698975 .011230469 .28799439 .06323242 .29299928 .011230469 .31098939-.009765625 .35198976-.009765625 .38598634-.009765625 .40699769 .0022277833 .44198609 .040222169V.066207889M.2869873 .12322998C.2869873 .09222412 .28199769 .083221439 .26098634 .07122803 .23699951 .05722046 .20899964 .048233034 .18798828 .048233034 .15299988 .048233034 .125 .082229617 .125 .12522888V.12922669C.125 .18823242 .1659851 .2242279 .2869873 .26823426V.12322998Z"/>
<path id="font_2_172" d="M.46998597 .38775636V.4267578H.3929901C.37298585 .4267578 .35798646 .4298706 .33799745 .43695069L.31599427 .4449463C.2889862 .45495606 .2619934 .45996095 .23599243 .45996095 .14299011 .45996095 .068984989 .38775636 .068984989 .29678346 .068984989 .23379517 .09599304 .19581604 .1619873 .16282654 .14299011 .14482117 .125 .1278534 .11898804 .12286377 .085998538 .09391785 .07299805 .07394409 .07299805 .053985597 .07299805 .03302002 .084991458 .02104187 .12599182 .0010375977 .054992677-.05101013 .027999878-.08406067 .027999878-.12109375 .027999878-.1741333 .10598755-.21813965 .20098877-.21813965 .27598573-.21813965 .35398866-.19213867 .4059906-.15013123 .44400025-.11909485 .46099855-.08705139 .46099855-.04901123 .46099855 .013046265 .4139862 .054977418 .33999635 .05796814L.21099854 .063964847C.1579895 .065963748 .1329956 .07495117 .1329956 .090911868 .1329956 .11088562 .1659851 .14582825 .19299317 .15382385 .20199585 .15281677 .20899964 .15182495 .21199036 .15182495 .23098755 .14982605 .24398804 .14881897 .25 .14881897 .2869873 .14881897 .32699586 .16381836 .35798646 .19081116 .3909912 .21881104 .4059906 .25379945 .4059906 .30377198 .4059906 .33276368 .40098573 .35575868 .3869934 .38775636H.46998597M.14698792-.001953125C.17999268-.008972168 .2599945-.014968872 .30899049-.014968872 .3999939-.014968872 .43299867-.02798462 .43299867-.06402588 .43299867-.12210083 .35699464-.16113281 .24398804-.16113281 .1559906-.16113281 .09799194-.1321106 .09799194-.08805847 .09799194-.06503296 .10499573-.052017213 .14698792-.001953125M.1519928 .33776856C.1519928 .39674378 .17999268 .4319458 .22599793 .4319458 .25698854 .4319458 .2829895 .41474916 .29899598 .38475038 .31698609 .34976197 .32899476 .30377198 .32899476 .26478578 .32899476 .20881653 .2999878 .17382813 .2539978 .17382813 .19400025 .17382813 .1519928 .23880005 .1519928 .33476258V.33776856Z"/>
<path id="font_2_155" d="M.9319916 .6621094H.73399356V.6430969C.7849884 .6381073 .8029938 .6271057 .8029938 .6001129 .8029938 .5791168 .7969971 .55311587 .7869873 .5251312L.6619873 .186203 .5299988 .5271301C.5279999 .53211978 .5189972 .5541229 .5179901 .55711367 .5089874 .57810977 .5029907 .59710696 .5029907 .6081085 .5029907 .63209536 .526001 .6421051 .5799866 .6430969V.6621094H.31298829V.6430969C.36999513 .6421051 .37998963 .6331024 .4139862 .55311587L.44699098 .47114564 .33999635 .18920899 .19599915 .5651245C.18899536 .5831146 .18499756 .6001129 .18499756 .6111145 .18499756 .6331024 .19898987 .6401062 .25 .6430969V.6621094H.004989624V.6430969C.055999757 .6381073 .070999149 .6201019 .10798645 .52612307L.30099488-.0107421879H.31599427L.46998597 .41215516 .6299896-.0107421879H.644989C.7299957 .25019837 .73999026 .27818299 .848999 .57211306 .8679962 .62409976 .8789978 .6331024 .9319916 .6430969V.6621094Z"/>
<path id="font_2_174" d="M.1749878 .45996095 .019989014 .40527345V.3902588L.027999878 .39126588C.039993287 .39326478 .052993776 .39427186 .06199646 .39427186 .085998538 .39427186 .09498596 .37826539 .09498596 .33422853V.10205078C.09498596 .02999878 .084991458 .018997193 .015991211 .01499939V0H.25299073V.01499939C.18699646 .019989014 .1789856 .02999878 .1789856 .10205078V.45695497L.1749878 .45996095M.12799073 .6826172C.100997928 .6826172 .07798767 .65960696 .07798767 .63160708 .07798767 .6036072 .099990848 .5806122 .12799073 .5806122 .15699768 .5806122 .17999268 .60261538 .17999268 .63160708 .17999268 .65960696 .15699768 .6826172 .12799073 .6826172Z"/>
<path id="font_2_176" d="M.0069885256 .6231842C.019989014 .6241913 .0289917 .6251831 .038986207 .6251831 .07199097 .6251831 .08198547 .6121826 .08198547 .5641937V.08201599C.08198547 .02999878 .07899475 .026992798 .0069885256 .01499939V0H.24099732V.01499939L.22099304 .015991211C.18099976 .017990113 .1659851 .03199768 .1659851 .0670166V.25109864L.30599977 .06401062 .30899049 .060012819C.31098939 .057006837 .31298829 .054016115 .31599427 .05101013 .32398988 .041000368 .32699586 .035003663 .32699586 .02999878 .32699586 .020996094 .31799317 .01499939 .30599977 .01499939H.2869873V0H.5049896V.01499939C.46099855 .017990113 .42999269 .037002565 .3880005 .088027957L.23498535 .28211976 .2639923 .3091278C.33499146 .3751526 .39698792 .42118836 .42599488 .42918397 .44099427 .43318177 .45498658 .43518067 .47200013 .43518067H.47999574V.4501953H.27598573V.43618775C.31498719 .43518067 .32598878 .43118287 .32598878 .4171753 .32598878 .4091797 .31698609 .39517213 .30299378 .38316346L.1659851 .2611084V.68118289L.1619873 .68318179C.12399292 .67118838 .09498596 .66319277 .036987306 .6471863L.0069885256 .6391907V.6231842Z"/>
<path id="font_2_152" d="M.2539978 .6201019V.120010379C.2539978 .034988405 .24299622 .023986817 .1599884 .018997193V0H.45199586V.018997193C.36999513 .022994996 .35598756 .035995485 .35598756 .10900879V.6201019H.4099884C.5239868 .6201019 .54599 .60209658 .56900027 .4920807H.59298709L.58699038 .6621094H.022994996L.016998291 .4920807H.040985109C.06498718 .60110476 .08799744 .6201019 .19999695 .6201019H.2539978Z"/>
<path id="font_2_189" d="M.27799989 0H.47898866V.01499939C.44799806 .01499939 .42799378 .0309906 .39698792 .07501221L.2689972 .2711029 .35198976 .39115907C.37098695 .41818238 .40098573 .43418885 .43299867 .43518067V.4501953H.2749939V.43518067C.30499269 .43318177 .31498719 .42718507 .31498719 .4131775 .31498719 .40116883 .30299378 .37916566 .27799989 .34814454 .272995 .34214784 .26098634 .3241272 .24798584 .30412293L.23399353 .3241272C.20599365 .3661499 .18798828 .40016175 .18798828 .4131775 .18798828 .42718507 .20098877 .43418885 .23098755 .43518067V.4501953H.023986817V.43518067H.032989503C.06298828 .43518067 .07899475 .42218019 .10998535 .3751526L.20399475 .23109436 .08999634 .06600952C.05999756 .024993897 .049987794 .017990113 .016998291 .01499939V0H.1619873V.01499939C.13398743 .01499939 .12199402 .019989014 .12199402 .03300476 .12199402 .039001466 .1289978 .054000856 .14199829 .074020389L.22099304 .19706726 .31199647 .057006837C.31599427 .05101013 .31799317 .04499817 .31799317 .039001466 .31799317 .020996094 .31098939 .016998291 .27799989 .01499939V0Z"/>
<path id="font_2_185" d="M.25498963 .4501953H.1539917V.5661926C.1539917 .57618716 .15299988 .5791931 .14698792 .5791931 .13999939 .5701904 .13398743 .56118777 .1269989 .55119326 .08898926 .4961853 .04598999 .44818116 .02999878 .44418336 .018997193 .43719483 .0129852299 .43019105 .0129852299 .42518617 .0129852299 .42218019 .01399231 .42018128 .016998291 .41818238H.069992069V.11721802C.069992069 .033233644 .099990848-.009765625 .15899658-.009765625 .20799256-.009765625 .24598694 .014221191 .2789917 .066223148L.2659912 .07722473C.24499512 .052230836 .22799683 .04222107 .20599365 .04222107 .16899109 .04222107 .1539917 .069229129 .1539917 .1322174V.41818238H.25498963V.4501953Z"/>
<path id="font_2_241" d="M.038986207 .25683595V.1938324H.2849884V.25683595H.038986207Z"/>
<path id="font_2_204" d="M.47499085 .13696289 .46199037 .14196778C.4249878 .084991458 .4119873 .07598877 .36698915 .07598877H.12799073L.29599 .2519226C.3849945 .34487916 .42399598 .42085267 .42399598 .4988098 .42399598 .59877017 .34298707 .67578127 .23899842 .67578127 .18399048 .67578127 .13198853 .6537781 .09498596 .61376956 .06298828 .5797882 .04798889 .5477905 .0309906 .4768219L.051986696 .47183229C.09199524 .5697937 .12799073 .6017761 .19699097 .6017761 .2809906 .6017761 .33799745 .5447998 .33799745 .4608307 .33799745 .38285829 .2919922 .28990174 .20799256 .200943L.02999878 .011993408V0H.41999818L.47499085 .13696289Z"/>
<path id="font_2_148" d="M.20199585 .29107667C.22799683 .28907777 .24499512 .28808595 .2709961 .28808595 .34899903 .28808595 .40299989 .29808045 .44599916 .32208253 .5059967 .3540802 .5419922 .41508485 .5419922 .48109437 .5419922 .52308657 .5279999 .5610962 .5009918 .59010317 .46099855 .63409426 .37399293 .6621094 .27999879 .6621094H.015991211V.6430969C.08999634 .6351013 .099990848 .6251068 .099990848 .5530853V.120010379C.099990848 .035995485 .09199524 .026000977 .015991211 .018997193V0H.29599V.018997193C.21699524 .021987915 .20199585 .035995485 .20199585 .10900879V.29107667M.20199585 .591095C.20199585 .618103 .20899964 .6251068 .23599243 .6251068 .37098695 .6251068 .43299867 .5780945 .43299867 .4750824 .43299867 .37808229 .37399293 .32807923 .25898744 .32807923 .23899842 .32807923 .22499085 .32907105 .20199585 .3310852V.591095Z"/>
<path id="font_2_181" d="M.008987427 .39320375C.017990113 .39419557 .024993897 .39419557 .033996583 .39419557 .067993167 .39419557 .07499695 .38420106 .07499695 .33720399V-.13079834C.07499695-.1828003 .06399536-.19380188 .004989624-.19979859V-.21679688H.24699402V-.19880677C.17199707-.19779969 .15899658-.1867981 .15899658-.123794559V.033218385C.19400025 .00022888184 .21798706-.009765625 .2599945-.009765625 .37799073-.009765625 .46998597 .10217285 .46998597 .24707031 .46998597 .37097169 .3999939 .45996095 .30299378 .45996095 .24699402 .45996095 .20298767 .43495179 .15899658 .3809662V.45794679L.15299988 .45996095C.09899902 .43894959 .06399536 .4259491 .008987427 .4089508V.39320375M.15899658 .33399964C.15899658 .36398316 .21499634 .39994813 .26098634 .39994813 .33499146 .39994813 .38398744 .32400514 .38398744 .2080841 .38398744 .09716797 .33499146 .022232056 .2630005 .022232056 .21598816 .022232056 .15899658 .05819702 .15899658 .08818054V.33399964Z"/>
<path id="font_2_177" d="M.018997193 .6230011H.024993897C.035995485 .6239929 .04798889 .625 .055999757 .625 .08799744 .625 .09799194 .61099246 .09799194 .56399539V.08699036C.09799194 .032989503 .083999637 .019989014 .020996094 .01499939V0H.25698854V.01499939C.19400025 .018997193 .18199158 .0289917 .18199158 .083999637V.68099978L.17799378 .68299868C.12599182 .66600039 .08799744 .6559906 .018997193 .6389923V.6230011Z"/>
<path id="font_2_190" d="M.47499085 .4501953H.33999635V.43518067C.37199403 .43518067 .3880005 .42619325 .3880005 .41018678 .3880005 .40618897 .3869934 .40019227 .38398744 .39318849L.2869873 .11720276 .17199707 .37019349C.1659851 .3841858 .1619873 .39718629 .1619873 .40818788 .1619873 .42619325 .1769867 .43318177 .21998596 .43518067V.4501953H.01399231V.43618775C.039993287 .43218995 .056991579 .42118836 .06498718 .40419007L.1789856 .15818787 .18199158 .15019226 .19699097 .12019348C.22499085 .07019043 .24099732 .034194948 .24099732 .019195557 .24099732 .004196167 .21798706-.058792116 .20098877-.08879089 .18699646-.11479187 .16499329-.13378906 .15098572-.13378906 .14498902-.13378906 .13598633-.13179016 .12599182-.12680054 .10699463-.11979675 .08999634-.11579895 .07299805-.11579895 .049987794-.11579895 .02999878-.13580323 .02999878-.15979004 .02999878-.1927948 .06199646-.21780396 .10398865-.21780396 .17098999-.21780396 .21899414-.1618042 .272995-.017807007L.4269867 .3901825C.43998719 .42219544 .45098878 .43218995 .47499085 .43518067V.4501953Z"/>
<clipPath id="clip_10">
<path transform="matrix(1,0,0,-1,0,212.70946)" d="M33.299234 27.933465H145.30338V151.48548H33.299234Z"/>
</clipPath>
<clipPath id="clip_11">
<path transform="matrix(1,0,0,-1,0,212.70946)" d="M33.299234 27.933465H145.30338V151.48548H33.299234Z"/>
</clipPath>
<clipPath id="clip_12">
<path transform="matrix(1,0,0,-1,70.63395,129.89807)" d="M-3.236068-3.236068H3.236068V3.236068H-3.236068Z"/>
</clipPath>
<clipPath id="clip_13">
<path transform="matrix(1,0,0,-1,93.034778,142.95452)" d="M-3.236068-3.236068H3.236068V3.236068H-3.236068Z"/>
</clipPath>
<clipPath id="clip_14">
<path transform="matrix(1,0,0,-1,130.36949,171.72357)" d="M-3.236068-3.236068H3.236068V3.236068H-3.236068Z"/>
</clipPath>
<clipPath id="clip_15">
<path transform="matrix(1,0,0,-1,130.36949,167.97692)" d="M-3.236068-3.236068H3.236068V3.236068H-3.236068Z"/>
</clipPath>
<clipPath id="clip_16">
<path transform="matrix(1,0,0,-1,0,212.70946)" d="M33.299234 27.933465H145.30338V151.48548H33.299234Z"/>
</clipPath>
<clipPath id="clip_17">
<path transform="matrix(1,0,0,-1,63.167005,110.61229)" d="M-3.236068-3.236068H3.236068V3.236068H-3.236068Z"/>
</clipPath>
<clipPath id="clip_18">
<path transform="matrix(1,0,0,-1,93.034778,160.86515)" d="M-3.236068-3.236068H3.236068V3.236068H-3.236068Z"/>
</clipPath>
<clipPath id="clip_19">
<path transform="matrix(1,0,0,-1,0,212.70946)" d="M33.299234 27.933465H145.30338V151.48548H33.299234Z"/>
</clipPath>
<clipPath id="clip_20">
<path transform="matrix(1,0,0,-1,78.10089,155.74475)" d="M-3.236068-3.236068H3.236068V3.236068H-3.236068Z"/>
</clipPath>
<clipPath id="clip_21">
<path transform="matrix(1,0,0,-1,48.233118,71.105739)" d="M-3.236068-3.236068H3.236068V3.236068H-3.236068Z"/>
</clipPath>
<clipPath id="clip_22">
<path transform="matrix(1,0,0,-1,137.83643,172.38751)" d="M-3.236068-3.236068H3.236068V3.236068H-3.236068Z"/>
</clipPath>
<clipPath id="clip_23">
<path transform="matrix(1,0,0,-1,137.83643,170.20262)" d="M-3.236068-3.236068H3.236068V3.236068H-3.236068Z"/>
</clipPath>
<clipPath id="clip_24">
<path transform="matrix(1,0,0,-1,0,212.70946)" d="M33.299234 27.933465H145.30338V151.48548H33.299234Z"/>
</clipPath>
<clipPath id="clip_25">
<path transform="matrix(1,0,0,-1,63.167005,94.815547)" d="M-3.236068-3.236068H3.236068V3.236068H-3.236068Z"/>
</clipPath>
<clipPath id="clip_26">
<path transform="matrix(1,0,0,-1,93.034778,160.3676)" d="M-3.236068-3.236068H3.236068V3.236068H-3.236068Z"/>
</clipPath>
<clipPath id="clip_27">
<path transform="matrix(1,0,0,-1,0,212.70946)" d="M33.299234 27.933465H145.30338V151.48548H33.299234Z"/>
</clipPath>
<clipPath id="clip_28">
<path transform="matrix(1,0,0,-1,0,212.70946)" d="M33.299234 27.933465H145.30338V151.48548H33.299234Z"/>
</clipPath>
<clipPath id="clip_29">
<path transform="matrix(1,0,0,-1,0,212.70946)" d="M33.299234 27.933465H145.30338V151.48548H33.299234Z"/>
</clipPath>
<clipPath id="clip_30">
<path transform="matrix(1,0,0,-1,0,212.70946)" d="M33.299234 27.933465H145.30338V151.48548H33.299234Z"/>
</clipPath>
<clipPath id="clip_31">
<path transform="matrix(1,0,0,-1,63.167005,122.20646)" d="M-3.236068-3.236068H3.236068V3.236068H-3.236068Z"/>
</clipPath>
<clipPath id="clip_32">
<path transform="matrix(1,0,0,-1,93.034778,164.98734)" d="M-3.236068-3.236068H3.236068V3.236068H-3.236068Z"/>
</clipPath>
<clipPath id="clip_33">
<path transform="matrix(1,0,0,-1,0,212.70946)" d="M33.299234 27.933465H145.30338V151.48548H33.299234Z"/>
</clipPath>
<clipPath id="clip_34">
<path transform="matrix(1,0,0,-1,78.10089,159.14279)" d="M-3.236068-3.236068H3.236068V3.236068H-3.236068Z"/>
</clipPath>
<clipPath id="clip_35">
<path transform="matrix(1,0,0,-1,48.233118,83.4341)" d="M-3.236068-3.236068H3.236068V3.236068H-3.236068Z"/>
</clipPath>
<clipPath id="clip_36">
<path transform="matrix(1,0,0,-1,137.83643,172.66233)" d="M-3.236068-3.236068H3.236068V3.236068H-3.236068Z"/>
</clipPath>
<clipPath id="clip_37">
<path transform="matrix(1,0,0,-1,137.83643,172.66002)" d="M-3.236068-3.236068H3.236068V3.236068H-3.236068Z"/>
</clipPath>
<clipPath id="clip_38">
<path transform="matrix(1,0,0,-1,0,212.70946)" d="M147.43146 27.933465H177.29923V151.48548H147.43146Z"/>
</clipPath>
<clipPath id="clip_39">
<path transform="matrix(1,0,0,-1,0,212.70946)" d="M147.43146 27.933465H177.29923V151.48548H147.43146Z"/>
</clipPath>
<clipPath id="clip_40">
<path transform="matrix(1,0,0,-1,0,212.70946)" d="M147.43146 27.933465H177.29923V151.48548H147.43146Z"/>
</clipPath>
<clipPath id="clip_41">
<path transform="matrix(1,0,0,-1,0,212.70946)" d="M147.43146 27.933465H177.29923V151.48548H147.43146Z"/>
</clipPath>
<clipPath id="clip_42">
<path transform="matrix(1,0,0,-1,0,212.70946)" d="M147.43146 27.933465H177.29923V151.48548H147.43146Z"/>
</clipPath>
<clipPath id="clip_43">
<path transform="matrix(1,0,0,-1,0,212.70946)" d="M147.43146 27.933465H177.29923V151.48548H147.43146Z"/>
</clipPath>
<clipPath id="clip_44">
<path transform="matrix(1,0,0,-1,0,212.70946)" d="M147.43146 27.933465H177.29923V151.48548H147.43146Z"/>
</clipPath>
<clipPath id="clip_45">
<path transform="matrix(1,0,0,-1,0,212.70946)" d="M147.43146 27.933465H177.29923V151.48548H147.43146Z"/>
</clipPath>
<clipPath id="clip_46">
<path transform="matrix(1,0,0,-1,0,212.70946)" d="M147.43146 27.933465H177.29923V151.48548H147.43146Z"/>
</clipPath>
<clipPath id="clip_47">
<path transform="matrix(1,0,0,-1,0,212.70946)" d="M147.43146 27.933465H177.29923V151.48548H147.43146Z"/>
</clipPath>
<clipPath id="clip_48">
<path transform="matrix(1,0,0,-1,0,212.70946)" d="M147.43146 27.933465H177.29923V151.48548H147.43146Z"/>
</clipPath>
<clipPath id="clip_49">
<path transform="matrix(1,0,0,-1,0,212.70946)" d="M147.43146 27.933465H177.29923V151.48548H147.43146Z"/>
</clipPath>
<clipPath id="clip_50">
<path transform="matrix(1,0,0,-1,0,212.70946)" d="M147.43146 27.933465H177.29923V151.48548H147.43146Z"/>
</clipPath>
<path id="font_2_134" d="M.016998291 .6621094V.6430969C.100997928 .6381073 .11299133 .6271057 .11299133 .5530853V.10900879C.11299133 .034988405 .099990848 .021987915 .016998291 .018997193V0H.35099793C.42900086 0 .5 .020996094 .5369873 .054992677 .57299807 .087005618 .59298709 .13200379 .59298709 .1800232 .59298709 .22402954 .57499697 .2640381 .5439911 .29304505 .5139923 .32003785 .4869995 .3320465 .42199708 .34805299 .47399903 .36105348 .49499513 .37104798 .5189972 .39205934 .5439911 .4140625 .5589905 .45106507 .5589905 .4920807 .5589905 .60409548 .46998597 .6621094 .29699708 .6621094H.016998291M.21499634 .3260498C.31199647 .3260498 .35798646 .32104493 .3939972 .30604554 .45098878 .28204347 .47799684 .24203491 .47799684 .17901612 .47799684 .12501526 .45700074 .085998538 .4169922 .06300354 .3849945 .04499817 .34399415 .036987306 .27799989 .036987306 .22898865 .036987306 .21499634 .04598999 .21499634 .07800293V.3260498M.21499634 .36605836V.5950928C.21499634 .6161041 .22200012 .6251068 .23699951 .6251068H.2809906C.3959961 .6251068 .45700074 .5770874 .45700074 .48806764 .45700074 .4100647 .4039917 .36605836 .30999757 .36605836H.21499634Z"/>
<path id="font_2_184" d="M.31498719 .31419374 .31098939 .4501953H.2999878L.2979889 .44818116C.2889862 .44119264 .28799439 .44018556 .28399659 .44018556 .27799989 .44018556 .2679901 .44218446 .25698854 .44718934 .23498535 .4549713 .21299744 .45898438 .18699646 .45898438 .10798645 .45898438 .050994874 .4079895 .050994874 .33602906 .050994874 .28007508 .08299255 .24009705 .16799927 .19212342L.22599793 .15913391C.26098634 .1391449 .27799989 .11515808 .27799989 .08418274 .27799989 .04020691 .24598694 .01222229 .19499207 .01222229 .16099549 .01222229 .12998963 .025222779 .11099243 .047210695 .08999634 .07218933 .08099365 .095184329 .067993167 .15214539H.051986696V-.003768921H.06498718C.07199097 .006225586 .07598877 .008224487 .08799744 .008224487 .09700012 .0079956059 .11099243 .005996704 .13398743 0 .1619873-.0057678224 .18899536-.009765625 .20698548-.009765625 .28399659-.009765625 .34799195 .048202516 .34799195 .11816406 .34799195 .1681366 .32398988 .20111084 .2639923 .23709107L.1559906 .3010559C.12799073 .31704713 .11299133 .34202577 .11299133 .36901856 .11299133 .40899659 .14399719 .4369812 .18998719 .4369812 .24699402 .4369812 .2769928 .40299989 .2999878 .31404115L.31498719 .31419374Z"/>
<path id="font_2_178" d="M.018997193 .39794923C.03199768 .4009552 .039993287 .40194703 .050994874 .40194703 .07699585 .40194703 .085998538 .3859558 .085998538 .33796693V.084991458C.085998538 .0309906 .07199097 .015991211 .015991211 .01499939V0H.23799134V.01499939C.18499756 .016998291 .16999817 .02798462 .16999817 .066986087V.34895326C.16999817 .35095216 .17799378 .3609619 .18499756 .36795045 .20999146 .3909607 .25299073 .40795899 .28799439 .40795899 .33198548 .40795899 .35398866 .37295533 .35398866 .30296327V.08598328C.35398866 .02998352 .34298707 .018997193 .28599549 .01499939V0H.5099945V.01499939C.45298768 .015991211 .43798829 .032989503 .43798829 .09498596V.34695436C.46798707 .3899536 .5009918 .40795899 .5469971 .40795899 .60398867 .40795899 .621994 .38095094 .621994 .29795838V.08699036C.621994 .02998352 .6139984 .021987915 .55599978 .01499939V0H.7749939V.01499939L.7489929 .016998291C.71899417 .018997193 .70599368 .036987306 .70599368 .07598877V.28196717C.70599368 .39994813 .6669922 .45996095 .58999636 .45996095 .5319977 .45996095 .48098756 .43395997 .4269867 .3759613 .40899659 .43295289 .375 .45996095 .32099916 .45996095 .2769928 .45996095 .24899292 .44595338 .1659851 .38294984V.45794679L.15899658 .45996095C.10798645 .4409485 .07398987 .4299469 .018997193 .4149475V.39794923Z"/>
<path id="font_2_149" d="M.70098879-.15922547C.58699038-.15623474 .5069885-.11222839 .42599488-.007232666 .49398805 .0057678224 .5299988 .022766114 .57598879 .06277466 .6499939 .12876892 .6879883 .21977234 .6879883 .33078004 .6879883 .5317688 .5519867 .67578127 .36099244 .67578127 .16999817 .67578127 .033996583 .5317688 .033996583 .32876588 .033996583 .23077393 .06399536 .1487732 .12298584 .08477783 .1619873 .042770387 .19400025 .022766114 .2649994-.0012207031L.31199647-.056228639C.37998963-.13522339 .5009918-.17822266 .6599884-.17822266 .6749878-.17822266 .6839905-.17822266 .69499209-.17723084H.70098879V-.15922547M.3639984 .6397705C.40699769 .6397705 .45298768 .6207733 .48799134 .58976748 .5419922 .54177859 .57398989 .44577027 .57398989 .33277894 .57398989 .2337799 .54499819 .1317749 .5049896 .08576965 .46798707 .044769288 .41600038 .021774292 .36099244 .021774292 .31298829 .021774292 .2689972 .038772584 .23298645 .07077026 .17999268 .117767337 .147995 .21777344 .147995 .33477784 .147995 .43077088 .1769867 .5287781 .21798706 .57476809 .25898744 .6187744 .30599977 .6397705 .3639984 .6397705Z"/>
<path id="font_2_186" d="M.47898866 .050186159H.47399903C.42799378 .050186159 .4169922 .061187746 .4169922 .10719299V.4501953H.25898744V.43318177C.32099916 .43019105 .33299256 .42018128 .33299256 .37019349V.13522339C.33299256 .10722351 .32798768 .09321594 .31399537 .082229617 .2869873 .06022644 .2559967 .048233034 .22599793 .048233034 .18699646 .048233034 .15499878 .082229617 .15499878 .1242218V.4501953H.008987427V.43618775C.056991579 .43318177 .070999149 .41818238 .070999149 .37219239V.120224C.070999149 .041229249 .11898804-.009765625 .19198609-.009765625 .22898865-.009765625 .2679901 .006225586 .29499818 .033233644L.33799745 .07621765V-.0067749025L.34199525-.0087890629C.3919983 .011199951 .42799378 .022201539 .47898866 .036209108V.050186159Z"/>
<path id="font_2_179" d="M.015991211 .39794923C.021987915 .4009552 .03199768 .40194703 .042999269 .40194703 .070999149 .40194703 .07998657 .38694764 .07998657 .33796693V.08998108C.07998657 .032989503 .068984989 .018997193 .017990113 .01499939V0H.22999573V.01499939C.1789856 .018997193 .1639862 .0309906 .1639862 .066986087V.34796144C.21199036 .3929596 .23399353 .404953 .2669983 .404953 .31599427 .404953 .33999635 .3739624 .33999635 .30796815V.098983768C.33999635 .035995485 .32699586 .018997193 .2769928 .01499939V0H.4850006V.01499939C.43598939 .019989014 .42399598 .03199768 .42399598 .08097839V.30996705C.42399598 .40394593 .37998963 .45996095 .30599977 .45996095 .2599945 .45996095 .22898865 .4429474 .16099549 .37895204V.45794679L.1539917 .45996095C.10499573 .44195558 .070999149 .43095399 .015991211 .4149475V.39794923Z"/>
<path id="font_2_191" d="M.41799928 .13504029 .3999939 .13905335C.3899994 .089019779 .38398744 .073013309 .37098695 .055999757 .35699464 .039001466 .32299806 .02999878 .27198792 .02999878H.13398743L.40299989 .43518067V.4501953H.055999757L.052993776 .33213807H.070999149C.07998657 .40518189 .09498596 .42018128 .15499878 .42018128H.29299928L.026992798 .01499939V0H.4039917L.41799928 .13504029Z"/>
<path id="font_2_180" d="M.25 .45996095C.11999512 .45996095 .0289917 .3639984 .0289917 .22608948 .0289917 .09118652 .12199402-.009765625 .24798584-.009765625 .37399293-.009765625 .46998597 .09617615 .46998597 .23408509 .46998597 .3650055 .37799073 .45996095 .25 .45996095M.23699951 .4319458C.32099916 .4319458 .37998963 .3360138 .37998963 .19911194 .37998963 .08618164 .33499146 .018234253 .2599945 .018234253 .22099304 .018234253 .18399048 .04220581 .16299439 .08218384 .1349945 .13415528 .11898804 .20410156 .11898804 .27505494 .11898804 .36999513 .1659851 .4319458 .23699951 .4319458Z"/>
<path id="font_2_151" d="M.44699098 .6761017H.42599488C.42199708 .6531067 .41099549 .6421051 .3939972 .6421051 .38398744 .6421051 .36698915 .6461029 .34999085 .6540985 .31298829 .6677704 .27598573 .67578127 .24398804 .67578127 .20098877 .67578127 .15699768 .6587677 .12399292 .629776 .08898926 .59880068 .070999149 .556839 .070999149 .5048828 .070999149 .42495729 .114990238 .36901856 .22698975 .3100586 .29899598 .27209474 .35099793 .23114014 .37599183 .19316101 .3849945 .18017578 .3899994 .15919495 .3899994 .13522339 .3899994 .06828308 .33999635 .022323609 .2669983 .022323609 .17799378 .022323609 .114990238 .07727051 .06498718 .19915772H.041992189L.07199097-.012680054H.09399414C.09498596 .005996704 .10699463 .019989014 .12199402 .019989014 .1329956 .019989014 .1499939 .015991211 .16899109 .008987427 .20698548-.0056762697 .24699402-.013671875 .2869873-.013671875 .4019928-.013671875 .4909973 .0652771 .4909973 .16819763 .4909973 .25012208 .43598939 .31506349 .3039856 .3860016 .19898987 .4439392 .15699768 .48789979 .15699768 .54185488 .15699768 .59680178 .19898987 .6347809 .26098634 .6347809 .30599977 .6347809 .34799195 .6157837 .3829956 .5798187 .4139862 .54785159 .42799378 .5218811 .44400025 .46292115H.46899415L.44699098 .6761017Z"/>
<path id="font_2_168" d="M.397995 .15615845C.34999085 .08621216 .31399537 .06222534 .25698854 .06222534 .1659851 .06222534 .101989749 .14216614 .101989749 .25708009 .101989749 .3600006 .15699768 .43095399 .23799134 .43095399 .27398683 .43095399 .2869873 .41996766 .29699708 .3829956L.30299378 .3610077C.31098939 .33302308 .32899476 .31503297 .34999085 .31503297 .37599183 .31503297 .397995 .33403016 .397995 .3570099 .397995 .41296388 .32798768 .45996095 .24398804 .45996095 .19499207 .45996095 .14399719 .43995667 .102996829 .40397645 .052993776 .3600006 .024993897 .29205323 .024993897 .2131195 .024993897 .08320618 .10398865-.009765625 .21499634-.009765625 .2599945-.009765625 .2999878 .006225586 .33599855 .037231447 .36299134 .06123352 .38198854 .08821106 .4119873 .14717102L.397995 .15615845Z"/>
<path id="font_2_173" d="M.15699768 .34295655C.19898987 .38894654 .22898865 .40596009 .2679901 .40596009 .31799317 .40596009 .34298707 .36994935 .34298707 .29995729V.101989749C.34298707 .033996583 .33299256 .020996094 .2749939 .01499939V0H.4869995V.01499939C.43299867 .024993897 .4269867 .032989503 .4269867 .101989749V.30096437C.4269867 .40596009 .3849945 .45996095 .3039856 .45996095 .24499512 .45996095 .20298767 .43595887 .15699768 .3759613V.6799469L.1519928 .6829529C.117996219 .6709595 .09298706 .6629486 .036987306 .6469574L.009994507 .63894656V.6229553C.01399231 .62394717 .016998291 .62394717 .021987915 .62394717 .06498718 .62394717 .07299805 .61595156 .07299805 .5729523V.101989749C.07299805 .03199768 .066986087 .022994996 .008987427 .01499939V0H.22499085V.01499939C.16699219 .020996094 .15699768 .032989503 .15699768 .101989749V.34295655Z"/>
<path id="font_2_138" d="M.47898866 .23114014V.4631195H.45599366C.44400025 .38313294 .42599488 .36813355 .34599305 .36813355H.20098877V.59010317C.20098877 .618103 .20599365 .62409976 .23298645 .62409976H.36898805C.48199464 .62409976 .5039978 .60910037 .5209961 .51911929H.54599L.54299929 .6621094H.011993408V.6430969C.085998538 .6371002 .09899902 .6231079 .09899902 .55311587V.12004089C.09899902 .037002565 .08799744 .024002076 .011993408 .018997193V0H.2919922V.018997193C.21499634 .022994996 .20098877 .037002565 .20098877 .10903931V.32714845H.34599305C.4269867 .32714845 .44400025 .3121338 .45599366 .23109436L.47898866 .23114014Z"/>
<path id="font_2_145" d="M.673996 .5730896V.120010379C.673996 .037002565 .6619873 .023986817 .58299258 .018997193V0H.86299136V.018997193C.7899933 .023986817 .776001 .037994386 .776001 .10900879V.5530853C.776001 .62409976 .78900149 .6371002 .86299136 .6430969V.6621094H.6639862L.44299317 .15701294 .21199036 .6621094H.01399231V.6430969C.09599304 .6381073 .10899353 .62609866 .10899353 .5530853V.14701844C.10899353 .04399109 .09498596 .024993897 .011993408 .018997193V0H.24699402V.018997193C.16999817 .022994996 .15299988 .04598999 .15299988 .14701844V.5500946L.4039917 0H.41799928L.673996 .5730896Z"/>
<path id="font_2_156" d="M.69599917 .6621094H.45799256V.6430969C.5119934 .641098 .5279999 .6341095 .5279999 .61109927 .5279999 .59609988 .5169983 .5780945 .48799134 .54208377L.375 .404068 .33299256 .46307374C.27198792 .54808047 .24798584 .591095 .24798584 .61309817 .24798584 .6331024 .2630005 .641098 .29599 .6421051L.32398988 .6430969V.6621094H.021987915V.6430969C.08699036 .6401062 .10499573 .6251068 .20298767 .48608399L.31199647 .3260498 .15499878 .13301087C.06599426 .026992798 .06098938 .022994996 .009994507 .018997193V0H.24299622V.018997193C.18499756 .022994996 .16699219 .0309906 .16699219 .054000856 .16699219 .069000247 .18199158 .0940094 .21899414 .14001465L.33799745 .28804017 .43299867 .14801026C.46598817 .09901428 .48399354 .06500244 .48399354 .05000305 .48399354 .03199768 .46798707 .021987915 .43399049 .020996094 .42999269 .020996094 .4189911 .019989014 .40699769 .018997193V0H.70399478V.018997193C.651001 .024993897 .6359863 .034988405 .59298709 .09300232L.40098573 .36705018 .5469971 .5490875C.6119995 .6271057 .6319885 .6390991 .69599917 .6430969V.6621094Z"/>
<path id="font_2_146" d="M.6119995-.0107421879V.5151367C.6119995 .575119 .621994 .6121063 .6409912 .6251068 .6549988 .6351013 .6689911 .6390991 .70700076 .6430969V.6621094H.47200013V.6430969C.5099945 .6401062 .5239868 .6361084 .5389862 .6271057 .5589905 .6131134 .56799319 .5771179 .56799319 .5151367V.1782074L.18299866 .6621094H.011993408V.6430969C.054992677 .6430969 .068984989 .6351013 .10899353 .5881195V.1472168C.10899353 .04399109 .09498596 .024993897 .011993408 .018997193V0H.24699402V.018997193C.16999817 .022994996 .15299988 .04598999 .15299988 .14698792V.5389862L.59498599-.0107421879H.6119995Z"/>
<path id="font_2_154" d="M.69699099 .6621094H.49198915V.6430969C.5469971 .6401062 .5649872 .6291046 .5649872 .60110476 .5649872 .5851135 .55799868 .5581207 .54599 .52812197L.39898683 .1612091 .24798584 .49913026C.21499634 .57211306 .20698548 .59510806 .20698548 .6101074 .20698548 .6291046 .22099304 .6390991 .25299073 .641098 .25698854 .641098 .2679901 .6421051 .28199769 .6430969V.6621094H.015991211V.6430969C.06498718 .641098 .07899475 .6271057 .12199402 .5381317L.36799623-.0107421879H.3829956L.6049957 .5501251C.6380005 .6291046 .6489868 .6401062 .69699099 .6430969V.6621094Z"/>
<path id="font_2_141" d="M.114990238 .10900879C.114990238 .033996583 .101989749 .021987915 .017990113 .018997193V0H.31498719V.018997193C.23298645 .021987915 .21699524 .035995485 .21699524 .10900879V.5530853C.21699524 .62609866 .23098755 .6390991 .31498719 .6430969V.6621094H.017990113V.6430969C.102996829 .6381073 .114990238 .6271057 .114990238 .5530853V.10900879Z"/>
<path id="font_2_240" d="M.2869873 .67578127H.21998596L-.009002686-.013671875H.05899048L.2869873 .67578127Z"/>
</defs>
<path transform="matrix(1,0,0,-1,0,212.70946)" d="M0 0H184.49924V212.70946H0Z" fill="#ffffff"/>
<path transform="matrix(1,0,0,-1,0,212.70946)" d="M33.299234 27.933463H145.30338V151.48546H33.299234Z" fill="#ffffff"/>
<g clip-path="url(#clip_0)">
<path transform="matrix(1,0,0,-1,0,212.70946)" stroke-width="1" stroke-linecap="butt" stroke-dasharray="3.7,1.6" stroke-linejoin="round" fill="none" stroke="#9467bd" d="M36.51434 213.70946 38.552358 194.5483 40.653608 177.30374 42.754858 162.23091 44.85611 149.01862 46.95736 137.40544 49.05861 127.171 51.15986 118.128818 53.26111 110.12063 55.36236 103.01165 57.46361 96.686748 59.56486 91.047267 61.66611 86.00847 63.76736 81.497318 65.868618 77.45074 67.969867 73.81409 70.07111 70.539928 72.69768 66.89461 75.32424 63.682298 77.9508 60.84441 80.57736 58.33121 83.203929 56.100355 86.355808 53.74547 89.507678 51.692537 92.65955 49.897527 96.33674 48.08047 100.01393 46.515947 104.21643 44.986356 108.41893 43.686349 113.14674 42.44993 118.39987 41.305288 124.17831 40.26993 131.00737 39.284009 137.83644 38.49797"/>
</g>
<g clip-path="url(#clip_1)">
<path transform="matrix(1,0,0,-1,0,212.70946)" stroke-width=".8" stroke-linecap="butt" stroke-dasharray="2.96,1.28" stroke-linejoin="round" fill="none" stroke="#b0b0b0" d="M33.299234 27.933463V151.48546"/>
</g>
<path transform="matrix(1,0,0,-1,0,212.70946)" d="M33.299234 27.933463V24.433463"/>
<path transform="matrix(1,0,0,-1,0,212.70946)" stroke-width=".8" stroke-linecap="butt" stroke-linejoin="round" fill="none" stroke="#000000" d="M33.299234 27.933463V24.433463"/>
<use data-text="3" xlink:href="#font_2_205" transform="matrix(7.970112,0,0,-7.970112,31.306704,197.17966)"/>
<g clip-path="url(#clip_3)">
<path transform="matrix(1,0,0,-1,0,212.70946)" stroke-width=".8" stroke-linecap="butt" stroke-dasharray="2.96,1.28" stroke-linejoin="round" fill="none" stroke="#b0b0b0" d="M63.167005 27.933463V151.48546"/>
</g>
<path transform="matrix(1,0,0,-1,0,212.70946)" d="M63.167005 27.933463V24.433463"/>
<path transform="matrix(1,0,0,-1,0,212.70946)" stroke-width=".8" stroke-linecap="butt" stroke-linejoin="round" fill="none" stroke="#000000" d="M63.167005 27.933463V24.433463"/>
<use data-text="4" xlink:href="#font_2_206" transform="matrix(7.970112,0,0,-7.970112,61.174478,197.17966)"/>
<g clip-path="url(#clip_4)">
<path transform="matrix(1,0,0,-1,0,212.70946)" stroke-width=".8" stroke-linecap="butt" stroke-dasharray="2.96,1.28" stroke-linejoin="round" fill="none" stroke="#b0b0b0" d="M93.034778 27.933463V151.48546"/>
</g>
<path transform="matrix(1,0,0,-1,0,212.70946)" d="M93.034778 27.933463V24.433463"/>
<path transform="matrix(1,0,0,-1,0,212.70946)" stroke-width=".8" stroke-linecap="butt" stroke-linejoin="round" fill="none" stroke="#000000" d="M93.034778 27.933463V24.433463"/>
<use data-text="5" xlink:href="#font_2_207" transform="matrix(7.970112,0,0,-7.970112,91.04225,197.17966)"/>
<g clip-path="url(#clip_5)">
<path transform="matrix(1,0,0,-1,0,212.70946)" stroke-width=".8" stroke-linecap="butt" stroke-dasharray="2.96,1.28" stroke-linejoin="round" fill="none" stroke="#b0b0b0" d="M122.90255 27.933463V151.48546"/>
</g>
<path transform="matrix(1,0,0,-1,0,212.70946)" d="M122.90255 27.933463V24.433463"/>
<path transform="matrix(1,0,0,-1,0,212.70946)" stroke-width=".8" stroke-linecap="butt" stroke-linejoin="round" fill="none" stroke="#000000" d="M122.90255 27.933463V24.433463"/>
<use data-text="6" xlink:href="#font_2_208" transform="matrix(7.970112,0,0,-7.970112,120.91002,197.17966)"/>
<g clip-path="url(#clip_6)">
<path transform="matrix(1,0,0,-1,0,212.70946)" stroke-width=".8" stroke-linecap="butt" stroke-dasharray="2.96,1.28" stroke-linejoin="round" fill="none" stroke="#b0b0b0" d="M33.299234 43.622285H145.30338"/>
</g>
<path transform="matrix(1,0,0,-1,0,212.70946)" d="M33.299234 43.622285H29.79923"/>
<path transform="matrix(1,0,0,-1,0,212.70946)" stroke-width=".8" stroke-linecap="butt" stroke-linejoin="round" fill="none" stroke="#000000" d="M33.299234 43.622285H29.79923"/>
<use data-text="8" xlink:href="#font_2_210" transform="matrix(7.970112,0,0,-7.970112,22.314175,171.789)"/>
<g clip-path="url(#clip_7)">
<path transform="matrix(1,0,0,-1,0,212.70946)" stroke-width=".8" stroke-linecap="butt" stroke-dasharray="2.96,1.28" stroke-linejoin="round" fill="none" stroke="#b0b0b0" d="M33.299234 78.62989H145.30338"/>
</g>
<path transform="matrix(1,0,0,-1,0,212.70946)" d="M33.299234 78.62989H29.79923"/>
<path transform="matrix(1,0,0,-1,0,212.70946)" stroke-width=".8" stroke-linecap="butt" stroke-linejoin="round" fill="none" stroke="#000000" d="M33.299234 78.62989H29.79923"/>
<use data-text="9" xlink:href="#font_2_211" transform="matrix(7.970112,0,0,-7.970112,22.314175,136.7814)"/>
<g clip-path="url(#clip_8)">
<path transform="matrix(1,0,0,-1,0,212.70946)" stroke-width=".8" stroke-linecap="butt" stroke-dasharray="2.96,1.28" stroke-linejoin="round" fill="none" stroke="#b0b0b0" d="M33.299234 109.94526H145.30338"/>
</g>
<path transform="matrix(1,0,0,-1,0,212.70946)" d="M33.299234 109.94526H29.79923"/>
<path transform="matrix(1,0,0,-1,0,212.70946)" stroke-width=".8" stroke-linecap="butt" stroke-linejoin="round" fill="none" stroke="#000000" d="M33.299234 109.94526H29.79923"/>
<use data-text="1" xlink:href="#font_2_203" transform="matrix(7.970112,0,0,-7.970112,18.329119,105.46603)"/>
<use data-text="0" xlink:href="#font_2_212" transform="matrix(7.970112,0,0,-7.970112,22.314175,105.46603)"/>
<g clip-path="url(#clip_9)">
<path transform="matrix(1,0,0,-1,0,212.70946)" stroke-width=".8" stroke-linecap="butt" stroke-dasharray="2.96,1.28" stroke-linejoin="round" fill="none" stroke="#b0b0b0" d="M33.299234 138.27346H145.30338"/>
</g>
<path transform="matrix(1,0,0,-1,0,212.70946)" d="M33.299234 138.27346H29.79923"/>
<path transform="matrix(1,0,0,-1,0,212.70946)" stroke-width=".8" stroke-linecap="butt" stroke-linejoin="round" fill="none" stroke="#000000" d="M33.299234 138.27346H29.79923"/>
<use data-text="1" xlink:href="#font_2_203" transform="matrix(7.970112,0,0,-7.970112,18.329119,77.13783)"/>
<use data-text="1" xlink:href="#font_2_203" transform="matrix(7.970112,0,0,-7.970112,22.314175,77.13783)"/>
<use data-text="A" xlink:href="#font_2_133" transform="matrix(0,-7.970112,-7.970112,-0,12.603656,172.55387)"/>
<use data-text="v" xlink:href="#font_2_187" transform="matrix(0,-7.970112,-7.970112,-0,12.603656,167.3972)"/>
<use data-text="e" xlink:href="#font_2_170" transform="matrix(0,-7.970112,-7.970112,-0,12.603656,163.53162)"/>
<use data-text="r" xlink:href="#font_2_183" transform="matrix(0,-7.970112,-7.970112,-0,12.603656,160.00086)"/>
<use data-text="a" xlink:href="#font_2_166" transform="matrix(0,-7.970112,-7.970112,-0,12.603656,157.35478)"/>
<use data-text="g" xlink:href="#font_2_172" transform="matrix(0,-7.970112,-7.970112,-0,12.603656,153.82402)"/>
<use data-text="e" xlink:href="#font_2_170" transform="matrix(0,-7.970112,-7.970112,-0,12.603656,149.83896)"/>
<use data-text="W" xlink:href="#font_2_155" transform="matrix(0,-7.970112,-7.970112,-0,12.603656,144.31568)"/>
<use data-text="i" xlink:href="#font_2_174" transform="matrix(0,-7.970112,-7.970112,-0,12.603656,137.11859)"/>
<use data-text="k" xlink:href="#font_2_176" transform="matrix(0,-7.970112,-7.970112,-0,12.603656,134.91088)"/>
<use data-text="i" xlink:href="#font_2_174" transform="matrix(0,-7.970112,-7.970112,-0,12.603656,130.92581)"/>
<use data-text="T" xlink:href="#font_2_152" transform="matrix(0,-7.970112,-7.970112,-0,12.603656,128.71811)"/>
<use data-text="e" xlink:href="#font_2_170" transform="matrix(0,-7.970112,-7.970112,-0,12.603656,124.41421)"/>
<use data-text="x" xlink:href="#font_2_189" transform="matrix(0,-7.970112,-7.970112,-0,12.603656,121.002918)"/>
<use data-text="t" xlink:href="#font_2_185" transform="matrix(0,-7.970112,-7.970112,-0,12.603656,117.01786)"/>
<use data-text="-" xlink:href="#font_2_241" transform="matrix(0,-7.970112,-7.970112,-0,12.603656,114.81014)"/>
<use data-text="2" xlink:href="#font_2_204" transform="matrix(0,-7.970112,-7.970112,-0,12.603656,112.16406)"/>
<use data-text="P" xlink:href="#font_2_148" transform="matrix(0,-7.970112,-7.970112,-0,12.603656,106.18648)"/>
<use data-text="e" xlink:href="#font_2_170" transform="matrix(0,-7.970112,-7.970112,-0,12.603656,101.76306)"/>
<use data-text="r" xlink:href="#font_2_183" transform="matrix(0,-7.970112,-7.970112,-0,12.603656,98.2323)"/>
<use data-text="p" xlink:href="#font_2_181" transform="matrix(0,-7.970112,-7.970112,-0,12.603656,95.58622)"/>
<use data-text="l" xlink:href="#font_2_177" transform="matrix(0,-7.970112,-7.970112,-0,12.603656,91.601169)"/>
<use data-text="e" xlink:href="#font_2_170" transform="matrix(0,-7.970112,-7.970112,-0,12.603656,89.39345)"/>
<use data-text="x" xlink:href="#font_2_189" transform="matrix(0,-7.970112,-7.970112,-0,12.603656,85.982158)"/>
<use data-text="i" xlink:href="#font_2_174" transform="matrix(0,-7.970112,-7.970112,-0,12.603656,81.9971)"/>
<use data-text="t" xlink:href="#font_2_185" transform="matrix(0,-7.970112,-7.970112,-0,12.603656,79.78938)"/>
<use data-text="y" xlink:href="#font_2_190" transform="matrix(0,-7.970112,-7.970112,-0,12.603656,77.581668)"/>
<g clip-path="url(#clip_10)">
<g>
<path transform="matrix(1,0,0,-1,0,212.70946)" d="M421.5803 35.408559 424.74256 38.570837 421.5803 41.733114 418.418 38.570837Z" fill="#111111" fill-opacity=".9"/>
<path transform="matrix(1,0,0,-1,0,212.70946)" stroke-width=".2" stroke-linecap="butt" stroke-linejoin="round" fill="none" stroke="#000000" stroke-opacity=".9" d="M421.5803 35.408559 424.74256 38.570837 421.5803 41.733114 418.418 38.570837Z"/>
</g>
</g>
<g clip-path="url(#clip_11)">
<g clip-path="url(#clip_12)">
<g>
<path transform="matrix(1,0,0,-1,70.63395,129.89807)" d="M0 2.236068-2.236068-2.236068H2.236068Z" fill="#1f77b4" fill-opacity=".9"/>
<path transform="matrix(1,0,0,-1,70.63395,129.89807)" stroke-width=".2" stroke-linecap="butt" stroke-linejoin="round" fill="none" stroke="#000000" stroke-opacity=".9" d="M0 2.236068-2.236068-2.236068H2.236068Z"/>
</g>
</g>
<g clip-path="url(#clip_13)">
<g>
<path transform="matrix(1,0,0,-1,93.034778,142.95452)" d="M0 2.236068-2.236068-2.236068H2.236068Z" fill="#1f77b4" fill-opacity=".9"/>
<path transform="matrix(1,0,0,-1,93.034778,142.95452)" stroke-width=".2" stroke-linecap="butt" stroke-linejoin="round" fill="none" stroke="#000000" stroke-opacity=".9" d="M0 2.236068-2.236068-2.236068H2.236068Z"/>
</g>
</g>
<g clip-path="url(#clip_14)">
<g>
<path transform="matrix(1,0,0,-1,130.36949,171.72357)" d="M0 2.236068-2.236068-2.236068H2.236068Z" fill="#1f77b4" fill-opacity=".9"/>
<path transform="matrix(1,0,0,-1,130.36949,171.72357)" stroke-width=".2" stroke-linecap="butt" stroke-linejoin="round" fill="none" stroke="#000000" stroke-opacity=".9" d="M0 2.236068-2.236068-2.236068H2.236068Z"/>
</g>
</g>
<g clip-path="url(#clip_15)">
<g>
<path transform="matrix(1,0,0,-1,130.36949,167.97692)" d="M0 2.236068-2.236068-2.236068H2.236068Z" fill="#1f77b4" fill-opacity=".9"/>
<path transform="matrix(1,0,0,-1,130.36949,167.97692)" stroke-width=".2" stroke-linecap="butt" stroke-linejoin="round" fill="none" stroke="#000000" stroke-opacity=".9" d="M0 2.236068-2.236068-2.236068H2.236068Z"/>
</g>
</g>
</g>
<g clip-path="url(#clip_16)">
<g clip-path="url(#clip_17)">
<g>
<path transform="matrix(1,0,0,-1,63.167005,110.61229)" d="M0-2.236068C.593012-2.236068 1.161816-2.000462 1.581139-1.581139 2.000462-1.161816 2.236068-.593012 2.236068 0 2.236068 .593012 2.000462 1.161816 1.581139 1.581139 1.161816 2.000462 .593012 2.236068 0 2.236068-.593012 2.236068-1.161816 2.000462-1.581139 1.581139-2.000462 1.161816-2.236068 .593012-2.236068 0-2.236068-.593012-2.000462-1.161816-1.581139-1.581139-1.161816-2.000462-.593012-2.236068 0-2.236068Z" fill="#ff7f0e" fill-opacity=".9"/>
<path transform="matrix(1,0,0,-1,63.167005,110.61229)" stroke-width=".2" stroke-linecap="butt" stroke-linejoin="round" fill="none" stroke="#000000" stroke-opacity=".9" d="M0-2.236068C.593012-2.236068 1.161816-2.000462 1.581139-1.581139 2.000462-1.161816 2.236068-.593012 2.236068 0 2.236068 .593012 2.000462 1.161816 1.581139 1.581139 1.161816 2.000462 .593012 2.236068 0 2.236068-.593012 2.236068-1.161816 2.000462-1.581139 1.581139-2.000462 1.161816-2.236068 .593012-2.236068 0-2.236068-.593012-2.000462-1.161816-1.581139-1.581139-1.161816-2.000462-.593012-2.236068 0-2.236068Z"/>
</g>
</g>
<g clip-path="url(#clip_18)">
<g>
<path transform="matrix(1,0,0,-1,93.034778,160.86515)" d="M0-2.236068C.593012-2.236068 1.161816-2.000462 1.581139-1.581139 2.000462-1.161816 2.236068-.593012 2.236068 0 2.236068 .593012 2.000462 1.161816 1.581139 1.581139 1.161816 2.000462 .593012 2.236068 0 2.236068-.593012 2.236068-1.161816 2.000462-1.581139 1.581139-2.000462 1.161816-2.236068 .593012-2.236068 0-2.236068-.593012-2.000462-1.161816-1.581139-1.581139-1.161816-2.000462-.593012-2.236068 0-2.236068Z" fill="#ff7f0e" fill-opacity=".9"/>
<path transform="matrix(1,0,0,-1,93.034778,160.86515)" stroke-width=".2" stroke-linecap="butt" stroke-linejoin="round" fill="none" stroke="#000000" stroke-opacity=".9" d="M0-2.236068C.593012-2.236068 1.161816-2.000462 1.581139-1.581139 2.000462-1.161816 2.236068-.593012 2.236068 0 2.236068 .593012 2.000462 1.161816 1.581139 1.581139 1.161816 2.000462 .593012 2.236068 0 2.236068-.593012 2.236068-1.161816 2.000462-1.581139 1.581139-2.000462 1.161816-2.236068 .593012-2.236068 0-2.236068-.593012-2.000462-1.161816-1.581139-1.581139-1.161816-2.000462-.593012-2.236068 0-2.236068Z"/>
</g>
</g>
</g>
<g clip-path="url(#clip_19)">
<g clip-path="url(#clip_20)">
<g>
<path transform="matrix(1,0,0,-1,78.10089,155.74475)" d="M-2.236068-2.236068H2.236068V2.236068H-2.236068Z" fill="#ff7f0e" fill-opacity=".9"/>
<path transform="matrix(1,0,0,-1,78.10089,155.74475)" stroke-width=".2" stroke-linecap="butt" stroke-linejoin="round" fill="none" stroke="#000000" stroke-opacity=".9" d="M-2.236068-2.236068H2.236068V2.236068H-2.236068Z"/>
</g>
</g>
<g clip-path="url(#clip_21)">
<g>
<path transform="matrix(1,0,0,-1,48.233118,71.105739)" d="M-2.236068-2.236068H2.236068V2.236068H-2.236068Z" fill="#ff7f0e" fill-opacity=".9"/>
<path transform="matrix(1,0,0,-1,48.233118,71.105739)" stroke-width=".2" stroke-linecap="butt" stroke-linejoin="round" fill="none" stroke="#000000" stroke-opacity=".9" d="M-2.236068-2.236068H2.236068V2.236068H-2.236068Z"/>
</g>
</g>
<g clip-path="url(#clip_22)">
<g>
<path transform="matrix(1,0,0,-1,137.83643,172.38751)" d="M-2.236068-2.236068H2.236068V2.236068H-2.236068Z" fill="#ff7f0e" fill-opacity=".9"/>
<path transform="matrix(1,0,0,-1,137.83643,172.38751)" stroke-width=".2" stroke-linecap="butt" stroke-linejoin="round" fill="none" stroke="#000000" stroke-opacity=".9" d="M-2.236068-2.236068H2.236068V2.236068H-2.236068Z"/>
</g>
</g>
<g clip-path="url(#clip_23)">
<g>
<path transform="matrix(1,0,0,-1,137.83643,170.20262)" d="M-2.236068-2.236068H2.236068V2.236068H-2.236068Z" fill="#ff7f0e" fill-opacity=".9"/>
<path transform="matrix(1,0,0,-1,137.83643,170.20262)" stroke-width=".2" stroke-linecap="butt" stroke-linejoin="round" fill="none" stroke="#000000" stroke-opacity=".9" d="M-2.236068-2.236068H2.236068V2.236068H-2.236068Z"/>
</g>
</g>
</g>
<g clip-path="url(#clip_24)">
<g clip-path="url(#clip_25)">
<g>
<path transform="matrix(1,0,0,-1,63.167005,94.815547)" d="M0-2.236068C.593012-2.236068 1.161816-2.000462 1.581139-1.581139 2.000462-1.161816 2.236068-.593012 2.236068 0 2.236068 .593012 2.000462 1.161816 1.581139 1.581139 1.161816 2.000462 .593012 2.236068 0 2.236068-.593012 2.236068-1.161816 2.000462-1.581139 1.581139-2.000462 1.161816-2.236068 .593012-2.236068 0-2.236068-.593012-2.000462-1.161816-1.581139-1.581139-1.161816-2.000462-.593012-2.236068 0-2.236068Z" fill="#2ca02c" fill-opacity=".9"/>
<path transform="matrix(1,0,0,-1,63.167005,94.815547)" stroke-width=".2" stroke-linecap="butt" stroke-linejoin="round" fill="none" stroke="#000000" stroke-opacity=".9" d="M0-2.236068C.593012-2.236068 1.161816-2.000462 1.581139-1.581139 2.000462-1.161816 2.236068-.593012 2.236068 0 2.236068 .593012 2.000462 1.161816 1.581139 1.581139 1.161816 2.000462 .593012 2.236068 0 2.236068-.593012 2.236068-1.161816 2.000462-1.581139 1.581139-2.000462 1.161816-2.236068 .593012-2.236068 0-2.236068-.593012-2.000462-1.161816-1.581139-1.581139-1.161816-2.000462-.593012-2.236068 0-2.236068Z"/>
</g>
</g>
<g clip-path="url(#clip_26)">
<g>
<path transform="matrix(1,0,0,-1,93.034778,160.3676)" d="M0-2.236068C.593012-2.236068 1.161816-2.000462 1.581139-1.581139 2.000462-1.161816 2.236068-.593012 2.236068 0 2.236068 .593012 2.000462 1.161816 1.581139 1.581139 1.161816 2.000462 .593012 2.236068 0 2.236068-.593012 2.236068-1.161816 2.000462-1.581139 1.581139-2.000462 1.161816-2.236068 .593012-2.236068 0-2.236068-.593012-2.000462-1.161816-1.581139-1.581139-1.161816-2.000462-.593012-2.236068 0-2.236068Z" fill="#2ca02c" fill-opacity=".9"/>
<path transform="matrix(1,0,0,-1,93.034778,160.3676)" stroke-width=".2" stroke-linecap="butt" stroke-linejoin="round" fill="none" stroke="#000000" stroke-opacity=".9" d="M0-2.236068C.593012-2.236068 1.161816-2.000462 1.581139-1.581139 2.000462-1.161816 2.236068-.593012 2.236068 0 2.236068 .593012 2.000462 1.161816 1.581139 1.581139 1.161816 2.000462 .593012 2.236068 0 2.236068-.593012 2.236068-1.161816 2.000462-1.581139 1.581139-2.000462 1.161816-2.236068 .593012-2.236068 0-2.236068-.593012-2.000462-1.161816-1.581139-1.581139-1.161816-2.000462-.593012-2.236068 0-2.236068Z"/>
</g>
</g>
</g>
<g clip-path="url(#clip_27)">
<g>
<path transform="matrix(1,0,0,-1,0,212.70946)" d="M75.86482 59.251035H80.33696V63.72317H75.86482Z" fill="#2ca02c" fill-opacity=".9"/>
<path transform="matrix(1,0,0,-1,0,212.70946)" stroke-width=".2" stroke-linecap="butt" stroke-linejoin="round" fill="none" stroke="#000000" stroke-opacity=".9" d="M75.86482 59.251035H80.33696V63.72317H75.86482Z"/>
</g>
<g>
<path transform="matrix(1,0,0,-1,0,212.70946)" d="M135.60037 38.173116H140.07251V42.64525H135.60037Z" fill="#2ca02c" fill-opacity=".9"/>
<path transform="matrix(1,0,0,-1,0,212.70946)" stroke-width=".2" stroke-linecap="butt" stroke-linejoin="round" fill="none" stroke="#000000" stroke-opacity=".9" d="M135.60037 38.173116H140.07251V42.64525H135.60037Z"/>
</g>
</g>
<g clip-path="url(#clip_28)">
<g>
<path transform="matrix(1,0,0,-1,0,212.70946)" d="M93.034778 52.51199C93.62779 52.51199 94.196598 52.747598 94.61591 53.16692 95.03524 53.586244 95.27084 54.155046 95.27084 54.74806 95.27084 55.34107 95.03524 55.909875 94.61591 56.329198 94.196598 56.74852 93.62779 56.984128 93.034778 56.984128 92.441768 56.984128 91.87296 56.74852 91.453639 56.329198 91.03432 55.909875 90.798709 55.34107 90.798709 54.74806 90.798709 54.155046 91.03432 53.586244 91.453639 53.16692 91.87296 52.747598 92.441768 52.51199 93.034778 52.51199Z" fill="#d62728" fill-opacity=".9"/>
<path transform="matrix(1,0,0,-1,0,212.70946)" stroke-width=".2" stroke-linecap="butt" stroke-linejoin="round" fill="none" stroke="#000000" stroke-opacity=".9" d="M93.034778 52.51199C93.62779 52.51199 94.196598 52.747598 94.61591 53.16692 95.03524 53.586244 95.27084 54.155046 95.27084 54.74806 95.27084 55.34107 95.03524 55.909875 94.61591 56.329198 94.196598 56.74852 93.62779 56.984128 93.034778 56.984128 92.441768 56.984128 91.87296 56.74852 91.453639 56.329198 91.03432 55.909875 90.798709 55.34107 90.798709 54.74806 90.798709 54.155046 91.03432 53.586244 91.453639 53.16692 91.87296 52.747598 92.441768 52.51199 93.034778 52.51199Z"/>
</g>
</g>
<g clip-path="url(#clip_29)">
<g>
<path transform="matrix(1,0,0,-1,0,212.70946)" d="M75.86482 52.647138H80.33696V57.119276H75.86482Z" fill="#d62728" fill-opacity=".9"/>
<path transform="matrix(1,0,0,-1,0,212.70946)" stroke-width=".2" stroke-linecap="butt" stroke-linejoin="round" fill="none" stroke="#000000" stroke-opacity=".9" d="M75.86482 52.647138H80.33696V57.119276H75.86482Z"/>
</g>
</g>
<g clip-path="url(#clip_30)">
<g clip-path="url(#clip_31)">
<g>
<path transform="matrix(1,0,0,-1,63.167005,122.20646)" d="M0-2.236068C.593012-2.236068 1.161816-2.000462 1.581139-1.581139 2.000462-1.161816 2.236068-.593012 2.236068 0 2.236068 .593012 2.000462 1.161816 1.581139 1.581139 1.161816 2.000462 .593012 2.236068 0 2.236068-.593012 2.236068-1.161816 2.000462-1.581139 1.581139-2.000462 1.161816-2.236068 .593012-2.236068 0-2.236068-.593012-2.000462-1.161816-1.581139-1.581139-1.161816-2.000462-.593012-2.236068 0-2.236068Z" fill="#9467bd" fill-opacity=".9"/>
<path transform="matrix(1,0,0,-1,63.167005,122.20646)" stroke-width=".2" stroke-linecap="butt" stroke-linejoin="round" fill="none" stroke="#000000" stroke-opacity=".9" d="M0-2.236068C.593012-2.236068 1.161816-2.000462 1.581139-1.581139 2.000462-1.161816 2.236068-.593012 2.236068 0 2.236068 .593012 2.000462 1.161816 1.581139 1.581139 1.161816 2.000462 .593012 2.236068 0 2.236068-.593012 2.236068-1.161816 2.000462-1.581139 1.581139-2.000462 1.161816-2.236068 .593012-2.236068 0-2.236068-.593012-2.000462-1.161816-1.581139-1.581139-1.161816-2.000462-.593012-2.236068 0-2.236068Z"/>
</g>
</g>
<g clip-path="url(#clip_32)">
<g>
<path transform="matrix(1,0,0,-1,93.034778,164.98734)" d="M0-2.236068C.593012-2.236068 1.161816-2.000462 1.581139-1.581139 2.000462-1.161816 2.236068-.593012 2.236068 0 2.236068 .593012 2.000462 1.161816 1.581139 1.581139 1.161816 2.000462 .593012 2.236068 0 2.236068-.593012 2.236068-1.161816 2.000462-1.581139 1.581139-2.000462 1.161816-2.236068 .593012-2.236068 0-2.236068-.593012-2.000462-1.161816-1.581139-1.581139-1.161816-2.000462-.593012-2.236068 0-2.236068Z" fill="#9467bd" fill-opacity=".9"/>
<path transform="matrix(1,0,0,-1,93.034778,164.98734)" stroke-width=".2" stroke-linecap="butt" stroke-linejoin="round" fill="none" stroke="#000000" stroke-opacity=".9" d="M0-2.236068C.593012-2.236068 1.161816-2.000462 1.581139-1.581139 2.000462-1.161816 2.236068-.593012 2.236068 0 2.236068 .593012 2.000462 1.161816 1.581139 1.581139 1.161816 2.000462 .593012 2.236068 0 2.236068-.593012 2.236068-1.161816 2.000462-1.581139 1.581139-2.000462 1.161816-2.236068 .593012-2.236068 0-2.236068-.593012-2.000462-1.161816-1.581139-1.581139-1.161816-2.000462-.593012-2.236068 0-2.236068Z"/>
</g>
</g>
</g>
<g clip-path="url(#clip_33)">
<g clip-path="url(#clip_34)">
<g>
<path transform="matrix(1,0,0,-1,78.10089,159.14279)" d="M-2.236068-2.236068H2.236068V2.236068H-2.236068Z" fill="#9467bd" fill-opacity=".9"/>
<path transform="matrix(1,0,0,-1,78.10089,159.14279)" stroke-width=".2" stroke-linecap="butt" stroke-linejoin="round" fill="none" stroke="#000000" stroke-opacity=".9" d="M-2.236068-2.236068H2.236068V2.236068H-2.236068Z"/>
</g>
</g>
<g clip-path="url(#clip_35)">
<g>
<path transform="matrix(1,0,0,-1,48.233118,83.4341)" d="M-2.236068-2.236068H2.236068V2.236068H-2.236068Z" fill="#9467bd" fill-opacity=".9"/>
<path transform="matrix(1,0,0,-1,48.233118,83.4341)" stroke-width=".2" stroke-linecap="butt" stroke-linejoin="round" fill="none" stroke="#000000" stroke-opacity=".9" d="M-2.236068-2.236068H2.236068V2.236068H-2.236068Z"/>
</g>
</g>
<g clip-path="url(#clip_36)">
<g>
<path transform="matrix(1,0,0,-1,137.83643,172.66233)" d="M-2.236068-2.236068H2.236068V2.236068H-2.236068Z" fill="#9467bd" fill-opacity=".9"/>
<path transform="matrix(1,0,0,-1,137.83643,172.66233)" stroke-width=".2" stroke-linecap="butt" stroke-linejoin="round" fill="none" stroke="#000000" stroke-opacity=".9" d="M-2.236068-2.236068H2.236068V2.236068H-2.236068Z"/>
</g>
</g>
<g clip-path="url(#clip_37)">
<g>
<path transform="matrix(1,0,0,-1,137.83643,172.66002)" d="M-2.236068-2.236068H2.236068V2.236068H-2.236068Z" fill="#9467bd" fill-opacity=".9"/>
<path transform="matrix(1,0,0,-1,137.83643,172.66002)" stroke-width=".2" stroke-linecap="butt" stroke-linejoin="round" fill="none" stroke="#000000" stroke-opacity=".9" d="M-2.236068-2.236068H2.236068V2.236068H-2.236068Z"/>
</g>
</g>
</g>
<path transform="matrix(1,0,0,-1,0,212.70946)" stroke-width=".8" stroke-linecap="square" stroke-linejoin="round" fill="none" stroke="#000000" d="M144.18334 26.080183 146.42342 29.786744"/>
<path transform="matrix(1,0,0,-1,0,212.70946)" stroke-width=".8" stroke-linecap="square" stroke-linejoin="round" fill="none" stroke="#000000" d="M144.18334 149.63219 146.42342 153.33875"/>
<path transform="matrix(1,0,0,-1,0,212.70946)" stroke-width=".8" stroke-linecap="square" stroke-miterlimit="10" stroke-linejoin="miter" fill="none" stroke="#000000" d="M33.299234 27.933463V151.48546"/>
<path transform="matrix(1,0,0,-1,0,212.70946)" stroke-width=".8" stroke-linecap="square" stroke-miterlimit="10" stroke-linejoin="miter" fill="none" stroke="#000000" d="M33.299234 27.933463H145.30338"/>
<path transform="matrix(1,0,0,-1,0,212.70946)" stroke-width=".8" stroke-linecap="square" stroke-miterlimit="10" stroke-linejoin="miter" fill="none" stroke="#000000" d="M33.299234 151.48546H145.30338"/>
<path transform="matrix(1,0,0,-1,0,212.70946)" d="M147.43146 27.933463H177.29923V151.48546H147.43146Z" fill="#ffffff"/>
<g clip-path="url(#clip_38)">
<path transform="matrix(1,0,0,-1,0,212.70946)" stroke-width="1" stroke-linecap="butt" stroke-dasharray="3.7,1.6" stroke-linejoin="round" fill="none" stroke="#9467bd" d="M0 0"/>
</g>
<g clip-path="url(#clip_39)">
<path transform="matrix(1,0,0,-1,0,212.70946)" stroke-width=".8" stroke-linecap="butt" stroke-dasharray="2.96,1.28" stroke-linejoin="round" fill="none" stroke="#b0b0b0" d="M162.36534 27.933463V151.48546"/>
</g>
<path transform="matrix(1,0,0,-1,0,212.70946)" d="M162.36534 27.933463V24.433463"/>
<path transform="matrix(1,0,0,-1,0,212.70946)" stroke-width=".8" stroke-linecap="butt" stroke-linejoin="round" fill="none" stroke="#000000" d="M162.36534 27.933463V24.433463"/>
<use data-text="1" xlink:href="#font_2_203" transform="matrix(7.970112,0,0,-7.970112,158.3803,197.17966)"/>
<use data-text="6" xlink:href="#font_2_208" transform="matrix(7.970112,0,0,-7.970112,162.36536,197.17966)"/>
<g clip-path="url(#clip_40)">
<path transform="matrix(1,0,0,-1,0,212.70946)" stroke-width=".8" stroke-linecap="butt" stroke-dasharray="2.96,1.28" stroke-linejoin="round" fill="none" stroke="#b0b0b0" d="M147.43146 43.622285H177.29923"/>
<path transform="matrix(1,0,0,-1,0,212.70946)" stroke-width=".8" stroke-linecap="butt" stroke-dasharray="2.96,1.28" stroke-linejoin="round" fill="none" stroke="#b0b0b0" d="M147.43146 78.62989H177.29923"/>
<path transform="matrix(1,0,0,-1,0,212.70946)" stroke-width=".8" stroke-linecap="butt" stroke-dasharray="2.96,1.28" stroke-linejoin="round" fill="none" stroke="#b0b0b0" d="M147.43146 109.94526H177.29923"/>
<path transform="matrix(1,0,0,-1,0,212.70946)" stroke-width=".8" stroke-linecap="butt" stroke-dasharray="2.96,1.28" stroke-linejoin="round" fill="none" stroke="#b0b0b0" d="M147.43146 138.27346H177.29923"/>
</g>
<g clip-path="url(#clip_41)">
<g>
<path transform="matrix(1,0,0,-1,0,212.70946)" d="M162.36534 35.408559 165.52762 38.570837 162.36534 41.733114 159.20307 38.570837Z" fill="#111111" fill-opacity=".9"/>
<path transform="matrix(1,0,0,-1,0,212.70946)" stroke-width=".2" stroke-linecap="butt" stroke-linejoin="round" fill="none" stroke="#000000" stroke-opacity=".9" d="M162.36534 35.408559 165.52762 38.570837 162.36534 41.733114 159.20307 38.570837Z"/>
</g>
</g>
<g clip-path="url(#clip_42)">
</g>
<g clip-path="url(#clip_43)">
</g>
<g clip-path="url(#clip_44)">
</g>
<g clip-path="url(#clip_45)">
</g>
<g clip-path="url(#clip_46)">
<g>
<path transform="matrix(1,0,0,-1,0,212.70946)" d="M-183.35012 59.251035H-178.87798V63.72317H-183.35012Z" fill="#2ca02c" fill-opacity=".9"/>
<path transform="matrix(1,0,0,-1,0,212.70946)" stroke-width=".2" stroke-linecap="butt" stroke-linejoin="round" fill="none" stroke="#000000" stroke-opacity=".9" d="M-183.35012 59.251035H-178.87798V63.72317H-183.35012Z"/>
</g>
<g>
<path transform="matrix(1,0,0,-1,0,212.70946)" d="M-123.61456 38.173116H-119.14243V42.64525H-123.61456Z" fill="#2ca02c" fill-opacity=".9"/>
<path transform="matrix(1,0,0,-1,0,212.70946)" stroke-width=".2" stroke-linecap="butt" stroke-linejoin="round" fill="none" stroke="#000000" stroke-opacity=".9" d="M-123.61456 38.173116H-119.14243V42.64525H-123.61456Z"/>
</g>
</g>
<g clip-path="url(#clip_47)">
<g>
<path transform="matrix(1,0,0,-1,0,212.70946)" d="M-166.18016 52.51199C-165.58715 52.51199-165.01834 52.747598-164.59902 53.16692-164.17969 53.586244-163.94409 54.155046-163.94409 54.74806-163.94409 55.34107-164.17969 55.909875-164.59902 56.329198-165.01834 56.74852-165.58715 56.984128-166.18016 56.984128-166.77317 56.984128-167.34198 56.74852-167.76129 56.329198-168.18062 55.909875-168.41623 55.34107-168.41623 54.74806-168.41623 54.155046-168.18062 53.586244-167.76129 53.16692-167.34198 52.747598-166.77317 52.51199-166.18016 52.51199Z" fill="#d62728" fill-opacity=".9"/>
<path transform="matrix(1,0,0,-1,0,212.70946)" stroke-width=".2" stroke-linecap="butt" stroke-linejoin="round" fill="none" stroke="#000000" stroke-opacity=".9" d="M-166.18016 52.51199C-165.58715 52.51199-165.01834 52.747598-164.59902 53.16692-164.17969 53.586244-163.94409 54.155046-163.94409 54.74806-163.94409 55.34107-164.17969 55.909875-164.59902 56.329198-165.01834 56.74852-165.58715 56.984128-166.18016 56.984128-166.77317 56.984128-167.34198 56.74852-167.76129 56.329198-168.18062 55.909875-168.41623 55.34107-168.41623 54.74806-168.41623 54.155046-168.18062 53.586244-167.76129 53.16692-167.34198 52.747598-166.77317 52.51199-166.18016 52.51199Z"/>
</g>
</g>
<g clip-path="url(#clip_48)">
<g>
<path transform="matrix(1,0,0,-1,0,212.70946)" d="M-183.35012 52.647138H-178.87798V57.119276H-183.35012Z" fill="#d62728" fill-opacity=".9"/>
<path transform="matrix(1,0,0,-1,0,212.70946)" stroke-width=".2" stroke-linecap="butt" stroke-linejoin="round" fill="none" stroke="#000000" stroke-opacity=".9" d="M-183.35012 52.647138H-178.87798V57.119276H-183.35012Z"/>
</g>
</g>
<g clip-path="url(#clip_49)">
</g>
<g clip-path="url(#clip_50)">
</g>
<path transform="matrix(1,0,0,-1,0,212.70946)" stroke-width=".8" stroke-linecap="square" stroke-linejoin="round" fill="none" stroke="#000000" d="M146.31142 26.080183 148.5515 29.786744"/>
<path transform="matrix(1,0,0,-1,0,212.70946)" stroke-width=".8" stroke-linecap="square" stroke-linejoin="round" fill="none" stroke="#000000" d="M146.31142 149.63219 148.5515 153.33875"/>
<path transform="matrix(1,0,0,-1,0,212.70946)" stroke-width=".8" stroke-linecap="square" stroke-miterlimit="10" stroke-linejoin="miter" fill="none" stroke="#000000" d="M177.29923 27.933463V151.48546"/>
<path transform="matrix(1,0,0,-1,0,212.70946)" stroke-width=".8" stroke-linecap="square" stroke-miterlimit="10" stroke-linejoin="miter" fill="none" stroke="#000000" d="M147.43146 27.933463H177.29923"/>
<path transform="matrix(1,0,0,-1,0,212.70946)" stroke-width=".8" stroke-linecap="square" stroke-miterlimit="10" stroke-linejoin="miter" fill="none" stroke="#000000" d="M147.43146 151.48546H177.29923"/>
<use data-text="B" xlink:href="#font_2_134" transform="matrix(7.970112,0,0,-7.970112,66.47546,203.784)"/>
<use data-text="i" xlink:href="#font_2_174" transform="matrix(7.970112,0,0,-7.970112,71.783557,203.784)"/>
<use data-text="t" xlink:href="#font_2_185" transform="matrix(7.970112,0,0,-7.970112,73.99127,203.784)"/>
<use data-text="s" xlink:href="#font_2_184" transform="matrix(7.970112,0,0,-7.970112,76.19899,203.784)"/>
<use data-text="P" xlink:href="#font_2_148" transform="matrix(7.970112,0,0,-7.970112,81.28393,203.784)"/>
<use data-text="e" xlink:href="#font_2_170" transform="matrix(7.970112,0,0,-7.970112,85.70734,203.784)"/>
<use data-text="r" xlink:href="#font_2_183" transform="matrix(7.970112,0,0,-7.970112,89.2381,203.784)"/>
<use data-text="P" xlink:href="#font_2_148" transform="matrix(7.970112,0,0,-7.970112,93.87671,203.784)"/>
<use data-text="a" xlink:href="#font_2_166" transform="matrix(7.970112,0,0,-7.970112,98.18066,203.784)"/>
<use data-text="r" xlink:href="#font_2_183" transform="matrix(7.970112,0,0,-7.970112,101.71142,203.784)"/>
<use data-text="a" xlink:href="#font_2_166" transform="matrix(7.970112,0,0,-7.970112,104.3575,203.784)"/>
<use data-text="m" xlink:href="#font_2_178" transform="matrix(7.970112,0,0,-7.970112,107.88826,203.784)"/>
<use data-text="e" xlink:href="#font_2_170" transform="matrix(7.970112,0,0,-7.970112,114.08104,203.784)"/>
<use data-text="t" xlink:href="#font_2_185" transform="matrix(7.970112,0,0,-7.970112,117.6118,203.784)"/>
<use data-text="e" xlink:href="#font_2_170" transform="matrix(7.970112,0,0,-7.970112,119.81952,203.784)"/>
<use data-text="r" xlink:href="#font_2_183" transform="matrix(7.970112,0,0,-7.970112,123.35028,203.784)"/>
<path transform="matrix(1,0,0,-1,0,212.70946)" d="M42.346124 156.09929H150.25234C151.05234 156.09929 151.45235 156.4993 151.45235 157.29929V182.92546C151.45235 183.72547 151.05234 184.12546 150.25234 184.12546H42.346124C41.54612 184.12546 41.146123 183.72547 41.146123 182.92546V157.29929C41.146123 156.4993 41.54612 156.09929 42.346124 156.09929Z" fill="#f2f2f2"/>
<path transform="matrix(1,0,0,-1,0,212.70946)" stroke-width="1" stroke-linecap="butt" stroke-miterlimit="10" stroke-linejoin="miter" fill="none" stroke="#666666" d="M42.346124 156.09929H150.25234C151.05234 156.09929 151.45235 156.4993 151.45235 157.29929V182.92546C151.45235 183.72547 151.05234 184.12546 150.25234 184.12546H42.346124C41.54612 184.12546 41.146123 183.72547 41.146123 182.92546V157.29929C41.146123 156.4993 41.54612 156.09929 42.346124 156.09929Z"/>
<use data-text="Q" xlink:href="#font_2_149" transform="matrix(6.973848,0,0,-6.973848,66.37481,35.71219)"/>
<use data-text="u" xlink:href="#font_2_186" transform="matrix(6.973848,0,0,-6.973848,71.402957,35.71219)"/>
<use data-text="a" xlink:href="#font_2_166" transform="matrix(6.973848,0,0,-6.973848,74.88988,35.71219)"/>
<use data-text="n" xlink:href="#font_2_179" transform="matrix(6.973848,0,0,-6.973848,77.979297,35.71219)"/>
<use data-text="t" xlink:href="#font_2_185" transform="matrix(6.973848,0,0,-6.973848,81.46622,35.71219)"/>
<use data-text="i" xlink:href="#font_2_174" transform="matrix(6.973848,0,0,-6.973848,83.39797,35.71219)"/>
<use data-text="z" xlink:href="#font_2_191" transform="matrix(6.973848,0,0,-6.973848,85.32973,35.71219)"/>
<use data-text="a" xlink:href="#font_2_166" transform="matrix(6.973848,0,0,-6.973848,88.41914,35.71219)"/>
<use data-text="t" xlink:href="#font_2_185" transform="matrix(6.973848,0,0,-6.973848,91.50856,35.71219)"/>
<use data-text="i" xlink:href="#font_2_174" transform="matrix(6.973848,0,0,-6.973848,93.440319,35.71219)"/>
<use data-text="o" xlink:href="#font_2_180" transform="matrix(6.973848,0,0,-6.973848,95.37207,35.71219)"/>
<use data-text="n" xlink:href="#font_2_179" transform="matrix(6.973848,0,0,-6.973848,98.85899,35.71219)"/>
<use data-text="S" xlink:href="#font_2_151" transform="matrix(6.973848,0,0,-6.973848,104.08938,35.71219)"/>
<use data-text="c" xlink:href="#font_2_168" transform="matrix(6.973848,0,0,-6.973848,107.95986,35.71219)"/>
<use data-text="h" xlink:href="#font_2_173" transform="matrix(6.973848,0,0,-6.973848,111.04928,35.71219)"/>
<use data-text="e" xlink:href="#font_2_170" transform="matrix(6.973848,0,0,-6.973848,114.5362,35.71219)"/>
<use data-text="m" xlink:href="#font_2_178" transform="matrix(6.973848,0,0,-6.973848,117.62562,35.71219)"/>
<use data-text="e" xlink:href="#font_2_170" transform="matrix(6.973848,0,0,-6.973848,123.0443,35.71219)"/>
<path transform="matrix(1,0,0,-1,0,212.70946)" d="M49.54612 166.88748C50.47433 166.88748 51.36465 167.25627 52.020998 167.91262 52.677339 168.56896 53.04612 169.45928 53.04612 170.38748 53.04612 171.3157 52.677339 172.20603 52.020998 172.86237 51.36465 173.5187 50.47433 173.88748 49.54612 173.88748 48.61791 173.88748 47.727594 173.5187 47.071249 172.86237 46.4149 172.20603 46.04612 171.3157 46.04612 170.38748 46.04612 169.45928 46.4149 168.56896 47.071249 167.91262 47.727594 167.25627 48.61791 166.88748 49.54612 166.88748Z" fill="#111111"/>
<path transform="matrix(1,0,0,-1,0,212.70946)" stroke-width=".4" stroke-linecap="butt" stroke-linejoin="round" fill="none" stroke="#000000" d="M49.54612 166.88748C50.47433 166.88748 51.36465 167.25627 52.020998 167.91262 52.677339 168.56896 53.04612 169.45928 53.04612 170.38748 53.04612 171.3157 52.677339 172.20603 52.020998 172.86237 51.36465 173.5187 50.47433 173.88748 49.54612 173.88748 48.61791 173.88748 47.727594 173.5187 47.071249 172.86237 46.4149 172.20603 46.04612 171.3157 46.04612 170.38748 46.04612 169.45928 46.4149 168.56896 47.071249 167.91262 47.727594 167.25627 48.61791 166.88748 49.54612 166.88748Z"/>
<use data-text="B" xlink:href="#font_2_134" transform="matrix(5.977584,0,0,-5.977584,58.54612,44.421968)"/>
<use data-text="F" xlink:href="#font_2_138" transform="matrix(5.977584,0,0,-5.977584,62.52719,44.421968)"/>
<use data-text="1" xlink:href="#font_2_203" transform="matrix(5.977584,0,0,-5.977584,65.84475,44.421968)"/>
<use data-text="6" xlink:href="#font_2_208" transform="matrix(5.977584,0,0,-5.977584,68.83354,44.421968)"/>
<path transform="matrix(1,0,0,-1,0,212.70946)" d="M49.54612 158.39339C50.47433 158.39339 51.36465 158.76218 52.020998 159.41852 52.677339 160.07486 53.04612 160.96518 53.04612 161.89339 53.04612 162.8216 52.677339 163.71192 52.020998 164.36827 51.36465 165.02462 50.47433 165.39339 49.54612 165.39339 48.61791 165.39339 47.727594 165.02462 47.071249 164.36827 46.4149 163.71192 46.04612 162.8216 46.04612 161.89339 46.04612 160.96518 46.4149 160.07486 47.071249 159.41852 47.727594 158.76218 48.61791 158.39339 49.54612 158.39339Z" fill="#1f77b4"/>
<path transform="matrix(1,0,0,-1,0,212.70946)" stroke-width=".4" stroke-linecap="butt" stroke-linejoin="round" fill="none" stroke="#000000" d="M49.54612 158.39339C50.47433 158.39339 51.36465 158.76218 52.020998 159.41852 52.677339 160.07486 53.04612 160.96518 53.04612 161.89339 53.04612 162.8216 52.677339 163.71192 52.020998 164.36827 51.36465 165.02462 50.47433 165.39339 49.54612 165.39339 48.61791 165.39339 47.727594 165.02462 47.071249 164.36827 46.4149 163.71192 46.04612 162.8216 46.04612 161.89339 46.04612 160.96518 46.4149 160.07486 47.071249 159.41852 47.727594 158.76218 48.61791 158.39339 49.54612 158.39339Z"/>
<use data-text="M" xlink:href="#font_2_145" transform="matrix(5.977584,0,0,-5.977584,58.54612,52.91606)"/>
<use data-text="X" xlink:href="#font_2_156" transform="matrix(5.977584,0,0,-5.977584,63.854215,52.91606)"/>
<use data-text="F" xlink:href="#font_2_138" transform="matrix(5.977584,0,0,-5.977584,68.164058,52.91606)"/>
<use data-text="P" xlink:href="#font_2_148" transform="matrix(5.977584,0,0,-5.977584,71.48161,52.91606)"/>
<path transform="matrix(1,0,0,-1,0,212.70946)" d="M89.8229 166.88748C90.75111 166.88748 91.641429 167.25627 92.29777 167.91262 92.95412 168.56896 93.3229 169.45928 93.3229 170.38748 93.3229 171.3157 92.95412 172.20603 92.29777 172.86237 91.641429 173.5187 90.75111 173.88748 89.8229 173.88748 88.894687 173.88748 88.00437 173.5187 87.34802 172.86237 86.69168 172.20603 86.3229 171.3157 86.3229 170.38748 86.3229 169.45928 86.69168 168.56896 87.34802 167.91262 88.00437 167.25627 88.894687 166.88748 89.8229 166.88748Z" fill="#ff7f0e"/>
<path transform="matrix(1,0,0,-1,0,212.70946)" stroke-width=".4" stroke-linecap="butt" stroke-linejoin="round" fill="none" stroke="#000000" d="M89.8229 166.88748C90.75111 166.88748 91.641429 167.25627 92.29777 167.91262 92.95412 168.56896 93.3229 169.45928 93.3229 170.38748 93.3229 171.3157 92.95412 172.20603 92.29777 172.86237 91.641429 173.5187 90.75111 173.88748 89.8229 173.88748 88.894687 173.88748 88.00437 173.5187 87.34802 172.86237 86.69168 172.20603 86.3229 171.3157 86.3229 170.38748 86.3229 169.45928 86.69168 168.56896 87.34802 167.91262 88.00437 167.25627 88.894687 166.88748 89.8229 166.88748Z"/>
<use data-text="N" xlink:href="#font_2_146" transform="matrix(5.977584,0,0,-5.977584,98.8229,44.421968)"/>
<use data-text="V" xlink:href="#font_2_154" transform="matrix(5.977584,0,0,-5.977584,103.13274,44.421968)"/>
<use data-text="F" xlink:href="#font_2_138" transform="matrix(5.977584,0,0,-5.977584,107.44257,44.421968)"/>
<use data-text="P" xlink:href="#font_2_148" transform="matrix(5.977584,0,0,-5.977584,110.76013,44.421968)"/>
<path transform="matrix(1,0,0,-1,0,212.70946)" d="M89.8229 158.39339C90.75111 158.39339 91.641429 158.76218 92.29777 159.41852 92.95412 160.07486 93.3229 160.96518 93.3229 161.89339 93.3229 162.8216 92.95412 163.71192 92.29777 164.36827 91.641429 165.02462 90.75111 165.39339 89.8229 165.39339 88.894687 165.39339 88.00437 165.02462 87.34802 164.36827 86.69168 163.71192 86.3229 162.8216 86.3229 161.89339 86.3229 160.96518 86.69168 160.07486 87.34802 159.41852 88.00437 158.76218 88.894687 158.39339 89.8229 158.39339Z" fill="#2ca02c"/>
<path transform="matrix(1,0,0,-1,0,212.70946)" stroke-width=".4" stroke-linecap="butt" stroke-linejoin="round" fill="none" stroke="#000000" d="M89.8229 158.39339C90.75111 158.39339 91.641429 158.76218 92.29777 159.41852 92.95412 160.07486 93.3229 160.96518 93.3229 161.89339 93.3229 162.8216 92.95412 163.71192 92.29777 164.36827 91.641429 165.02462 90.75111 165.39339 89.8229 165.39339 88.894687 165.39339 88.00437 165.02462 87.34802 164.36827 86.69168 163.71192 86.3229 162.8216 86.3229 161.89339 86.3229 160.96518 86.69168 160.07486 87.34802 159.41852 88.00437 158.76218 88.894687 158.39339 89.8229 158.39339Z"/>
<use data-text="N" xlink:href="#font_2_146" transform="matrix(5.977584,0,0,-5.977584,98.8229,52.91606)"/>
<use data-text="V" xlink:href="#font_2_154" transform="matrix(5.977584,0,0,-5.977584,103.13274,52.91606)"/>
<use data-text="I" xlink:href="#font_2_141" transform="matrix(5.977584,0,0,-5.977584,107.44257,52.91606)"/>
<use data-text="N" xlink:href="#font_2_146" transform="matrix(5.977584,0,0,-5.977584,109.42713,52.91606)"/>
<use data-text="T" xlink:href="#font_2_152" transform="matrix(5.977584,0,0,-5.977584,113.73697,52.91606)"/>
<path transform="matrix(1,0,0,-1,0,212.70946)" d="M132.41306 166.88748C133.34127 166.88748 134.23159 167.25627 134.88793 167.91262 135.54427 168.56896 135.91306 169.45928 135.91306 170.38748 135.91306 171.3157 135.54427 172.20603 134.88793 172.86237 134.23159 173.5187 133.34127 173.88748 132.41306 173.88748 131.48484 173.88748 130.59453 173.5187 129.93817 172.86237 129.28183 172.20603 128.91306 171.3157 128.91306 170.38748 128.91306 169.45928 129.28183 168.56896 129.93817 167.91262 130.59453 167.25627 131.48484 166.88748 132.41306 166.88748Z" fill="#d62728"/>
<path transform="matrix(1,0,0,-1,0,212.70946)" stroke-width=".4" stroke-linecap="butt" stroke-linejoin="round" fill="none" stroke="#000000" d="M132.41306 166.88748C133.34127 166.88748 134.23159 167.25627 134.88793 167.91262 135.54427 168.56896 135.91306 169.45928 135.91306 170.38748 135.91306 171.3157 135.54427 172.20603 134.88793 172.86237 134.23159 173.5187 133.34127 173.88748 132.41306 173.88748 131.48484 173.88748 130.59453 173.5187 129.93817 172.86237 129.28183 172.20603 128.91306 171.3157 128.91306 170.38748 128.91306 169.45928 129.28183 168.56896 129.93817 167.91262 130.59453 167.25627 131.48484 166.88748 132.41306 166.88748Z"/>
<use data-text="4" xlink:href="#font_2_206" transform="matrix(5.977584,0,0,-5.977584,141.41306,44.421968)"/>
<use data-text="/" xlink:href="#font_2_240" transform="matrix(5.977584,0,0,-5.977584,144.40184,44.421968)"/>
<use data-text="6" xlink:href="#font_2_208" transform="matrix(5.977584,0,0,-5.977584,146.05764,44.421968)"/>
<path transform="matrix(1,0,0,-1,0,212.70946)" d="M132.41306 158.39339C133.34127 158.39339 134.23159 158.76218 134.88793 159.41852 135.54427 160.07486 135.91306 160.96518 135.91306 161.89339 135.91306 162.8216 135.54427 163.71192 134.88793 164.36827 134.23159 165.02462 133.34127 165.39339 132.41306 165.39339 131.48484 165.39339 130.59453 165.02462 129.93817 164.36827 129.28183 163.71192 128.91306 162.8216 128.91306 161.89339 128.91306 160.96518 129.28183 160.07486 129.93817 159.41852 130.59453 158.76218 131.48484 158.39339 132.41306 158.39339Z" fill="#9467bd"/>
<path transform="matrix(1,0,0,-1,0,212.70946)" stroke-width=".4" stroke-linecap="butt" stroke-linejoin="round" fill="none" stroke="#000000" d="M132.41306 158.39339C133.34127 158.39339 134.23159 158.76218 134.88793 159.41852 135.54427 160.07486 135.91306 160.96518 135.91306 161.89339 135.91306 162.8216 135.54427 163.71192 134.88793 164.36827 134.23159 165.02462 133.34127 165.39339 132.41306 165.39339 131.48484 165.39339 130.59453 165.02462 129.93817 164.36827 129.28183 163.71192 128.91306 162.8216 128.91306 161.89339 128.91306 160.96518 129.28183 160.07486 129.93817 159.41852 130.59453 158.76218 131.48484 158.39339 132.41306 158.39339Z"/>
<use data-text="I" xlink:href="#font_2_141" transform="matrix(5.977584,0,0,-5.977584,141.41306,52.91606)"/>
<use data-text="F" xlink:href="#font_2_138" transform="matrix(5.977584,0,0,-5.977584,143.39762,52.91606)"/>
<path transform="matrix(1,0,0,-1,0,212.70946)" d="M38.980615 185.97739H153.61785C154.41785 185.97739 154.81786 186.3774 154.81786 187.17739V204.30947C154.81786 205.10947 154.41785 205.50946 153.61785 205.50946H38.980615C38.18061 205.50946 37.780614 205.10947 37.780614 204.30947V187.17739C37.780614 186.3774 38.18061 185.97739 38.980615 185.97739Z" fill="#f2f2f2"/>
<path transform="matrix(1,0,0,-1,0,212.70946)" stroke-width="1" stroke-linecap="butt" stroke-miterlimit="10" stroke-linejoin="miter" fill="none" stroke="#666666" d="M38.980615 185.97739H153.61785C154.41785 185.97739 154.81786 186.3774 154.81786 187.17739V204.30947C154.81786 205.10947 154.41785 205.50946 153.61785 205.50946H38.980615C38.18061 205.50946 37.780614 205.10947 37.780614 204.30947V187.17739C37.780614 186.3774 38.18061 185.97739 38.980615 185.97739Z"/>
<use data-text="B" xlink:href="#font_2_134" transform="matrix(6.973848,0,0,-6.973848,81.09295,14.328186)"/>
<use data-text="l" xlink:href="#font_2_177" transform="matrix(6.973848,0,0,-6.973848,85.73753,14.328186)"/>
<use data-text="o" xlink:href="#font_2_180" transform="matrix(6.973848,0,0,-6.973848,87.66929,14.328186)"/>
<use data-text="c" xlink:href="#font_2_168" transform="matrix(6.973848,0,0,-6.973848,91.15621,14.328186)"/>
<use data-text="k" xlink:href="#font_2_176" transform="matrix(6.973848,0,0,-6.973848,94.24563,14.328186)"/>
<use data-text="S" xlink:href="#font_2_151" transform="matrix(6.973848,0,0,-6.973848,99.47601,14.328186)"/>
<use data-text="i" xlink:href="#font_2_174" transform="matrix(6.973848,0,0,-6.973848,103.3465,14.328186)"/>
<use data-text="z" xlink:href="#font_2_191" transform="matrix(6.973848,0,0,-6.973848,105.27825,14.328186)"/>
<use data-text="e" xlink:href="#font_2_170" transform="matrix(6.973848,0,0,-6.973848,108.36767,14.328186)"/>
<path transform="matrix(1,0,0,-1,0,212.70946)" d="M46.18061 188.27149C47.10882 188.27149 47.99914 188.64028 48.655485 189.29662 49.31183 189.95296 49.68061 190.84328 49.68061 191.77149 49.68061 192.69969 49.31183 193.59001 48.655485 194.24637 47.99914 194.90271 47.10882 195.27149 46.18061 195.27149 45.2524 195.27149 44.362085 194.90271 43.705739 194.24637 43.049394 193.59001 42.68061 192.69969 42.68061 191.77149 42.68061 190.84328 43.049394 189.95296 43.705739 189.29662 44.362085 188.64028 45.2524 188.27149 46.18061 188.27149Z" fill="#ffffff"/>
<path transform="matrix(1,0,0,-1,0,212.70946)" stroke-width="1" stroke-linecap="butt" stroke-linejoin="round" fill="none" stroke="#000000" d="M46.18061 188.27149C47.10882 188.27149 47.99914 188.64028 48.655485 189.29662 49.31183 189.95296 49.68061 190.84328 49.68061 191.77149 49.68061 192.69969 49.31183 193.59001 48.655485 194.24637 47.99914 194.90271 47.10882 195.27149 46.18061 195.27149 45.2524 195.27149 44.362085 194.90271 43.705739 194.24637 43.049394 193.59001 42.68061 192.69969 42.68061 191.77149 42.68061 190.84328 43.049394 189.95296 43.705739 189.29662 44.362085 188.64028 45.2524 188.27149 46.18061 188.27149Z"/>
<use data-text="8" xlink:href="#font_2_210" transform="matrix(5.977584,0,0,-5.977584,55.18061,23.037964)"/>
<path transform="matrix(1,0,0,-1,0,212.70946)" d="M69.6694 188.27149H76.6694V195.27149H69.6694Z" fill="#ffffff"/>
<path transform="matrix(1,0,0,-1,0,212.70946)" stroke-width="1" stroke-linecap="butt" stroke-miterlimit="10" stroke-linejoin="miter" fill="none" stroke="#000000" d="M69.6694 188.27149H76.6694V195.27149H69.6694Z"/>
<use data-text="1" xlink:href="#font_2_203" transform="matrix(5.977584,0,0,-5.977584,82.1694,23.037964)"/>
<use data-text="6" xlink:href="#font_2_208" transform="matrix(5.977584,0,0,-5.977584,85.158199,23.037964)"/>
<path transform="matrix(1,0,0,-1,0,212.70946)" d="M103.14699 195.27149 99.64699 188.27149H106.64699Z" fill="#ffffff"/>
<path transform="matrix(1,0,0,-1,0,212.70946)" stroke-width="1" stroke-linecap="butt" stroke-miterlimit="10" stroke-linejoin="miter" fill="none" stroke="#000000" d="M103.14699 195.27149 99.64699 188.27149H106.64699Z"/>
<use data-text="3" xlink:href="#font_2_205" transform="matrix(5.977584,0,0,-5.977584,112.14699,23.037964)"/>
<use data-text="2" xlink:href="#font_2_204" transform="matrix(5.977584,0,0,-5.977584,115.13578,23.037964)"/>
<path transform="matrix(1,0,0,-1,0,212.70946)" d="M133.12458 186.82175 138.07433 191.77149 133.12458 196.72124 128.17482 191.77149Z" fill="#ffffff"/>
<path transform="matrix(1,0,0,-1,0,212.70946)" stroke-width="1" stroke-linecap="butt" stroke-miterlimit="10" stroke-linejoin="miter" fill="none" stroke="#000000" d="M133.12458 186.82175 138.07433 191.77149 133.12458 196.72124 128.17482 191.77149Z"/>
<use data-text="N" xlink:href="#font_2_146" transform="matrix(5.977584,0,0,-5.977584,142.12458,23.037964)"/>
<use data-text="/" xlink:href="#font_2_240" transform="matrix(5.977584,0,0,-5.977584,146.43442,23.037964)"/>
<use data-text="A" xlink:href="#font_2_133" transform="matrix(5.977584,0,0,-5.977584,148.09021,23.037964)"/>
</svg>
